<svg width="208" height="205" fill="none" xmlns="http://www.w3.org/2000/svg"><path d="m57.456 66.535 2.104-5.745c3.037-8.288 5.965-16.63 9.148-24.882a72.087 72.087 0 0 1 8.636-15.863 53.352 53.352 0 0 1 21.535-18.48 14.016 14.016 0 0 1 6.989-1.554c5.635.53 8.379 4.39 7.885 10.593-.238 3.184-.805 6.367-1.335 9.533-.418 3.6-.133 7.248.841 10.74 1.281 5.89 2.525 11.782 3.659 17.692a61.584 61.584 0 0 1 .348 16.612 84.781 84.781 0 0 1-5.617 24.828 64.707 64.707 0 0 1-7.19 13.631c-.33.439-.586.933-1.153 1.829 1.061-.366 1.72-.549 2.324-.823a124.605 124.605 0 0 1 34.158-9.66c8.874-1.39 17.674-3.294 26.493-5.05a49.677 49.677 0 0 1 11.966-1.19 9.898 9.898 0 0 1 9.752 12.113 22.063 22.063 0 0 1-5.288 10.648 81.102 81.102 0 0 1-23.419 18.772l-2.488 1.464c.311.256.421.42.512.402 5.928-.421 11.893-.659 17.784-1.39a69.451 69.451 0 0 0 9.532-2.562 53.188 53.188 0 0 1 15.588-2.744c5.91.128 9.148 4.629 7.081 10.209a18.81 18.81 0 0 1-4.611 7.007 53.889 53.889 0 0 1-6.147 5.489 115.066 115.066 0 0 1-27.883 14.637 57.38 57.38 0 0 1-25.981 2.378c-10.227-1.042-20.4-2.616-30.664-3.384a97.451 97.451 0 0 0-40.965 5.891c-1.83.622-3.33 1.61-5.031 2.342a43.044 43.044 0 0 1-14.363 3.805c-1.443.142-2.899.062-4.318-.237a12.492 12.492 0 0 0-12.313 3.769c-2.085 2.122-.36 6.679-2.025 9.145-4.39 6.257-12.246 10.377-16.564 16.67-1.08 1.574-1.134 1.537-3.147 1.83l1.354-2.049c5.857-6.951 9.592-9.089 16.87-16.451 2.3-2.328.626-10.087.97-12.813a16.686 16.686 0 0 0-.97-8.06 32.472 32.472 0 0 0-1.83-4.446 32.824 32.824 0 0 1-2.8-19.065 73.987 73.987 0 0 1 2.25-11.087c1.41-5.178 1.007-10.356.714-15.57-.823-14.472-6.275-27.664-11.142-41.02C13.838 61.083 8.642 47.82 3.702 34.481A52.84 52.84 0 0 1 .043 19.313a16.704 16.704 0 0 1 .165-3.824 3.202 3.202 0 0 1 5.178-2.451 12.37 12.37 0 0 1 2.909 2.122 54.393 54.393 0 0 1 4.684 5.178 32.804 32.804 0 0 0 8.873 8.087c4.849 3 9.715 6 14.49 9.148a47.918 47.918 0 0 1 20.328 27.26c.096.307.212.606.347.897.134.275.28.544.44.805zm-29.53 82.04c.33 1.83.787 4.995 1.629 8.16a12.096 12.096 0 0 0 4.39 6.77c2.635 1.994 5.672 2.963 7.648-1.83.144-.375.321-.737.531-1.08a119.487 119.487 0 0 1 6.916-10.977 157.347 157.347 0 0 1 49.107-41.386 10.464 10.464 0 0 0 3.238-2.763 59.794 59.794 0 0 0 7.758-13.3 39.524 39.524 0 0 0 3.201-19.816 90.897 90.897 0 0 0-3.238-15.039 81.862 81.862 0 0 1-3.385-21.882 59.885 59.885 0 0 1 3.659-21.48 30.275 30.275 0 0 0 1.501-5.324 5.496 5.496 0 0 0-1.136-5.23 5.488 5.488 0 0 0-5.048-1.777 10.72 10.72 0 0 0-3.952.878 57.856 57.856 0 0 0-8.453 4.574 56.041 56.041 0 0 0-15.058 15.79 102.463 102.463 0 0 0-10.1 20.784c-2.89 7.922-5.488 15.936-8.452 23.785a298.821 298.821 0 0 1-14.637 31.25 193.415 193.415 0 0 0-12.039 27.334 76.842 76.842 0 0 0-4.043 22.65l-.037-.091zm149.607-58.108a29.418 29.418 0 0 0-14.307 3.659c-3.275 1.701-6.477 3.567-9.624 5.489a219.149 219.149 0 0 1-55.73 25.468c-7.556 2.177-15.04 4.647-22.43 7.318a60.016 60.016 0 0 0-15.937 8.435c-6.66 5.086-11.252 11.874-15.423 18.954a14.535 14.535 0 0 0-1.372 3.66 6.348 6.348 0 0 0 3.988 7.995 12.404 12.404 0 0 0 7.794.531 47.073 47.073 0 0 0 16.32-6.313c2.543-1.683 5.178-3.256 7.685-4.994a109.879 109.879 0 0 1 35.183-16.467c7.849-2.049 15.57-4.537 23.382-6.733a93.682 93.682 0 0 0 36.593-19.192 84.686 84.686 0 0 0 8.58-8.801 17.858 17.858 0 0 0 4.428-9.148c.86-5.763-2.397-9.733-8.233-9.806l-.897-.055zm-84.839 63.359.293.439a110.305 110.305 0 0 1 19.357-4.428 74.628 74.628 0 0 1 18.498-.567c7.812.878 15.606 2.068 23.419 2.928a95.365 95.365 0 0 0 22.138-.293 57.51 57.51 0 0 0 22.705-8.526 15.85 15.85 0 0 0 6.971-8.361 5.8 5.8 0 0 0-5.653-8.289 40.08 40.08 0 0 0-11.874 1.83c-2.489.659-4.94 1.409-7.319 2.196a56.406 56.406 0 0 1-16.466 2.396 55.44 55.44 0 0 0-15.479 2.013c-10.502 3.275-21.04 6.44-31.561 9.605a146.617 146.617 0 0 0-19.87 6.678c-1.7.751-3.402 1.629-5.122 2.47l-.037-.091zM2.696 13.476a5.38 5.38 0 0 0-1.354 4.538c.214 2.878.71 5.727 1.482 8.508C5.367 34.298 8.148 42 10.984 49.685c5.489 14.91 11.6 29.621 16.302 44.825a75.713 75.713 0 0 1 3.66 19.339c.109 2.635.402 5.269.658 8.508.567-1.373.988-2.196 1.28-3.074a121.95 121.95 0 0 0 5.325-30.737c.274-4.977.164-9.972 0-14.948a31.634 31.634 0 0 0-1.83-11.124 24.833 24.833 0 0 0-1.701-3.074c-2.123-.695-3.952.31-5.49-1.116a10.55 10.55 0 0 1 .202-1.83 12.496 12.496 0 0 0-.805-8.453 82.127 82.127 0 0 0-9.77-17.674c-3.019-3.952-5.965-7.977-9.148-11.855a24.48 24.48 0 0 0-4.245-3.88 11.822 11.822 0 0 0-2.726-1.115zm59.188 123.609.366.512a99.408 99.408 0 0 1 17.692-8.178c5.233-1.83 10.539-3.385 15.845-4.995 14.856-4.537 29.419-9.77 42.922-17.619a5388.221 5388.221 0 0 1 24.242-13.978c.295-.108.603-.175.915-.201l-.512-.604c-.384 0-.787 0-1.153.11-8.526 1.573-17.052 3.11-25.614 4.775-5.377.91-10.702 2.1-15.954 3.568-18.297 5.635-34.232 15.405-48.778 27.627-3.421 2.982-6.623 6.129-9.971 9.074v-.091zm134.073 10.063a5.318 5.318 0 0 0-.933-.293c-.585.256-1.171.512-1.829.805a54.236 54.236 0 0 1-23.364 6.056 144.25 144.25 0 0 1-30.482-2.049 89.105 89.105 0 0 0-25.157-.915 92.554 92.554 0 0 0-31.45 9.313c-2.397 1.226-4.63 2.744-6.953 4.116a1.593 1.593 0 0 0 1.354.257c4.373-1.007 8.727-2.141 13.118-3.001a82.336 82.336 0 0 1 22.815-1.098c10.228.897 20.419 2.287 30.646 3.385a54.547 54.547 0 0 0 21.955-1.592 114.737 114.737 0 0 0 28.817-14.362c.476-.207.965-.385 1.463-.531v-.091zM30.561 57.643a7.082 7.082 0 0 0 1.83.202c2.561-.384 3.897 1.06 4.793 3.147a13.335 13.335 0 0 1 1.08 3.183 101.39 101.39 0 0 1 1.353 10.484 131.953 131.953 0 0 1-2.286 31.03c-.238 1.189-.385 2.415-.568 3.659.53-.3.944-.771 1.171-1.335 2.763-5.489 5.49-10.978 8.288-16.613 3.129-6.514 6.166-13.082 9.276-19.614a6.86 6.86 0 0 0 .366-4.903 47.094 47.094 0 0 0-19.54-27.444c-5.104-3.513-10.428-6.697-15.643-10.026a8.478 8.478 0 0 0-1.354-.458c.512.842.769 1.336 1.098 1.83a79.774 79.774 0 0 1 9.148 16.686 13.173 13.173 0 0 1 1.043 9.148c-.054.37-.073.743-.055 1.116v-.092zm83.082 19.614a62.484 62.484 0 0 0 2.379-15.186 78.956 78.956 0 0 0-.165-10.612 125.07 125.07 0 0 0-3.86-20.125 26.377 26.377 0 0 1-1.043-10.484c.347-2.543.878-5.068 1.134-7.611a13.08 13.08 0 0 0 0-5.891c-.75 2.927-1.372 5.818-2.232 8.635a60.583 60.583 0 0 0-3 19.815 82.904 82.904 0 0 0 3.073 19.943 83.32 83.32 0 0 1 3.385 16.228c.092 1.793.22 3.586.329 5.38v-.092z" fill="#868C96"/><path d="M77.658 41.577c-1.555 3.952-3.073 7.923-4.665 11.856-7.062 17.455-15.57 34.214-24.023 51.01a230.826 230.826 0 0 0-12.532 27.444 100.623 100.623 0 0 0-3.44 11.984 81.417 81.417 0 0 0-1.025 9.148c-.896-7.008 1.116-14.088 3.495-21.132a190.372 190.372 0 0 1 9.77-21.955c4.281-8.819 8.965-17.437 13.136-26.31 6.148-13.082 11.984-26.31 17.985-39.465.385-.841.897-1.628 1.354-2.451l-.055-.129zM180.168 140.817c-2.946.641-5.873 1.428-8.855 1.83-4.666.732-9.368 1.281-14.052 1.83-2.067.256-4.153.42-6.239.567-5.196.366-10.428.567-15.625 1.079a141.917 141.917 0 0 0-28.285 5.398c-.531.164-1.08.329-1.629.457 0 0-.219-.11-.768-.402 2.799-.897 5.251-1.83 7.758-2.47 7.101-2 14.381-3.306 21.735-3.898 6.239-.494 12.496-.859 18.717-1.463 8.069-.805 16.101-1.83 24.151-2.671 1.043-.128 2.086-.165 3.129-.238l-.037-.019zM110.679 140.415c-3.952 1.921-7.904 3.86-11.892 5.727a281.74 281.74 0 0 0-33.354 18.296 127.134 127.134 0 0 1-11.216 6.056 17.537 17.537 0 0 1-9.44 1.226 5.028 5.028 0 0 1-2.16-.86c5.984 1.171 11.271-.622 16.248-3.66 5.489-3.293 10.977-6.733 16.466-9.989a312.727 312.727 0 0 1 33.354-16.229c.673-.228 1.365-.4 2.067-.512l-.073-.055zM80.802 149.599a30.357 30.357 0 0 1 2.891-2.433 120.435 120.435 0 0 1 19.394-10.099c13.923-5.983 27.883-11.856 41.806-17.839 3.659-1.555 7.117-3.312 10.667-4.977l.128.147c-4.354 2.195-8.599 4.629-13.063 6.586-11.655 5.105-23.438 9.972-35.129 15.022a153.811 153.811 0 0 0-26.255 13.429c-.149.072-.31.116-.475.128l.036.036zM64.354 110.043c-4.007 6.294-8.032 12.57-12.039 18.882a137.441 137.441 0 0 0-11.49 21.388 35.701 35.701 0 0 0-2.47 10.74c.045 1.353.241 2.697.586 4.007 0 .347 0 .713.164 1.5a5.944 5.944 0 0 1-1.83-4.464 31.105 31.105 0 0 1 2.654-12.606 112.26 112.26 0 0 1 10.209-18.644c4.153-6.385 8.453-12.697 12.716-19.028.481-.64 1-1.251 1.555-1.83l-.055.055zM78.368 102.743c.421-.86.787-1.738 1.281-2.543 4.61-7.63 9.295-15.222 13.832-22.888 5.086-8.6 8.636-17.912 12.441-27.115.385-.933.805-1.83 1.336-3.11a2.85 2.85 0 0 1-.256 2.708A167.39 167.39 0 0 1 91.56 82.362c-3.952 6.239-7.904 12.496-11.874 18.716-.41.576-.863 1.121-1.354 1.629l.036.036zM32.94 48.24c.262.177.502.386.713.621a66.524 66.524 0 0 1 11.38 27.81 48.922 48.922 0 0 1-.128 17.949 13.744 13.744 0 0 1-2.872 6.404c.677-2.287 1.518-4.538 2.049-6.862a41.35 41.35 0 0 0 .384-14.636c-.61-4.036-1.46-8.031-2.543-11.966a58.548 58.548 0 0 0-6.97-15.552c-.733-1.226-1.318-2.543-1.977-3.824l-.036.055zM52.773 156.351c.417-.576.875-1.12 1.372-1.629a162.825 162.825 0 0 1 41.861-28.285c1.3-.586 2.671-.97 4.025-1.464-3.53 1.83-7.099 3.659-10.593 5.489a212.008 212.008 0 0 0-34.763 24.517c-.616.484-1.258.936-1.92 1.354l.017.018zM74.966 58.266c1.61-4.026 3.183-8.05 4.848-12.04 3.842-9.172 7.703-18.32 11.581-27.443.237-.71.66-1.341 1.226-1.83 0 .238-.128.476-.22.714-5.379 12.782-10.764 25.59-16.155 38.421-.39.765-.836 1.498-1.335 2.196l.055-.018zM155.651 119.173c.641-.457 1.244-.969 1.921-1.372a158.972 158.972 0 0 0 21.608-14.893c2.543-2.196 4.922-4.592 7.684-6.751a11.997 11.997 0 0 1-1.463 2.067 90.09 90.09 0 0 1-8.984 7.977c-6.037 4.245-12.368 8.087-18.607 12.057-.702.363-1.437.658-2.195.879l.036.036zM95.183 82.343l13.283-27.847h.182c-.311.952-.567 1.94-.933 2.873a150.81 150.81 0 0 1-10.813 22.779 14.955 14.955 0 0 1-1.83 2.104l.11.091zM167.232 147.038a156.663 156.663 0 0 1-37.122 1.83c12.459-.439 24.864-.385 37.122-1.83zM47.85 67.14c.494 1.758.897 3.541 1.208 5.342.805 6.568.988 13.1-1.976 19.32.147-.823.275-1.665.458-2.506.183-.842.402-1.83.603-2.818.795-3.528.98-7.167.55-10.758-.421-2.854-.55-5.763-.806-8.636l-.036.055zM43.094 54.02a6.185 6.185 0 0 1 2.214 4.374c-.732-1.464-1.464-2.928-2.214-4.391v.018zM68.672 71.86a8.636 8.636 0 0 1-2.544 4.61l2.562-4.61h-.018z" fill="#868C96"/><path d="m155.56 114.252 4.354-2.397-4.117 2.579-.237-.182zM77.93 42.44c.274-1.007.53-2.013.804-3.02l-.805 3.001v.019zM80.747 149.563l-1.958 1.39 1.958-1.408v.018zM153.73 120.088l1.83-.915-1.939.897.109.018zM180.205 140.872l1.024-.402v.274h-1.116l.092.128zM78.332 102.707l-.97 1.427.952-1.427h.018zM76.429 105.579l.988-1.408-.988 1.39v.018zM75.423 107.025c.33-.476.677-.952 1.006-1.446l-.933 1.446h-.073zM32.976 48.148l-.915-1.427.933 1.409-.018.018zM112.692 139.427l1.299-.494-1.299.457v.037zM94.36 84.356l.493-.805-.493.805zM74.453 59.217l-.512.768.585-.768h-.073zM73.923 60.077l-.11.31h.146a.7.7 0 0 0 0-.182l-.036-.128z" fill="#868C96"/><path d="m159.914 111.855 1.043-.403-1.098.366.055.037zM94.853 83.55l.33-1.207-.311 1.208h-.019zM93.28 85.82l.512-.86-.44.896-.072-.036zM69.239 70.853v-.22l-.128.184.128.036zM68.726 71.896c.183-.347.348-.695.513-1.043l-.513 1.043zM110.735 140.47l.841-.604-.841.585v.019zM31.457 46.172l-.384-.86c.11.293.238.585.366.878l.018-.018zM112.637 139.372l-1.116.457 1.116-.439v-.018zM113.991 138.933l.659-.311-.714.293.055.018zM100.031 124.973l.128-.11h-.183l.055.11zM102.062 124.26l-.165.018.037-.11.128.092zM149.705 122.009h-.293v.165l.238-.165h.055zM150.656 121.424l-.951.494.951-.494zM151.626 121.021l-.97.494.97-.476v-.018zM151.663 121.058l.951-.531-.933.531h-.018zM153.675 120.033l-1.116.457 1.116-.439v-.018zM74.508 59.363l.458-1.097-.458 1.097zM32.061 46.72l-.604-.548.604.549zM30.543 44.763l.494.586-.53-.531.036-.055z" fill="#868C96"/><path d="m30.543 44.781-.147-.146v.165h.146v-.019zM78.753 39.42l.073-.018-.146.018h.073zM51.82 157.394l.458-.549-.457.53v.019zM52.278 156.845l.495-.494-.495.494zM78.808 150.954l-.055.164.091-.11-.036-.054zM71.105 113.355h-.201l.22.22v-.202l-.019-.018z" fill="#868C96"/><path d="M71.105 113.355h.164l-.182-.201v.183l.018.018zM72.093 111.91h-.183l.201.201v-.183l-.018-.018z" fill="#868C96"/><path d="M72.093 111.91h.165l-.201-.165v.165h.036zM162.384 110.446h.146l-.183-.183v.165l.037.018zM73.52 110.007l.128-.165h-.146v.147l.018.018zM93.316 85.801l-.11.165h.147v-.147l-.037-.018zM93.792 84.96l.567-.604-.548.604h-.019z" fill="#868C96"/></svg>