<svg width="119" height="93" viewBox="0 0 119 93" fill="none" xmlns="http://www.w3.org/2000/svg">
<path opacity="0.1" d="M37.5004 92.5C32.9004 92.5 28.9004 91.6 25.5004 89.8C22.3004 87.8 19.6004 85.3 17.4004 82.3C15.2004 79.1 13.6004 75.4 12.6004 71.2C11.8004 67 11.4004 62.9 11.4004 58.9C11.4004 49.1 13.9004 40 18.9004 31.6C24.1004 23.2 32.0004 16.5 42.6004 11.5L45.3004 16.9C39.5004 19.5 34.4004 23.4 30.0004 28.6C25.8004 33.6 23.4004 38.9 22.8004 44.5C22.0004 48.1 22.0004 51.5 22.8004 54.7C26.8004 50.7 32.0004 48.7 38.4004 48.7C44.6004 48.7 49.8004 50.6 54.0004 54.4C58.2004 58.2 60.3004 63.6 60.3004 70.6C60.3004 77 58.1004 82.3 53.7004 86.5C49.5004 90.5 44.1004 92.5 37.5004 92.5ZM95.7004 92.5C91.1004 92.5 87.1004 91.6 83.7004 89.8C80.5004 87.8 77.8004 85.3 75.6004 82.3C73.4004 79.1 71.8004 75.4 70.8004 71.2C70.0004 67 69.6004 62.9 69.6004 58.9C69.6004 49.1 72.1004 40 77.1004 31.6C82.3004 23.2 90.2004 16.5 100.8 11.5L103.5 16.9C97.7004 19.5 92.6004 23.4 88.2004 28.6C84.0004 33.6 81.6004 38.9 81.0004 44.5C80.2004 48.1 80.2004 51.5 81.0004 54.7C85.0004 50.7 90.2004 48.7 96.6004 48.7C102.8 48.7 108 50.6 112.2 54.4C116.4 58.2 118.5 63.6 118.5 70.6C118.5 77 116.3 82.3 111.9 86.5C107.7 90.5 102.3 92.5 95.7004 92.5Z" fill="white"/>
<path opacity="0.8" fill-rule="evenodd" clip-rule="evenodd" d="M15.0008 80.667L14.9704 80.648C11.6644 78.5817 8.8701 75.9951 6.59399 72.8913L6.58498 72.8791L6.57635 72.8665C4.29917 69.5543 2.65294 65.7381 1.62758 61.4316L1.62231 61.4095L1.61805 61.3871C0.807104 57.1296 0.400391 52.9669 0.400391 48.9C0.400391 38.9204 2.94876 29.6436 8.0411 21.0885L8.04555 21.081L8.05013 21.0736C13.3695 12.4807 21.4321 5.66238 32.1738 0.595543L33.0577 0.178589L36.6613 7.38578L35.7094 7.81249C30.056 10.3468 25.0748 14.1513 20.7646 19.245C16.6724 24.1171 14.3702 29.2348 13.7947 34.6065L13.7887 34.6622L13.7766 34.7169C13.1478 37.5463 13.0364 40.2258 13.4289 42.764C17.4396 39.3753 22.4528 37.7 28.4004 37.7C34.8229 37.7 40.2694 39.6758 44.6713 43.6584C49.1288 47.6914 51.3004 53.3892 51.3004 60.6C51.3004 67.2573 48.9998 72.8239 44.3909 77.2233L44.39 77.2241C39.9781 81.4259 34.3189 83.5 27.5004 83.5C22.769 83.5 18.6023 82.5737 15.0325 80.6838L15.0008 80.667ZM13.6411 43.9045C17.52 40.4348 22.4397 38.7 28.4004 38.7C34.6004 38.7 39.8004 40.6 44.0004 44.4C48.2004 48.2 50.3004 53.6 50.3004 60.6C50.3004 67 48.1004 72.3 43.7004 76.5C39.5004 80.5 34.1004 82.5 27.5004 82.5C22.9004 82.5 18.9004 81.6 15.5004 79.8C12.3004 77.8 9.60039 75.3 7.40039 72.3C5.20039 69.1 3.60039 65.4 2.60039 61.2C1.80039 57 1.40039 52.9 1.40039 48.9C1.40039 39.1 3.90039 30 8.90039 21.6C14.1004 13.2 22.0004 6.49997 32.6004 1.49998L35.3004 6.89998C34.9958 7.0365 34.6932 7.17661 34.3925 7.3203C28.9667 9.91314 24.1693 13.673 20.0004 18.6C15.8004 23.6 13.4004 28.9 12.8004 34.5C12.0955 37.672 12.0117 40.6887 12.549 43.5501C12.6215 43.9362 12.7053 44.3195 12.8004 44.7C13.075 44.4254 13.3552 44.1602 13.6411 43.9045ZM73.2008 80.667L73.1704 80.648C69.8644 78.5817 67.0701 75.9951 64.794 72.8913L64.785 72.8791L64.7764 72.8665C62.4992 69.5543 60.8529 65.7381 59.8276 61.4316L59.8223 61.4095L59.8181 61.3871C59.0071 57.1296 58.6004 52.9669 58.6004 48.9C58.6004 38.9204 61.1488 29.6436 66.2411 21.0885L66.2456 21.081L66.2501 21.0736C71.5695 12.4807 79.6321 5.66238 90.3738 0.595543L91.2577 0.178589L94.8613 7.38578L93.9095 7.81249C88.256 10.3468 83.2748 14.1513 78.9646 19.245C74.8725 24.1171 72.5702 29.2348 71.9947 34.6065L71.9887 34.6622L71.9766 34.7169C71.3478 37.5463 71.2364 40.2258 71.6289 42.764C75.6396 39.3753 80.6528 37.7 86.6004 37.7C93.0229 37.7 98.4694 39.6758 102.871 43.6584C107.329 47.6914 109.5 53.3892 109.5 60.6C109.5 67.2573 107.2 72.8239 102.591 77.2233L102.59 77.2241C98.1781 81.4259 92.5189 83.5 85.7004 83.5C80.9691 83.5 76.8023 82.5737 73.2325 80.6838L73.2008 80.667ZM71.8411 43.9045C75.72 40.4348 80.6397 38.7 86.6004 38.7C92.8004 38.7 98.0004 40.6 102.2 44.4C106.4 48.2 108.5 53.6 108.5 60.6C108.5 67 106.3 72.3 101.9 76.5C97.7004 80.5 92.3004 82.5 85.7004 82.5C81.1004 82.5 77.1004 81.6 73.7004 79.8C70.5004 77.8 67.8004 75.3 65.6004 72.3C63.4004 69.1 61.8004 65.4 60.8004 61.2C60.0004 57 59.6004 52.9 59.6004 48.9C59.6004 39.1 62.1004 30 67.1004 21.6C72.3004 13.2 80.2004 6.49997 90.8004 1.49998L93.5004 6.89998C93.1958 7.03651 92.8932 7.17661 92.5925 7.3203C87.1667 9.91314 82.3694 13.673 78.2004 18.6C74.0004 23.6 71.6004 28.9 71.0004 34.5C70.2955 37.672 70.2117 40.6887 70.749 43.5501C70.8215 43.9362 70.9053 44.3195 71.0004 44.7C71.275 44.4254 71.5552 44.1602 71.8411 43.9045Z" fill="white"/>
</svg>
