<svg width="168" height="267" viewBox="0 0 168 267" fill="none" xmlns="http://www.w3.org/2000/svg">
<g opacity="0.4">
<path d="M154.664 162.294C157.771 169.877 164.859 186.209 172.141 189.417C178.221 192.095 182.628 190.584 191.658 190.584C199.085 190.584 221.953 202.833 218.166 179.501C217.086 172.847 216.566 170.297 214.954 163.752M154.664 162.294C154.858 162.683 159.104 155.806 150.294 131.38C142.721 110.382 123.786 127.005 141.847 143.046C152.48 152.49 164.568 176.001 171.268 170.46C177.967 164.919 173.307 155.878 167.189 149.462C161.072 143.046 172.933 148.823 181.172 136.63C187.871 126.714 167.481 126.422 163.985 136.046C160.49 145.671 178.259 149.462 196.028 149.462C201.271 149.462 212.368 153.253 214.954 163.752M154.664 162.294C154.567 162.003 152.974 158.328 145.051 151.795C135.147 143.629 110.969 143.046 110.969 143.046C110.969 143.046 98.2106 143.746 92.6177 131.38C85.6267 115.923 85.918 107.652 90.87 101.049C94.5883 96.0912 118.252 93.2921 133.108 107.174C147.964 121.055 143.012 121.742 129.03 109.507C115.047 97.272 101.065 77.426 112.135 67.5102C129.031 52.3742 158.451 77.1344 162.82 102.507C167.597 130.247 162.237 135.776 156.12 114.486C147.236 83.5662 155.246 73.9263 170.102 63.1565C171.882 61.8662 173.528 60.8966 175.054 60.1955M214.954 163.752C224.985 166.311 243.683 162.703 249.043 153.837C255.743 142.754 246.13 132.838 237.391 126.714C228.653 120.589 235.061 114.756 229.526 106.882C223.992 99.0076 207.971 101.049 191.658 113.881C175.346 126.714 180.589 127.005 198.649 114.756C216.71 102.507 217.292 85.592 214.379 78.301C213.245 75.4632 210.803 73.7242 207.953 72.4681M207.953 72.4681C202.911 70.2462 196.594 69.5353 193.988 66.9269C191.553 64.4889 188.538 59.9729 183.502 58.9063M207.953 72.4681C212.619 69.1628 218.457 64.8854 216.709 54.9695C215.109 45.8873 205.349 43.5954 198.067 44.762C190.784 45.9286 185.85 48.845 196.901 48.845C207.953 48.845 229.856 50.0979 229.526 36.8876C229.235 25.2219 209.136 16.4726 196.027 28.43C182.919 40.3873 182.045 44.4703 194.862 34.5545C207.679 24.6386 208.844 1.60977 193.115 1.01549C177.676 0.4322 172.141 16.4726 173.015 24.0553C173.889 31.638 176.802 33.6795 176.802 25.2219C176.802 13.953 170.976 4.51521 163.694 6.26507C156.411 8.01493 160.198 12.3896 153.79 12.6812C147.381 12.9729 144.177 9.47314 140.39 16.7642C136.603 24.0553 138.642 34.5545 151.168 38.0542C163.694 41.5539 168.646 36.596 154.955 36.596C141.264 36.596 134.528 39.3563 139.516 47.3472C143.886 54.3467 145.342 50.8865 147.381 52.928C149.42 54.9695 147.672 58.1776 149.712 60.8024C151.751 63.4272 164.276 68.3851 168.063 54.9695C171.85 41.5539 166.898 41.2623 166.898 47.9701C166.898 54.6779 164.859 61.948 167.481 62.5522C169.578 63.0356 173.404 61.1825 175.054 60.1955M175.054 60.1955C178.4 58.6584 181.168 58.412 183.502 58.9063M183.502 58.9063C183.405 57.0107 182.511 52.578 179.715 50.0116C178.695 49.0755 177.7 48.214 176.802 47.3472M176.802 47.3472C174.622 45.2434 173.015 42.2339 173.015 38.9291C173.015 34.2628 181.171 33.6795 181.463 39.2208C181.754 44.762 176.802 47.3472 176.802 47.3472Z" stroke="white" stroke-linecap="round" stroke-linejoin="round"/>
<path d="M99.3177 58.4693C98.4437 53.2197 93.319 51.9607 89.7049 52.0531C84.5359 52.1852 79.8009 54.3863 79.8009 59.0526C79.8009 63.3895 85.9557 63.1355 90.2875 63.1355C95.2396 63.1355 100.026 62.7257 99.3177 58.4693Z" stroke="white" stroke-linecap="round" stroke-linejoin="round"/>
<path d="M43.3886 94.9246C43.1944 97.5494 42.3399 103.849 40.4756 108.049C38.1453 113.298 29.6977 129.922 30.2803 134.88C31.1713 142.462 36.6888 139.838 39.0191 144.212C41.3656 148.617 37.2714 155.003 34.3584 152.67C31.4455 150.337 33.1932 144.212 35.8149 147.42C38.8781 151.169 35.8149 169.294 34.3584 173.668C33.566 176.048 29.1151 182.504 29.1151 185.917C29.1151 189.709 33.4845 193.208 35.8149 191.167C38.1453 189.125 38.7279 184.751 37.2714 184.751C36.1062 184.751 36.6882 198.458 37.2714 199.625C37.8545 200.791 40.0096 202.949 40.4756 204.582C41.3079 207.499 39.8925 211.874 40.4756 213.04C41.0588 214.207 43.8546 216.831 44.5538 219.165C45.4276 222.081 43.3422 225.938 46.0102 229.08C50.9623 234.913 76.0136 231.122 80.9657 222.373C87.0732 211.582 78.0527 210.999 78.0527 214.207C78.0527 216.248 93.8974 224.472 90.8692 235.497C87.6649 247.162 71.0611 254.745 46.0102 265.828C19.2118 277.683 2.89799 284.493 1.44152 298.492C-0.823789 320.265 5.81095 327.073 16.8802 349.238C25.9393 367.377 32.6106 388.707 36.9801 398.817" stroke="white" stroke-linecap="round" stroke-linejoin="round"/>
<path d="M53.2942 221.79C53.7797 220.04 55.8576 215.665 60.2853 212.165C65.8199 207.791 72.5197 206.624 73.3936 203.124C74.2675 199.625 73.9762 194.084 76.3066 187.959C78.6369 181.835 81.8412 177.752 80.9673 171.919C80.0934 166.086 72.2284 159.67 71.9371 152.962C71.7195 147.95 73.616 140.333 75.561 135.463M75.561 135.463C76.2191 133.816 76.8826 132.483 77.4718 131.672C79.8021 128.464 84.1716 118.256 79.8021 117.381C76.3066 116.681 75.5182 129.144 75.561 135.463ZM75.561 156.462C76.1008 153.156 77.7631 147.712 82.4238 141.296C86.6796 135.437 87.5999 123.223 86.2106 117.381C84.7542 111.257 82.4238 108.049 77.7631 108.049C73.1024 108.049 71.3546 114.757 71.3546 118.256C71.3546 121.864 72.5197 125.256 69.6068 125.547C67.8591 125.722 62.907 117.972 62.907 112.132C62.907 99.2995 69.2492 85.3313 73.685 77.7179C75.724 74.2182 80.341 68.4421 86.7933 66.9271C92.473 65.5934 103.236 66.0746 104.854 73.6349C106.601 81.8009 101.649 94.6332 91.7453 98.4246C79.3542 103.168 80.6761 94.6332 71.0633 91.7168C67.151 90.5298 62.3245 78.8845 69.8981 71.3017C74.1244 67.0704 80.0969 65.3318 87.3759 64.3023C94.3669 63.3135 99.9016 67.8273 104.854 65.7605C111.125 63.1432 116.797 59.636 120.875 59.636C124.953 59.636 137.671 60.974 138.352 53.8031C138.935 47.6786 135.44 47.6786 135.44 43.304C135.44 36.7242 135.729 31.9847 132.235 26.3887C129.322 21.7224 125.244 19.3892 119.418 21.7224C113.592 24.0555 99.319 35.7212 99.0277 40.0959C98.7364 44.4705 104.562 45.6371 108.932 36.5962C113.301 27.5552 116.201 9.54376 103.397 7.14021C89.4148 4.51546 84.4627 25.8054 85.0453 36.8879C85.628 47.9703 89.9974 53.8032 91.7452 38.9294C93.5202 23.8233 81.9188 11.2931 73.9762 10.9316C67.5677 10.64 68.4769 13.0196 63.4896 16.7644C58.8288 20.2642 56.4984 19.6809 54.7508 22.5973C50.8601 29.09 58.2464 45.0538 67.8591 49.7201C77.4718 54.3864 83.8804 53.2199 73.685 47.6786C63.4896 42.1374 51.2551 41.8458 48.6335 47.0954C46.0118 52.345 49.5074 53.1386 49.5074 57.8862C49.5074 62.5525 43.899 62.5667 43.3903 68.6769C43.0989 72.1767 46.5944 80.6344 53.2943 81.2176C58.4856 81.6695 61.4506 79.8566 62.3245 79.7594" stroke="white" stroke-linecap="round" stroke-linejoin="round"/>
</g>
</svg>
