<svg width="291" height="258" fill="none" xmlns="http://www.w3.org/2000/svg"><g opacity=".85" fill="#868C96"><path d="M300.661 18.977c-7.654 0-15.299.054-22.943.144-6.785.09-13.56.313-20.344.367-10.011.09-20.031.206-30.041 0a29.444 29.444 0 0 0-13.99 3.191 38.628 38.628 0 0 0-15.003 12.55 30.343 30.343 0 0 0-5.377 14.926c-.446 4.76.138 9.56 1.712 14.073A24.583 24.583 0 0 0 198.842 72c.609.718 1.255 1.399 1.873 2.09-.143.474-.466.447-.753.259a15.96 15.96 0 0 1-2.518-1.712c-1.255-1.192-2.348-2.546-3.585-3.81-.896-.968-1.882-1.9-2.823-2.86a16.973 16.973 0 0 1-1.703-1.792 25.548 25.548 0 0 1-5.126-18.897 21.807 21.807 0 0 1 5.019-11.277 37.093 37.093 0 0 1 9.768-8.14 57.116 57.116 0 0 1 12.431-5.378l.896-.296c.13-.075.253-.162.368-.26h-1.856a65.351 65.351 0 0 0-29.781 9.422c-4.248 2.555-8.657 4.858-13.031 7.171a56.649 56.649 0 0 1-17.978 5.8c-5.449.896-10.933 1.416-16.391 2.214-7.08 1.04-14.16 2.178-21.231 3.29a8.052 8.052 0 0 0-2.196.7c.255.113.518.206.788.277 4.159.896 7.251 3.344 9.859 6.562a5.975 5.975 0 0 1 1.201 3.774c0 2.008-.048 4.016-.144 6.024a37.789 37.789 0 0 0 .269 7.171 12.9 12.9 0 0 1-.125 5.379 7.07 7.07 0 0 1-1.793 3.272 3.826 3.826 0 0 1-2.942 1.32 3.84 3.84 0 0 1-2.91-1.392 28.29 28.29 0 0 1-2.42-3.335c-.842-1.237-1.64-2.5-2.464-3.756a1.112 1.112 0 0 0-.628-.466c.171.968.323 1.945.502 2.913A32.451 32.451 0 0 1 108.19 93.3c-.959 2.788-1.559 5.693-2.41 8.525a43.742 43.742 0 0 1-1.667 4.482 5.555 5.555 0 0 1-2.689 2.743 3.776 3.776 0 0 1-4.481-.421 10.577 10.577 0 0 1-1.9-2.241 18.138 18.138 0 0 1-2.635-12.2c.296-2.33.896-4.626 1.398-6.93.12-.428.165-.874.135-1.317a47.98 47.98 0 0 0-.744 1.111 44.701 44.701 0 0 1-9.294 10.632 17.988 17.988 0 0 1-7.59 3.917 14.953 14.953 0 0 1-5.853-.08 21.725 21.725 0 0 0-3.764-.162c-1.793 0-3.585.242-5.297.108a7.17 7.17 0 0 1-6.542-6.786 13.45 13.45 0 0 1 .726-5.46c.116-.322.197-.663.331-1.12-.896.09-1.577.188-2.312.251a25.678 25.678 0 0 1-10.405-.896 9.984 9.984 0 0 1-6.775-6.571 381.434 381.434 0 0 1-3.71-12.084 16.71 16.71 0 0 1-.53-3.845c-.205-5.002 2.035-8.821 5.97-11.654a48.315 48.315 0 0 1 4.48-2.608 20.773 20.773 0 0 0-.896-.655 7.969 7.969 0 0 1-2.482-2.69 4.762 4.762 0 0 1-.34-4.535 18.651 18.651 0 0 0 1.657-5.262c.176-.9.653-1.712 1.354-2.304a11.901 11.901 0 0 1 3.97-2.51 24.97 24.97 0 0 1 8.12-1.945 75.048 75.048 0 0 1 9.096-.108 46.988 46.988 0 0 1 12.753 2.824 39.517 39.517 0 0 1 11.104 5.997c.278.224.565.421 1.093.807a4.55 4.55 0 0 0-.367-.654 27.492 27.492 0 0 1-5.055-7.665 8.23 8.23 0 0 0-5.189-4.661 484.536 484.536 0 0 1-6.972-2.25 21.861 21.861 0 0 1-5.1-2.438 4.213 4.213 0 0 1 0-7.172 8.064 8.064 0 0 1 2.69-1.192c4.026-.85 8.2-.692 12.152.457a34 34 0 0 1 17.028 10.085 27.377 27.377 0 0 1 6.712 14.486 24.77 24.77 0 0 1-.52 9.762c0 .188-.071.377-.098.574 0 0 0 .063.054.098.053.036.161.072.206 0a39.6 39.6 0 0 1 11.651-3.307c6.219-1.013 12.448-1.919 18.686-2.797 3.934-.556 7.895-.968 11.829-1.488a78.659 78.659 0 0 0 14.851-3.3 14.71 14.71 0 0 0 1.102-.42c.108 0 .188-.126.251-.323-1.049.161-2.106.34-3.164.493a35.45 35.45 0 0 1-8.496.08 79.163 79.163 0 0 1-16.06-3.8c-7.17-2.322-11.543-7.566-13.864-14.576a21.634 21.634 0 0 1-1.155-9.605 21.634 21.634 0 0 1 3.144-9.148c.215-.35.484-.673.726-1.004l.206.107a3.32 3.32 0 0 1-.098.619 12.881 12.881 0 0 0-.161 9.359c3.853 11.519 11.65 18.824 23.588 21.325a64.515 64.515 0 0 0 18.946.897 33.527 33.527 0 0 0 7.546-1.417c1.792-.591 3.585-1.13 5.377-1.792a16.264 16.264 0 0 0 2.563-1.21 76.2 76.2 0 0 1 12.941-6.024 64.437 64.437 0 0 1 13.946-2.968c5.218-.5 10.459-.727 15.701-.68h35.723c5.592 0 11.194-.315 16.786-.377 7.017-.081 14.035-.054 21.052-.072h3.433l.009.663zM98.655 57.523a6.442 6.442 0 0 0-3.164-.161 60.535 60.535 0 0 0-13.56 4.401 51.136 51.136 0 0 0-13.344 8.409 25.834 25.834 0 0 0-6.525 8.319 73.242 73.242 0 0 1-4.239 7.772 13.834 13.834 0 0 0-2.303 8.166 6.563 6.563 0 0 0 4.893 6.275c1.108.256 2.244.364 3.38.322 1.173 0 2.347-.277 3.521-.295a18.859 18.859 0 0 1 3.639.224c1.66.345 3.37.363 5.037.054a18.052 18.052 0 0 0 8.128-4.375 45.513 45.513 0 0 0 13.829-21.873 35.184 35.184 0 0 0 1.183-14.835c-.117-.843-.332-1.596-.475-2.367v-.036zm-.063-.833c.018-.191.018-.383 0-.574-.17-.6-.34-1.21-.556-1.793a27.672 27.672 0 0 0-6.533-10.004c-8.066-8.13-17.924-12.075-29.109-13.052a39.232 39.232 0 0 0-10.136.457 23.533 23.533 0 0 0-7.806 2.564c-1.891 1.085-3.379 2.474-3.415 4.877a.68.68 0 0 1-.053.224 30.245 30.245 0 0 1-1.103 2.976c-1.147 2.366-.896 4.24 1.497 6.427a9.337 9.337 0 0 0 2.465 1.605c1.675.77 3.432 1.38 5.135 2.097a37.047 37.047 0 0 1 3.728 1.73 25.485 25.485 0 0 0 5.924 2.582 101.338 101.338 0 0 0 13.676 2.6c2.659.318 5.335.462 8.012.43a30.904 30.904 0 0 0 9.25-1.65c2.885-.932 5.807-1.81 9.024-1.46v-.036zM82.828 60.57l-.045-.18a8.067 8.067 0 0 0-1.138 0 33.29 33.29 0 0 1-7.788-.107 99.991 99.991 0 0 1-12.798-2.115 27.43 27.43 0 0 1-9.482-3.792 8.27 8.27 0 0 0-1.703-.816c-1.793-.681-3.522-1.345-5.306-1.972a1.792 1.792 0 0 0-1.12-.108 17.08 17.08 0 0 0-7.412 4.895 3.703 3.703 0 0 0-.815 2.286 7.45 7.45 0 0 0 1.371 4.312c.816 1.353 1.712 2.689 2.545 3.989a11.485 11.485 0 0 1 1.398 8.067 53.667 53.667 0 0 0-.788 5.836 6.276 6.276 0 0 0 4.48 6.096c1.524.389 3.077.652 4.643.788 2.567.192 5.148.011 7.663-.537 1.425-2.582 3.011-5.128 4.275-7.826a30.164 30.164 0 0 1 7.68-10.067A53.216 53.216 0 0 1 81.69 61.11c.35-.17.717-.359 1.139-.538zm20.523-19.918c.024-.394.024-.79 0-1.184a27.282 27.282 0 0 0-5.745-13.16c-4.597-5.638-10.629-9.035-17.566-10.89a24.668 24.668 0 0 0-11.65-.503 6.514 6.514 0 0 0-2.86 1.336c-1.935 1.64-1.935 4.195.162 5.62a23.612 23.612 0 0 0 4.374 2.296c1.622.68 3.342 1.138 5.027 1.676a31.951 31.951 0 0 1 6.077 2.555 30.411 30.411 0 0 0 9.59 3.164 18.382 18.382 0 0 1 10.754 6.445c.573.762 1.111 1.64 1.837 2.645zm12.547 15.911A12.57 12.57 0 0 0 115.27 54a8.344 8.344 0 0 0-5.556-4.634 3.376 3.376 0 0 0-1.156-.135c-3.361.251-7.851 2.492-9.133 7.082a3.443 3.443 0 0 0 .897 3.657 32.793 32.793 0 0 1 6.82 9.135c.452.932.97 1.831 1.55 2.69a259.274 259.274 0 0 0 4.105 6.059c.511.794 1.064 1.56 1.658 2.295.411.475.906.87 1.461 1.165a2.257 2.257 0 0 0 2.751-.242c1.506-1.47 2.276-3.218 1.47-5.378-.292-.814-.655-1.6-1.085-2.349-.6-1.013-1.281-1.981-1.98-2.931a11.65 11.65 0 0 1-1.981-9.86c.305-1.274.511-2.592.771-4.017l.036.027zm-15.962 3.908c.045 1.013.18 2.026.135 3.03a60.172 60.172 0 0 1-.511 7.638 52.741 52.741 0 0 1-1.99 6.911c-.896 2.923-1.971 5.818-2.84 8.758a35.277 35.277 0 0 0-1.686 8.785c-.107 1.803.031 3.613.413 5.379a15.071 15.071 0 0 0 2.93 6.275c1.891 2.223 4.105 2.241 6.059.08a4.321 4.321 0 0 0 .896-1.631 15.62 15.62 0 0 0 .538-3.003 17.684 17.684 0 0 0-1.246-7.512 46.514 46.514 0 0 1-1.452-4.733 26.76 26.76 0 0 1-.09-13.33c.628-2.394 1.461-4.733 2.115-7.171a7.533 7.533 0 0 0 .359-3.003 10.431 10.431 0 0 0-3.666-6.472h.036zm-.78-5.226a14.278 14.278 0 0 1 2.958-4.114c.309-.406.526-.874.636-1.372.614-1.96.837-4.022.655-6.069a7.674 7.674 0 0 0-1.569-4.267c-2.751-3.433-6.031-6.06-10.459-7.045-3.02-.673-6.103-1.21-8.899-2.69-.045 0-.134.054-.242.099.272.431.52.877.744 1.336 2.267 5.244 6.193 9.296 9.858 13.5a30.183 30.183 0 0 1 5.862 9.484c.062.34.26.636.42 1.138h.036zM121.66 4.733a20.485 20.485 0 0 0-1.774 6.983 24.855 24.855 0 0 0 3.164 12.801 7.92 7.92 0 0 0 2.778 3.003 31.278 31.278 0 0 0 2.886 1.623c2.235 1 4.582 1.73 6.99 2.178 3.294.57 6.517 1.49 9.616 2.743a35.896 35.896 0 0 0 12.35 3.352c1.801.235 3.631.098 5.377-.403a70.611 70.611 0 0 0 9.402-4.079c.31-.175.609-.37.896-.582-.188-.072-.269-.126-.332-.108-.062.018-.385.09-.573.144a40.122 40.122 0 0 1-10.369 1.479 90.234 90.234 0 0 1-11.436-.466 34.044 34.044 0 0 1-11.794-3.165 30.707 30.707 0 0 1-16.58-20.313 34.713 34.713 0 0 1-.636-5.19h.035zm75.417 66.506.152-.135c-.511-.96-1.049-1.91-1.542-2.877a92.527 92.527 0 0 1-4.015-9.7 27.705 27.705 0 0 1-1.711-12.98 21.741 21.741 0 0 1 4.741-11.519 36.35 36.35 0 0 1 12.063-9.52 60.182 60.182 0 0 1 9.858-4.24 4.696 4.696 0 0 0-2.635.26 54.552 54.552 0 0 0-16.275 7.09 34.777 34.777 0 0 0-7.869 6.93 20.715 20.715 0 0 0-4.311 8.068 24.227 24.227 0 0 0 0 11.815 22.63 22.63 0 0 0 5.378 10.237c1.792 1.855 3.584 3.64 5.233 5.602.251.35.583.61.897.969h.036zm-92.74 31.912h.134c.117-.368.242-.726.35-1.094 1.039-3.63 2.124-7.243 3.083-10.9.534-1.89.906-3.82 1.111-5.773.31-3.42.083-6.869-.672-10.22a26.007 26.007 0 0 0-3.406-8.623 7.243 7.243 0 0 0-.708-.896c.205 1.503.08 3.032-.367 4.482a379.84 379.84 0 0 0-1.847 5.979 25.105 25.105 0 0 0-.985 9.807 38.689 38.689 0 0 0 2.303 9.618 14.813 14.813 0 0 1 .959 7.064c-.004.187.011.373.045.556zm9.096-52.889-.188.197c.251.233.511.458.762.7a6.621 6.621 0 0 1 2.348 5.665 34.628 34.628 0 0 1-.627 3.828 10.514 10.514 0 0 0 .206 6.158 17.684 17.684 0 0 0 2.186 3.882c1.416 2.026 2.77 4.052 3.065 6.723.494-1.426.6-2.958.305-4.438a44.337 44.337 0 0 1-.269-9.304c.081-1.453.144-2.905.108-4.357a5.783 5.783 0 0 0-.968-3.361 17.927 17.927 0 0 0-6.928-5.693zm-78.956 8.516c-.215.26-.278.314-.314.377-.035.063-.143.278-.215.421a11.656 11.656 0 0 0-.735 7.521 101.578 101.578 0 0 0 4.257 14.244 8.211 8.211 0 0 0 2.259 3.281c.228.177.468.338.717.484a4.82 4.82 0 0 0-.565-1.345 6.366 6.366 0 0 1-.797-4.096c.16-1.21.331-2.42.591-3.586a11.835 11.835 0 0 0-1.918-9.995c-.439-.6-.824-1.246-1.237-1.874a10.4 10.4 0 0 1-2.043-5.405v-.027zm173.641-33.992c-.144-.054-.224-.117-.287-.099a2.22 2.22 0 0 0-.43.162 35.91 35.91 0 0 0-12.35 9.726 21.859 21.859 0 0 0-4.678 12.998 29.04 29.04 0 0 0 1.667 10.425c.102.252.218.498.349.735-1.962-14.683 3.863-25.7 15.729-33.947zm-81.941 3.881c.052.13.118.254.198.368.098.125.206.233.313.35a17.713 17.713 0 0 0 7.663 4.75c3.145.978 6.372 1.785 9.553 2.68a40.135 40.135 0 0 0 12.036 1.4l1.192-.072v-.278c-.896-.09-1.792-.162-2.688-.287a34.05 34.05 0 0 1-8.55-2.555 39.534 39.534 0 0 0-7.519-2.42c-4.159-.897-8.281-1.856-12.198-3.936z"/><path d="M219.231 19.91c-.511.152-1.022.313-1.542.457a61.63 61.63 0 0 0-15.576 6.328 31.562 31.562 0 0 0-11.418 11.062 22.74 22.74 0 0 0-3.092 13.823 31.588 31.588 0 0 0 4.383 13.097c.896 1.595 1.972 3.128 2.966 4.688.24.325.408.698.493 1.094-.107-.063-.251-.1-.313-.189-3.8-4.93-6.668-10.344-7.699-16.52-1.488-8.965 1.246-16.477 7.869-22.608a43.771 43.771 0 0 1 14.931-8.857c2.581-.95 5.243-1.658 7.869-2.456a5.7 5.7 0 0 1 1.039-.153l.09.234zM122.485 2.519c-.072.25-.126.502-.206.753-2.402 6.759-1.237 12.998 2.841 18.762a30.866 30.866 0 0 0 10.916 9.206l.833.44a.772.772 0 0 1 .134.16 6.938 6.938 0 0 1-3.253-1.218 29.324 29.324 0 0 1-10.485-10.488 19.895 19.895 0 0 1-2.582-12.138 16.127 16.127 0 0 1 1.381-5.092 3.45 3.45 0 0 1 .286-.448l.135.063zM148.349 35.417c1.631.198 3.263.458 4.894.565 1.614.094 3.233.094 4.848 0a43.136 43.136 0 0 0 4.92-.502 42.461 42.461 0 0 0 4.813-1.111 44.732 44.732 0 0 0 4.544-1.596c1.496-.618 2.921-1.39 4.382-2.089l.135.242c-.305.207-.601.44-.896.628a38.091 38.091 0 0 1-11.355 4.15c-4.11.732-8.293.964-12.458.69a21.684 21.684 0 0 1-3.02-.439 4.477 4.477 0 0 1-.896-.385l.089-.153zM67.422 37.192c2.527.736 5.064 1.426 7.573 2.215a72.073 72.073 0 0 1 14.59 6.275 29.099 29.099 0 0 1 6.838 5.199c.475.51.897 1.093 1.3 1.64l-.189.162c-.412-.467-.806-.95-1.236-1.399a33.368 33.368 0 0 0-7.573-5.602 88.288 88.288 0 0 0-17.172-7.172 85.088 85.088 0 0 1-4.104-1.398l-.027.08zM99.12 70.369a23.894 23.894 0 0 1-2.464 6.947A47.931 47.931 0 0 1 85.247 91.74c-.185.13-.387.236-.6.313 1.792-1.837 3.585-3.585 5.288-5.53a42.134 42.134 0 0 0 8.782-15.32c.11-.291.242-.573.395-.843l.009.009zM53.719 43.79a134.533 134.533 0 0 1 26.752 5.818c.307.106.607.235.896.385l-4.642-1.273a163.278 163.278 0 0 0-19.52-4.267c-1.156-.17-2.294-.43-3.432-.654l-.054-.009zM77.316 69.84a4.798 4.798 0 0 1-.708.583 81.401 81.401 0 0 0-16.535 12.666c-.379.326-.78.626-1.2.897a67.219 67.219 0 0 1 17.923-13.967c.177-.079.36-.142.547-.188l-.027.009zM69.08 55.408c2.402.376 4.795.77 7.17 1.12a71.273 71.273 0 0 0 14.554.897c.896 0 1.793 0 2.689.044-.77.124-1.544.208-2.322.251-2.437 0-4.884.108-7.313 0a66.478 66.478 0 0 1-6.667-.726c-2.6-.385-5.172-.896-7.762-1.398a1.859 1.859 0 0 1-.403-.197l.054.009zM76.913 60.194c-3.397.314-6.803.52-10.181.969-3.379.448-6.641 1.147-9.94 1.73 3.63-1.434 16.124-3.191 20.12-2.699zM54.83 40.644c-4.74-.287-9.5-.726-14.277-.117 0-.108-.044-.224-.071-.332.36-.153.735-.264 1.12-.331a31.285 31.285 0 0 1 3.988-.224c3.107.009 6.204.345 9.24 1.004zM97.463 38.376a23.798 23.798 0 0 1 2.536 11.492 11.387 11.387 0 0 1-1.496 5.513c.071-.34.134-.681.233-1.004.58-1.88.881-3.833.896-5.8a28.235 28.235 0 0 0-1.793-8.848c-.143-.439-.25-.896-.376-1.353zM58.496 72.987c.423-.271.86-.52 1.308-.745 3.988-1.846 8.003-3.657 11.982-5.53 1.12-.53 2.16-1.229 3.325-1.749a7.55 7.55 0 0 1-.645.556 44.473 44.473 0 0 1-8.137 4.25c-2.6 1.11-5.234 2.133-7.86 3.2l.027.018zM76.886 94.016c-.426.46-.875.896-1.345 1.31a46.39 46.39 0 0 1-7.33 5.163 2.807 2.807 0 0 1-2.035.546c.135-.161.188-.286.278-.331 3.414-1.533 6.273-3.846 9.303-6.024.349-.26.716-.484 1.075-.726l.054.062zM99.694 65.089c1.192 3.057 1.945 12.837 1.139 14.63a94.21 94.21 0 0 0-1.139-14.63zM86.789 74.815c-.224.215-.421.457-.654.646L72.969 85.823c-.19.13-.39.245-.6.34.183-.249.384-.486.6-.707a159.228 159.228 0 0 1 13.094-10.291 6.87 6.87 0 0 1 .726-.368v.018zM111.103 62.086c-3.647-1.29-7.286-2.59-11.247-2.51v-.287a15.223 15.223 0 0 1 1.792 0 28.824 28.824 0 0 1 9.025 2.52c.136.077.259.173.367.286l.063-.009zM57.913 70.073c-1.344.502-2.689 1.058-4.05 1.488a89.503 89.503 0 0 1-5.306 1.497 27.194 27.194 0 0 1-3.818.655c1.505-.35 3.038-.655 4.48-1.076 2.376-.663 4.724-1.416 7.09-2.125.52-.152 1.048-.278 1.577-.421l.027-.018zM46.98 58.697l-4.078 1.094-6.812 1.874c.96-.816 6.82-2.439 10.907-2.95l-.018-.018zM52.195 82.103a2.912 2.912 0 0 1-.555.403 33.744 33.744 0 0 1-8.523 2.224c-.663.08-1.33.118-1.999.116a48.729 48.729 0 0 0 11.095-2.69l-.018-.053zM99.551 57.98a15 15 0 0 1 7.304-.726c.819.085 1.629.24 2.42.466l-2.599-.233a18.919 18.919 0 0 0-6.542.457c-.194.023-.39.023-.583 0v.036z"/><path d="M98.063 44.884c.197.744.457 1.479.583 2.24.39 1.884.424 3.824.098 5.72a2.825 2.825 0 0 1-.286.762 25.852 25.852 0 0 0-.377-8.75l-.018.028zM70.38 59.29l-8.873.806v-.17l8.837-.798.035.161zM100.913 85.841a36.649 36.649 0 0 1-.788 6.894c.188-2.304.367-4.608.555-6.92l.233.026zM82.299 75.29c-.493.44-.959.897-1.47 1.309-1.21.995-2.438 1.963-3.665 2.931-.253.17-.516.323-.789.457 1.96-1.577 3.928-3.149 5.906-4.715l.018.018zM58.63 89.499c.314-.395.591-.825.896-1.184.986-1.013 1.99-2.017 3.002-2.994a8.73 8.73 0 0 1 1.04-.744c-1.362 1.38-2.689 2.779-4.096 4.16-.269.269-.573.51-.896.77l.054-.008zM95.563 43.315c-1.195-2.038-2.39-4.073-3.585-6.105.14.064.268.152.376.26a21.513 21.513 0 0 1 3.19 5.854l.019-.009zM67.1 98.203c-.081.125-.135.296-.243.367a34.311 34.311 0 0 1-4.723 2.734l-.116-.206 5.108-2.877-.027-.018zM115.172 55.22h-5.601c3.208-.601 4.122-.574 5.601 0zM69.044 48.559l-6.103-1.049c2.066.086 4.113.445 6.085 1.067l.018-.018zM55.287 93.46l3.36-3.961-3.36 3.935v.027zM110.682 66.783l3.307 3.586-3.307-3.586zM50.42 84.326l4.679-1.918a13.439 13.439 0 0 1-4.705 1.9l.027.018zM99.569 78.526l.26-3.648h.143c-.09 1.237-.188 2.474-.278 3.702l-.125-.054zM72.36 86.164l-2.599 2.366 2.599-2.357v-.01zM66.696 91.354l2.617-2.304-2.617 2.268v.036zM82.308 75.3l2.85-2.098-2.832 2.115-.018-.018zM57.93 70.091l3.29-1.201-3.28 1.21-.01-.009zM109.992 66.04l-1.667-1.363 1.667 1.353v.01zM88.43 73.623l-1.64 1.192 1.648-1.183-.009-.01zM55.574 82.157l1.64-.941-1.631.959-.009-.018zM115.432 71.956l-1.183-1.399c.394.466.788.897 1.174 1.407l.009-.008zM78.93 68.854l-1.614.986 1.622-.977-.009-.009zM76.832 93.954l1.434-1.112-1.362 1.192-.072-.08zM82.568 65.134l1.604-.735-1.595.735h-.01zM71.858 49.285l-1.792-.52 1.792.511v.01zM99.48 79.844v1.12h-.055v-1.12h.054zM53.746 43.772h-1.65v-.134l1.614.152.036-.018zM80.444 66.057l1.613-.69-1.613.69zM115.405 71.983l.896 1.174-.896-1.183v.008zM91.037 36.01l-.896-1.193.896 1.192zM83.007 93.479l.977-.619-.968.619h-.009zM91.297 36.26l.681.968-.672-.968h-.01zM84.172 64.399l1.165-.493-1.174.484.01.009zM87.183 63.162l-1.066.547 1.066-.565v.018zM89.926 72.727l.896-.771-.896.77zM96.047 44.48l-.484-1.165.484 1.165zM89.37 34.127l-.34-.404.09-.053.214.484.036-.027zM46.98 58.715l.671-.17v.099l-.708.053.036.018zM67.906 55.175l1.174.233-1.156-.242-.018.009zM76.34 50.468l-.843-.287.842.287zM75.237 80.956l.69-.395-.681.413-.01-.018zM57.877 80.74l-.681.503.681-.494v-.008zM91.467 71.472l-.717.457.717-.457zM91.494 71.498l.717-.457-.717.457zM74.699 49.975l-.825-.295.825.304v-.009zM107.151 63.709l.699.403-.699-.394v-.01zM92.211 71.041l.726-.457c-.251.144-.502.287-.744.44l.018.017zM73.866 49.68l-.968-.225.968.216v.009zM66.48 36.96l.897.232-.941-.233h.045zM71.831 49.303l1.049.18-1.049-.171v-.009zM99.139 70.387v-.538h.098c-.044.17-.098.332-.143.502l.045.036zM70.03 48.765l-.986-.206.986.215v-.009zM98.117 44.821c0-.161-.08-.323-.125-.484h.107v.547l.018-.063zM67 54.888l.897.287-.896-.251v-.036zM48.933 58.366l-.045.018-.044-.018h.09zM58.576 80.23l-.699.466.708-.475-.009.008zM56.004 40.85h.09l-.018.027-.072-.027z"/><path d="M59.293 79.763c-.233.162-.475.314-.717.466l.726-.457-.009-.009zM59.329 79.79l.726-.43-.735.43h.009zM117.332 74.367l.394.708-.394-.708zM98.727 85.93l.026.037-.017.053-.01-.09zM77.298 50.693l-.959-.225.96.216v.009zM117.054 74.107l-.385-.735.376.726.009.009zM89.146 73.157l-.717.466.717-.466zM89.899 72.673l-.753.457.762-.448-.01-.01zM85.373 72.897l.708-.404-.717.404h.009zM62.627 68.424l-.636.26.636-.26zM99.425 68.782l.036-.045v.09l-.035-.045zM63.192 68.19l.61-.286-.61.25v.037zM52.912 81.906l-.717.197.726-.206-.009.009zM61.22 68.89l.789-.18-.798.18h.01zM57.734 73.184l.735-.197-.735.197zM96.45 46.049v-.072c.108.162.072.099 0 0v.072zM86.117 63.709l-.798.179.798-.17v-.01zM96.2 45.34c.08.234.16.467.25.71l-.242-.71H96.2zM87.91 62.938l-.727.224.735-.206-.009-.018zM55.726 63.117l-.08.009.018-.045.062.036z"/><path d="m88.635 62.722-.726.216.717-.224.01.008z"/><path d="m89.352 62.498-.717.224.726-.224h-.009zM89.38 62.516l.698-.242-.699.242zM90.078 62.274l.69-.25-.69.25zM74.672 50.002l.798.206-.798-.206zM82.04 50.208l-.7-.242.7.242zM82.021 50.262l.7.242-.709-.25.01.008zM82.72 50.477l.7.242-.709-.233.01-.009zM96.029 44.507l.17.834-.161-.834h-.01zM84.145 50.934l-.69-.241.7.233-.01.008zM90.768 62.023l.144-.045h-.17l.026.045zM110.341 57.918l-.071-.018.063-.027.008.045zM55.099 82.39l.475-.233-.466.233h-.01zM106.452 63.215l.421.225-.421-.18v-.044zM86.34 72.189l.44-.162-.448.162h.009zM53.36 81.637l-.448.242.448-.278v.036z"/><path d="m53.387 81.637.099.045v-.072l-.161.045.062-.018zM60.324 79.055l.421-.18-.43.171.009.01zM62.645 68.45l.547-.242-.547.234v.009zM80.022 68.495l.395-.242-.395.251v-.009zM82.55 65.107l-.52.233.51-.233h.01zM63.801 67.922h.153v-.081l-.144.063-.009.018zM80.417 66.03l-.457.251.457-.25zM82.281 94.25l-.448.16.457-.16h-.009zM78.956 68.88l.493-.205-.493.197v.009z"/><path d="m79.449 68.675.574-.18-.574.189v-.01zM79.449 66.505l.538-.197-.502.206-.036-.009zM67.897 97.772l.448-.197-.475.18.027.017zM67.592 98.05l-.528.153.528-.144v-.009zM89.872 34.629l.251.215-.26-.206.009-.01z"/><path d="m89.621 34.413.251.216-.25-.224v.008zM81.636 94.689l.215-.251-.215.25zM63.622 84.577l.233-.233-.233.242v-.009zM81.358 94.93l.278-.241-.251.26-.027-.018zM64.052 84.066l-.224.251.224-.25zM58.872 83.986l-.269.313.269-.305v-.008zM64.285 83.833l-.233.233.224-.242.009.01zM64.518 83.591l-.233.242.233-.242z"/><path d="m81.367 94.922-.063.045h.054l.009-.045zM64.805 83.35l-.287.241.26-.269.027.027zM67.655 98.077l.242-.323-.251.323h.009zM65.235 92.815c-.055.07-.115.136-.18.198l.18-.189v-.009zM64.84 93.29l.243-.224-.242.233v-.009zM84.181 92.582l-.224.242.224-.25v.008zM64.608 93.505l.233-.242-.233.242zM78.472 92.582l-.224.242.224-.25v.008zM65.477 92.582l-.242.233.242-.242v.01zM84.405 92.331l-.224.251.224-.26v.01zM55.278 93.425l.018.072-.018-.045v-.027zM64.321 93.748l.287-.243-.251.243h-.036z"/><path d="m78.49 92.591.26-.25-.296.241.036.01zM65.504 92.61c.072-.082.152-.162.224-.252l-.224.242v.01zM82.99 93.443l-.207.269c.072-.09.143-.17.206-.26v-.01zM64.33 93.73l-.063.062.054-.044.009-.018zM84.432 92.394l.242-.269-.242.278v-.01zM78.75 92.34h.08v-.072l-.062.063-.018.01zM65.934 92.09l-.233.25.233-.242v-.009zM66.158 91.847l-.224.242.224-.242zM82.595 93.99c.073-.08.142-.164.206-.251l-.215.26.009-.01zM66.391 91.605l-.233.242.233-.242zM66.418 91.632l.27-.278-.27.287v-.009zM89.639 34.387l-.269-.278.287.278h-.018zM69.304 89.05l.233-.25-.233.241v.01zM69.537 88.808l.242-.25-.242.25z"/><path d="m82.308 94.276.287-.286-.287.278v.008zM86.081 72.493c.09-.098.18-.197.26-.304l-.251.304h-.009zM106.479 63.233l-.072-.053h.045l.027.053zM86.78 72.027l.251-.287-.278.251.027.036zM107.178 63.709c-.09-.108-.188-.207-.278-.305l.278.296v.008zM108.083 64.38l-.206-.268.206.26v.009zM113.989 70.333l.242.242-.242-.242zM108.325 64.677l-.242-.296.251.305-.009-.01zM92.937 70.575l.045-.045-.063.045h.018zM109.974 66.057l.233.251-.233-.25zM110.458 66.523l-.233-.233c.082.073.16.151.233.233zM80.641 67.904l-.25.314.241-.323.01.009zM110.44 66.541l.242.242-.242-.242zM74.941 81.234l-.054.035.072-.018-.018-.017zM74.959 81.26c.09-.107.188-.206.278-.304l-.278.295v.01zM76.124 80.265l-.224.26.224-.269v.01zM99.551 57.944l-.018.072.018-.045v-.026zM76.375 79.987l-.251.278c.08-.09.161-.188.25-.278zM60.297 79.028l-.269.305.269-.305zM61.023 78.616l-.296.242.26-.269.036.027zM118.506 76.016l.036.036-.036-.036zM91.01 36.036l.287.224-.287-.233v.009zM117.726 75.075l.314.251-.314-.25zM117.359 74.34l-.305-.233.314.242-.009-.009zM116.669 73.372l-.296-.233.296.242v-.01zM85.346 72.87l-.215.305.215-.305zM156.317 180.243l-1.031 2.815c-1.487 4.061-2.921 8.148-4.481 12.191a35.295 35.295 0 0 1-4.23 7.772 26.128 26.128 0 0 1-10.548 9.054 6.865 6.865 0 0 1-3.424.762c-2.76-.26-4.104-2.152-3.862-5.19.116-1.56.394-3.12.654-4.671a13.703 13.703 0 0 0-.412-5.262 361.084 361.084 0 0 1-1.793-8.668 30.194 30.194 0 0 1-.17-8.14c.3-4.17 1.227-8.271 2.751-12.164a31.668 31.668 0 0 1 3.522-6.678c.162-.215.287-.457.565-.897-.52.18-.842.269-1.138.404a61.046 61.046 0 0 1-16.732 4.733c-4.347.681-8.658 1.613-12.978 2.474-1.923.431-3.89.626-5.86.583a4.847 4.847 0 0 1-4.777-3.763 4.85 4.85 0 0 1 0-2.172 10.812 10.812 0 0 1 2.59-5.217 39.72 39.72 0 0 1 11.471-9.197l1.219-.717c-.153-.126-.206-.207-.251-.198-2.904.207-5.826.323-8.711.682a33.944 33.944 0 0 0-4.67 1.255 26.042 26.042 0 0 1-7.635 1.344c-2.895-.062-4.481-2.268-3.469-5.002a9.215 9.215 0 0 1 2.259-3.433 26.397 26.397 0 0 1 3.011-2.689 56.333 56.333 0 0 1 13.658-7.172 28.115 28.115 0 0 1 12.727-1.165c5.009.511 9.992 1.282 15.02 1.658a47.725 47.725 0 0 0 20.066-2.886c.896-.305 1.631-.789 2.465-1.147a21.076 21.076 0 0 1 7.035-1.865 6.954 6.954 0 0 1 2.115.117 6.132 6.132 0 0 0 6.032-1.847 23.872 23.872 0 0 0 2.76-3.38c2.151-3.065 4.23-6.185 6.345-9.269.529-.77.556-.753 1.542-.896l-.664 1.004c-2.428 3.586-4.83 7.118-7.295 10.632a8.172 8.172 0 0 0-.968 7.655c.245.747.544 1.475.896 2.178a16.083 16.083 0 0 1 1.372 9.341 36.291 36.291 0 0 1-1.103 5.432c-.69 2.537-.493 5.074-.349 7.629.403 7.09 3.074 13.554 5.458 20.098 2.384 6.543 4.929 13.042 7.349 19.577a25.903 25.903 0 0 1 1.792 7.432 8.156 8.156 0 0 1-.081 1.873 1.57 1.57 0 0 1-.896 1.385 1.563 1.563 0 0 1-1.64-.184 6.066 6.066 0 0 1-1.425-1.039 26.767 26.767 0 0 1-2.294-2.537 16.095 16.095 0 0 0-4.347-3.963c-2.375-1.47-4.759-2.94-7.098-4.482a23.476 23.476 0 0 1-9.957-13.356 3.667 3.667 0 0 0-.17-.44 5.011 5.011 0 0 0-.215-.394zm14.465-40.195c-.161-.897-.386-2.448-.798-3.998a5.92 5.92 0 0 0-2.151-3.317c-1.29-.977-2.778-1.452-3.746.896-.07.184-.157.361-.26.529a58.677 58.677 0 0 1-3.387 5.379 77.087 77.087 0 0 1-24.055 20.277 5.109 5.109 0 0 0-1.586 1.353c-1.542 2-2.819 4.19-3.8 6.517a19.361 19.361 0 0 0-1.568 9.708c.319 2.497.85 4.962 1.586 7.369a40.112 40.112 0 0 1 1.658 10.721 29.344 29.344 0 0 1-1.792 10.524c-.324.845-.57 1.719-.735 2.609a2.687 2.687 0 0 0 3.029 3.433 5.248 5.248 0 0 0 1.936-.43 28.364 28.364 0 0 0 4.14-2.241 27.456 27.456 0 0 0 7.376-7.736 50.206 50.206 0 0 0 4.947-10.184c1.416-3.881 2.689-7.808 4.141-11.653a146.295 146.295 0 0 1 7.169-15.311 94.648 94.648 0 0 0 5.897-13.393 37.641 37.641 0 0 0 1.981-11.097l.018.045zm-73.283 28.47a14.41 14.41 0 0 0 7.008-1.793 79.096 79.096 0 0 0 4.714-2.689 107.322 107.322 0 0 1 27.299-12.478 174.525 174.525 0 0 0 10.987-3.586 29.38 29.38 0 0 0 7.806-4.133c3.262-2.492 5.512-5.817 7.555-9.286.304-.565.53-1.168.672-1.793a3.107 3.107 0 0 0-1.953-3.918 6.087 6.087 0 0 0-3.818-.26 23.04 23.04 0 0 0-7.994 3.093c-1.246.825-2.537 1.596-3.764 2.447a53.813 53.813 0 0 1-17.235 8.068c-3.844 1.004-7.626 2.223-11.453 3.299a45.88 45.88 0 0 0-17.924 9.403 41.57 41.57 0 0 0-4.204 4.312 8.751 8.751 0 0 0-2.168 4.482c-.422 2.824 1.174 4.769 4.033 4.805l.439.027zm41.557-31.043-.143-.215a54.054 54.054 0 0 1-9.482 2.169 36.503 36.503 0 0 1-9.061.278c-3.827-.43-7.645-1.013-11.471-1.434a46.665 46.665 0 0 0-10.845.143 28.175 28.175 0 0 0-11.122 4.177 7.766 7.766 0 0 0-3.414 4.097 2.843 2.843 0 0 0 2.77 4.061 19.616 19.616 0 0 0 5.816-.897 61.61 61.61 0 0 0 3.584-1.075 27.646 27.646 0 0 1 8.066-1.175 27.124 27.124 0 0 0 7.582-.986c5.144-1.604 10.307-3.155 15.46-4.706a71.75 71.75 0 0 0 9.733-3.272c.833-.367 1.667-.798 2.509-1.21l.018.045zm44.085 68.764a2.642 2.642 0 0 0 .663-2.223 21.577 21.577 0 0 0-.726-4.168c-1.246-3.81-2.608-7.584-3.997-11.349-2.689-7.306-5.682-14.513-7.986-21.962a37.117 37.117 0 0 1-1.792-9.475c-.054-1.291-.197-2.582-.323-4.169-.277.673-.484 1.076-.627 1.506a59.771 59.771 0 0 0-2.608 15.06c-.134 2.438-.081 4.886 0 7.324a15.51 15.51 0 0 0 .896 5.45c.242.521.521 1.024.834 1.506 1.039.341 1.936-.152 2.688.547a5.087 5.087 0 0 1-.098.896 6.128 6.128 0 0 0 .394 4.142 40.249 40.249 0 0 0 4.786 8.659c1.479 1.936 2.922 3.909 4.481 5.809a11.975 11.975 0 0 0 2.079 1.9 5.76 5.76 0 0 0 1.336.547zm-28.993-60.562-.179-.251a48.623 48.623 0 0 1-8.666 4.007c-2.564.897-5.163 1.658-7.762 2.447-7.277 2.223-14.411 4.787-21.025 8.633a2633.062 2633.062 0 0 1-11.874 6.849 1.767 1.767 0 0 1-.449.098l.251.296c.189 0 .386 0 .565-.054 4.176-.771 8.353-1.524 12.547-2.34a76.205 76.205 0 0 0 7.815-1.748c8.962-2.76 16.768-7.547 23.893-13.535 1.676-1.462 3.244-3.003 4.884-4.447v.045zm-65.674-4.93c.147.061.3.109.457.143.287-.125.573-.251.896-.394a26.571 26.571 0 0 1 11.445-2.967 70.6 70.6 0 0 1 14.931 1.004c4.065.731 8.214.882 12.323.448a45.323 45.323 0 0 0 15.405-4.563c1.174-.601 2.268-1.345 3.406-2.017a.79.79 0 0 0-.663-.125c-2.142.493-4.275 1.048-6.426 1.47a40.313 40.313 0 0 1-11.176.538c-5.01-.44-10.002-1.121-15.011-1.659a26.735 26.735 0 0 0-10.755.78 56.171 56.171 0 0 0-14.115 7.037 6.08 6.08 0 0 1-.717.26v.045zM169.49 184.6a3.465 3.465 0 0 0-.896-.099c-1.255.188-1.909-.52-2.348-1.542a6.54 6.54 0 0 1-.529-1.56 49.84 49.84 0 0 1-.663-5.136 64.71 64.71 0 0 1 1.12-15.203c.117-.583.189-1.184.278-1.793-.26.147-.462.377-.573.654-1.354 2.689-2.689 5.379-4.06 8.14-1.533 3.191-3.02 6.409-4.544 9.609a3.366 3.366 0 0 0-.179 2.403 23.07 23.07 0 0 0 9.571 13.446c2.501 1.721 5.109 3.281 7.663 4.912.214.094.436.169.663.225-.251-.413-.376-.655-.538-.897a39.087 39.087 0 0 1-4.481-8.175 6.46 6.46 0 0 1-.511-4.482c.027-.181.036-.364.027-.547v.045zm-40.697-9.61a30.687 30.687 0 0 0-1.165 7.44 38.9 38.9 0 0 0 .081 5.2 61.2 61.2 0 0 0 1.891 9.86c.514 1.661.688 3.408.511 5.137-.17 1.246-.43 2.483-.556 3.729a6.42 6.42 0 0 0 0 2.886c.368-1.434.672-2.85 1.094-4.231a29.679 29.679 0 0 0 1.469-9.708 40.65 40.65 0 0 0-1.505-9.771 40.798 40.798 0 0 1-1.658-7.951c-.045-.879-.108-1.757-.162-2.636v.045zM212.948 81.341c.35-.26.717-.502 1.04-.789a32.562 32.562 0 0 0 7.098-9.672c1.219-2.474 2.438-4.948 3.701-7.396 5.987-11.519 14.627-20.617 25.247-27.995a127.59 127.59 0 0 1 18.247-10.443c9.177-4.33 16.266-10.981 21.93-19.273 1.272-1.856 2.482-3.756 3.764-5.71l.753-.063c-.01.13-.035.26-.072.385a70.099 70.099 0 0 1-15.558 18.897 46.762 46.762 0 0 1-8.962 5.701 173.933 173.933 0 0 0-17.925 10.04c-12.296 8.068-21.912 18.538-28.239 31.913-1.004 2.142-2.115 4.23-3.209 6.275a31.05 31.05 0 0 1-6.425 8.13c-.502.484-.511.475-1.39 0z"/><path d="M146.315 192.067c.762-1.936 1.506-3.882 2.286-5.809 3.459-8.552 7.626-16.763 11.767-24.992a113.214 113.214 0 0 0 6.139-13.446 49.482 49.482 0 0 0 1.685-5.872c.251-1.483.419-2.98.502-4.482.439 3.433-.547 6.902-1.712 10.354a93.404 93.404 0 0 1-4.786 10.757c-2.097 4.32-4.391 8.543-6.435 12.89-3.011 6.41-5.87 12.891-8.809 19.336-.189.412-.44.798-.664 1.201l.027.063zM96.208 143.848c1.443-.313 2.877-.699 4.338-.896 2.285-.359 4.588-.627 6.883-.896a56.383 56.383 0 0 1 3.056-.278c2.545-.18 5.108-.278 7.653-.529a69.553 69.553 0 0 0 13.856-2.645c.26-.08.529-.161.797-.224 0 0 .108.054.377.197-1.371.44-2.572.897-3.8 1.211a55.777 55.777 0 0 1-10.647 1.909c-3.056.242-6.121.421-9.168.717-3.953.395-7.887.897-11.83 1.309-.511.063-1.022.081-1.533.116l.018.009zM130.246 144.046c1.936-.942 3.872-1.892 5.825-2.806a138.1 138.1 0 0 0 16.338-8.964 61.976 61.976 0 0 1 5.494-2.967 8.58 8.58 0 0 1 4.625-.601c.38.056.742.2 1.057.421-2.931-.573-5.521.305-7.958 1.793-2.689 1.614-5.378 3.299-8.066 4.895a153.35 153.35 0 0 1-16.338 7.951c-.33.112-.669.196-1.013.251l.036.027zM144.881 139.546c-.446.426-.919.824-1.416 1.192a59 59 0 0 1-9.499 4.948c-6.821 2.931-13.659 5.809-20.479 8.74-1.792.762-3.486 1.623-5.225 2.438l-.063-.071c2.133-1.076 4.213-2.268 6.399-3.227 5.709-2.501 11.481-4.886 17.208-7.36a75.346 75.346 0 0 0 12.86-6.58.63.63 0 0 1 .233-.062l-.018-.018zM152.938 158.926c1.963-3.083 3.935-6.158 5.897-9.251a67.363 67.363 0 0 0 5.629-10.479 17.483 17.483 0 0 0 1.209-5.262 8.92 8.92 0 0 0-.286-1.963c0-.17 0-.35-.081-.735a2.917 2.917 0 0 1 .896 2.187 15.235 15.235 0 0 1-1.299 6.176 55.038 55.038 0 0 1-5.001 9.135c-2.035 3.128-4.141 6.221-6.229 9.323a9.85 9.85 0 0 1-.762.896l.027-.027zM146.073 162.503c-.206.421-.385.852-.627 1.246-2.259 3.738-4.553 7.458-6.776 11.214-2.491 4.213-4.23 8.776-6.094 13.285-.188.457-.394.897-.654 1.524a1.398 1.398 0 0 1 .125-1.327 82.054 82.054 0 0 1 7.564-15.956c1.936-3.057 3.872-6.123 5.817-9.17.201-.282.422-.549.663-.798l-.018-.018zM168.326 189.207a1.91 1.91 0 0 1-.349-.304 32.602 32.602 0 0 1-5.575-13.626c-.521-2.91-.5-5.892.063-8.794a6.73 6.73 0 0 1 1.407-3.137c-.332 1.12-.744 2.223-1.004 3.361a20.29 20.29 0 0 0-.188 7.172 50.533 50.533 0 0 0 1.246 5.862 28.696 28.696 0 0 0 3.414 7.62c.359.6.646 1.246.968 1.873l.018-.027zM158.611 136.238a7.202 7.202 0 0 1-.672.798 79.772 79.772 0 0 1-20.505 13.858c-.636.287-1.309.475-1.972.717 1.73-.896 3.477-1.792 5.189-2.689a103.86 103.86 0 0 0 17.028-12.012c.302-.237.616-.458.941-.663l-.009-.009zM147.74 184.295c-.788 1.972-1.559 3.944-2.375 5.898a2781.684 2781.684 0 0 1-5.673 13.447 2.036 2.036 0 0 1-.6.896c0-.116.063-.233.107-.35 2.635-6.263 5.273-12.537 7.914-18.824.191-.375.409-.734.654-1.076l-.027.009zM108.217 154.453c-.313.224-.609.475-.941.672a77.924 77.924 0 0 0-10.584 7.297c-1.246 1.076-2.41 2.25-3.764 3.308.203-.362.443-.701.717-1.013a44.111 44.111 0 0 1 4.4-3.908c2.958-2.08 6.059-3.962 9.115-5.908a5.97 5.97 0 0 1 1.075-.43l-.018-.018zM137.837 172.498l-6.506 13.644h-.09c.152-.467.278-.951.457-1.408a73.878 73.878 0 0 1 5.297-11.16 7.33 7.33 0 0 1 .896-1.031l-.054-.045zM102.544 140.801a76.696 76.696 0 0 1 18.184-.897c-6.103.215-12.179.188-18.184.897zM161.022 179.947a26.042 26.042 0 0 1-.591-2.617c-.395-3.218-.484-6.419.967-9.466-.071.403-.134.815-.224 1.228-.089.412-.197.896-.295 1.38a15.518 15.518 0 0 0-.269 5.271c.206 1.398.269 2.824.394 4.231l.018-.027zM163.352 186.375a3.028 3.028 0 0 1-1.084-2.143c.358.717.717 1.434 1.084 2.152v-.009zM150.823 177.634a4.228 4.228 0 0 1 1.246-2.258l-1.255 2.258h.009zM108.262 156.864l-2.133 1.175 2.017-1.264.116.089zM146.288 192.049c-.134.493-.26.986-.394 1.479l.394-1.47v-.009zM144.908 139.564l.959-.682-.959.691v-.009zM109.158 154.005l-.896.448.95-.439-.054-.009z"/><path d="m96.19 143.822-.502.197v-.135h.547l-.045-.062zM146.091 162.521l.475-.699-.466.699h-.009zM147.023 161.113l-.484.691.484-.682v-.009zM147.516 160.405c-.161.233-.331.466-.493.708l.457-.708h.036zM168.308 189.252l.448.699-.457-.69.009-.009zM129.26 144.53l-.636.242.636-.224v-.018zM161.004 179.974c0 .099.081.206 0 .099a1.13 1.13 0 1 0 0-.126v.027zM138.24 171.512l-.242.394.242-.394zM147.991 183.829l.251-.377-.287.377h.036zM148.251 183.407l.054-.152h-.072a.339.339 0 0 0 0 .09l.018.062zM106.129 158.039l-.511.197.538-.179-.027-.018zM137.998 171.906l-.161.592.153-.592h.008zM138.769 170.795l-.251.421.215-.439.036.018zM150.545 178.128v.107l.063-.09-.063-.017zM150.796 177.617c-.089.17-.17.34-.251.511l.251-.511zM130.219 144.019l-.412.296.412-.287v-.009zM169.052 190.22l.188.422a8.736 8.736 0 0 0-.179-.431l-.009.009zM129.287 144.557l.547-.224-.547.215v.009zM128.624 144.772l-.323.152.35-.143-.027-.009zM135.462 151.611l-.063.054h.09l-.027-.054zM134.467 151.961l.081-.009-.018.054-.063-.045zM111.13 153.064h.143v-.081l-.116.081h-.027zM110.664 153.35l.466-.242-.466.242zM110.189 153.548l.475-.242-.475.233v.009zM110.171 153.53l-.466.26.457-.26h.009zM109.185 154.032l.547-.224-.547.215v.009zM147.964 183.757l-.224.538.224-.538zM168.756 189.951l.296.269-.296-.269zM169.5 190.91l-.242-.286.26.26-.018.026z"/><path d="m169.5 190.902.072.071v-.08h-.072v.009zM145.885 193.528l-.036.009.072-.009h-.036zM159.077 135.727l-.224.269.224-.26v-.009zM158.853 135.996l-.242.242.242-.242zM145.858 138.882l.027-.08-.045.053.018.027zM149.631 157.304h.099l-.108-.108v.099l.009.009zM149.631 157.304h-.08l.089.098v-.089l-.009-.009zM149.147 158.012h.09l-.099-.099v.09l.009.009zM149.147 158.012h-.08l.098.081v-.081h-.018zM104.919 158.729h-.071l.089.09v-.081l-.018-.009zM148.448 158.944l-.063.081h.072v-.072l-.009-.009zM138.751 170.804l.054-.081h-.072v.072l.018.009zM138.518 171.216l-.278.296.269-.296h.009zM315.896 43.718c-1.407.18-2.805.368-4.212.53-2.689.295-5.377.627-8.066.896-3.845.331-7.689.61-11.543.896a439.93 439.93 0 0 1-8.855.502c-3.065.126-6.148.17-9.213.296a61.353 61.353 0 0 0-9.75.995 25.527 25.527 0 0 0-13.157 7.01 58.708 58.708 0 0 0-11.892 16.933 1956.21 1956.21 0 0 0-5.889 12.649 10.171 10.171 0 0 0-1.209 4.482 1.796 1.796 0 0 0 1.022 1.956c.242.11.505.164.77.16 4.284.663 8.568.797 12.726-.682a26.897 26.897 0 0 0 4.786-2.268 55.207 55.207 0 0 0 10.88-9.125c.896-.897 1.739-1.793 2.689-2.69a17.716 17.716 0 0 1 10.414-5.1 5.939 5.939 0 0 1 5.207 1.703 4.268 4.268 0 0 1 .976 4.993c-.286.65-.619 1.28-.994 1.883a5.298 5.298 0 0 0-.708 2.456 33.47 33.47 0 0 1-4.661 15.329 14.3 14.3 0 0 1-1.792 2.375 30.601 30.601 0 0 1-14.465 8.758c-2.371.64-4.873.619-7.232-.063-.269-.071-.529-.125-.897-.215.049.278.121.55.216.816a39.605 39.605 0 0 1 3.02 18.161 91.3 91.3 0 0 0-.43 10.856c.116 2.241.224 4.482.215 6.723a7.386 7.386 0 0 1-.547 2.636 1.99 1.99 0 0 1-3.433.735c-.546-.511-.985-1.13-1.478-1.686l-1.156-1.264a18.77 18.77 0 0 1-2.295.511 8.073 8.073 0 0 1-4.239-.797 22.312 22.312 0 0 1-8.406-7.1 27.719 27.719 0 0 1-3.926-7.387c-.17-.475-.367-.896-.645-1.613-.224 1.022-.376 1.793-.591 2.617a29.215 29.215 0 0 1-5.378 11.215 25.994 25.994 0 0 1-3.316 3.352 10.005 10.005 0 0 1-2.787 1.488c-2.106.789-5.377-.69-5.78-2.608a8.703 8.703 0 0 1-.296-3.021 15.19 15.19 0 0 0-.287-6.06 22.23 22.23 0 0 1 .179-11.34c.197-.708.511-1.38.798-2.142a1.25 1.25 0 0 0-.385.045c-3.585 2.277-7.17 4.482-10.621 6.875-1.917 1.3-3.683 2.833-5.466 4.321a11.824 11.824 0 0 1-5.243 2.815c-2.868.573-4.867-.78-5.082-3.72a36.419 36.419 0 0 1 .126-4.832c.125-2.241.403-4.482.448-6.714a27.797 27.797 0 0 1 3.271-12.335c.216-.373.347-.79.385-1.219-.224.134-.448.26-.672.403-1.927 1.219-3.818 2.501-5.789 3.658a20.681 20.681 0 0 1-7.968 2.429 11.07 11.07 0 0 0-2.016.6 21.496 21.496 0 0 1-3.235 1.049c-1.739.296-2.832-.385-3.666-1.945a7.477 7.477 0 0 1-.448-5.378 15.377 15.377 0 0 1 2.689-5.747c.403-.568.69-1.211.842-1.891.289-1.06.749-2.065 1.362-2.976 5.566-8.39 13.345-13.67 23.015-16.261a46.027 46.027 0 0 1 27.782 1.443 15.67 15.67 0 0 1 4.562 2.42c2.689 2.286 7.17.897 8.64-1.99.573-1.084 1.147-2.16 1.667-3.263 1.792-3.854 3.441-7.79 5.377-11.563a55.06 55.06 0 0 1 11.731-15.473 25.99 25.99 0 0 1 14.976-6.597c3.791-.421 7.618-.53 11.436-.744 4.248-.242 8.496-.413 12.744-.664 3.934-.224 7.868-.43 11.794-.789 4.194-.385 8.37-.95 12.547-1.443.271-.047.537-.116.797-.206l.027.941zm-62.322 80.597c-.179-1.792-.278-3.926-.636-6.05-1.909-11.466-8.264-19.793-18.211-25.53a8.877 8.877 0 0 0-2.062-.897 3.458 3.458 0 0 0-4.23 1.47 6.016 6.016 0 0 0-1.039 2.85 87.242 87.242 0 0 0-1.175 13.788c0 1.452.153 2.904.216 4.356.054 3 .293 5.994.717 8.965a33.173 33.173 0 0 0 5.251 13.661 21.443 21.443 0 0 0 8.703 7.602 6.44 6.44 0 0 0 2.534.743 6.437 6.437 0 0 0 2.619-.34 1.57 1.57 0 0 1 1.909.493c.34.377.636.798.968 1.192.363.464.758.901 1.183 1.309a1.371 1.371 0 0 0 2.339-.403 4.924 4.924 0 0 0 .546-2.026c0-2.008-.08-4.007-.134-6.015-.054-2.008-.188-3.935-.108-5.899.144-2.967.377-5.907.61-9.269zm-69.546 6.275h-.17c.119 1.166.316 2.322.591 3.461a2.688 2.688 0 0 0 3.253 1.891 4.22 4.22 0 0 0 1.3-.547 10.262 10.262 0 0 0 3.289-3.334 40.977 40.977 0 0 1 4.669-5.944 39.427 39.427 0 0 1 13.309-8.587c1.954-.816 3.898-1.695 5.772-2.69a7.296 7.296 0 0 0 2.303-1.981 48.243 48.243 0 0 0 9.025-19.936c.376-2.062 0-4.482-3.164-5.226a14.975 14.975 0 0 0-4.078-.475 55.673 55.673 0 0 0-6.668.788 30.969 30.969 0 0 0-15.979 8.158 45.199 45.199 0 0 0-11.023 16.467 21.316 21.316 0 0 0-1.694 8.749c.003.632-.03 1.263-.099 1.892-.206 2.501-.43 4.975-.636 7.359v-.045zm38.886-44.04.045-.18c-.26-.126-.52-.278-.788-.377a41.15 41.15 0 0 0-10.459-2.312 47.976 47.976 0 0 0-14.788 1.04 54.976 54.976 0 0 0-22.817 11.438 42.34 42.34 0 0 0-6.202 6.149 15.238 15.238 0 0 0-3.343 6.957 6.087 6.087 0 0 0 .717 4.643 2.511 2.511 0 0 0 3.038 1.201c.897-.242 1.793-.672 2.689-.968a15.943 15.943 0 0 1 2.689-.735 19.493 19.493 0 0 0 6.416-1.882 46.207 46.207 0 0 0 7.672-4.868 12.753 12.753 0 0 0 2.465-2.689 75.158 75.158 0 0 1 4.579-6.006 32.795 32.795 0 0 1 13.291-9.153 38.679 38.679 0 0 1 13.918-2.205l.878-.054zm15.093 7.045-.072.18c.278.215.538.439.824.636a36.688 36.688 0 0 1 10.818 11.868 2.59 2.59 0 0 0 1.613 1.264c2.639.857 5.474.901 8.137.126a32.258 32.258 0 0 0 10.755-5.782 20.04 20.04 0 0 0 5.7-7.171 38.07 38.07 0 0 0 2.742-8.4c.283-.983.44-1.998.466-3.02a8.299 8.299 0 0 1 1.336-4.922c.428-.66.703-1.407.806-2.187a4.112 4.112 0 0 0-3.038-4.15c-3.235-1.13-7.671.546-9.267 3.585-.959 1.847-1.729 3.792-2.643 5.665a59.4 59.4 0 0 1-2.904 5.675 16.445 16.445 0 0 1-14.877 8.211 33.533 33.533 0 0 1-8.281-1.085c-.699-.107-1.407-.278-2.115-.448v-.045zm-11.956 7.387h-.26c-.116.251-.224.493-.349.735-1.174 2.357-2.223 4.787-3.585 7.055a44.531 44.531 0 0 1-9.957 12.218 2.011 2.011 0 0 0-.6.699 28.084 28.084 0 0 0-1.434 3.864A22.52 22.52 0 0 0 210 136.31a9.39 9.39 0 0 1 .332 4.428c-.108.493-.153 1.004-.215 1.515-.484 4.168 3.253 5.683 5.933 4.572a7.813 7.813 0 0 0 2.097-1.291 26.052 26.052 0 0 0 8.576-14.746c.487-1.627.564-3.348.224-5.011a35.614 35.614 0 0 1-1.012-7.351c0-1.847-.233-3.693-.269-5.549-.054-2.429 0-4.876 0-7.315.089-1.515.269-3.012.385-4.536v-.044zm42.884-26.893-.144-.161c-1.084.896-2.222 1.739-3.262 2.689-1.039.95-1.936 1.972-2.894 2.958a59.28 59.28 0 0 1-10.63 8.964 22.787 22.787 0 0 1-5.215 2.474 25.092 25.092 0 0 1-10.28.95 6.512 6.512 0 0 0-.726 0 4.17 4.17 0 0 0 1.273.673 33.509 33.509 0 0 0 12.547 1.918 15.235 15.235 0 0 0 9.168-3.299 20.879 20.879 0 0 0 5.843-7.771c1.452-3.04 2.877-6.186 4.32-9.323v-.072zm-46.433 11.196.063-.152a3.99 3.99 0 0 0-.565-.394 29.916 29.916 0 0 0-2.948-1.22 46.595 46.595 0 0 0-19.995-2.483 43.02 43.02 0 0 0-13.748 3.586 37.647 37.647 0 0 0-15.997 13.599c-.421.636-.753 1.335-1.129 1.999l.224.152c.242-.224.493-.44.726-.681A56.38 56.38 0 0 1 181.599 90a51.727 51.727 0 0 1 24.332-7.172 42.756 42.756 0 0 1 15.46 2.223c.394.17.753.17 1.111.305v-.072zm-31.367 49.303.134.189c.753-.61 1.533-1.184 2.25-1.793a48.225 48.225 0 0 1 6.641-5.11c2.688-1.721 5.377-3.424 8.066-5.136a31.367 31.367 0 0 0 7.241-6.141c.179-.224.323-.475.556-.824l-6.274 2.752c-5.933 2.554-11.176 6.14-15.11 11.366-1.174 1.578-2.33 3.174-3.486 4.76l-.018-.063z"/><path d="M190.248 117.727c3.181-11.86 9.589-21.219 20.881-26.74a34.228 34.228 0 0 1 8.819-2.896 11.748 11.748 0 0 1 5.27-.08c.546.143 1.066.367 1.595.546l-.09.251c-.663-.134-1.317-.322-1.989-.394a18.816 18.816 0 0 0-6.883.7 37.711 37.711 0 0 0-14.788 7.86 38.708 38.708 0 0 0-10.207 14.164c-.789 1.793-1.434 3.657-2.151 5.486-.144.368-.314.717-.475 1.076l.018.027z"/><path d="M173.014 104.54c.174-.313.372-.612.591-.896a58.602 58.602 0 0 1 28.509-17.22 46.657 46.657 0 0 1 14.742-1.201c1.95.2 3.888.5 5.808.896a.608.608 0 0 1 .448.377c-1.112-.18-2.223-.386-3.334-.53-1.407-.17-2.814-.358-4.221-.403-11.884-.394-22.504 3.344-32.192 10.031a62.275 62.275 0 0 0-9.491 8.149c-.269.278-.583.511-.896.762l.036.035zM232.854 91.498a13.697 13.697 0 0 1 4.588 3.424 25.465 25.465 0 0 1 6.023 11.859 62.831 62.831 0 0 1 1.254 8.965c.199 3.265.151 6.54-.143 9.798-.287 4.482-.896 8.901-1.407 13.356a.698.698 0 0 1-.305.466c.17-1.47.341-2.949.502-4.428.215-1.954.547-3.899.609-5.854.162-4.527.395-9.062.207-13.58a36.011 36.011 0 0 0-4.078-16.091 20.613 20.613 0 0 0-6.534-7.342 7.44 7.44 0 0 1-.699-.6l-.017.026zM265.422 101.645a5.87 5.87 0 0 1-1.013.699 25.566 25.566 0 0 1-6.82 1.703 17.142 17.142 0 0 1-7.018-.313 26.958 26.958 0 0 1-3.271-1.318 9.247 9.247 0 0 1-.986-.529c0 .224 0 .359.063.43a27.932 27.932 0 0 1 4.159 10.462 49.947 49.947 0 0 1 1.192 12.549c-.081 2.241-.314 4.482-.493 6.715a2.89 2.89 0 0 1-.287.896c.072-1.389.089-2.779.224-4.15a49.497 49.497 0 0 0 0-8.382 56.115 56.115 0 0 0-1.362-8.722c-.763-3.588-2.195-7-4.222-10.058a3.176 3.176 0 0 1-.17-.43c.412-.296.753-.054 1.076.17a13.856 13.856 0 0 0 7.994 2.367 34.349 34.349 0 0 0 6.399-.744 44.283 44.283 0 0 0 4.597-1.372l-.062.027zM211.067 93.631a2.51 2.51 0 0 1-.413.403 42.307 42.307 0 0 0-15.101 16.073 60.693 60.693 0 0 0-5.816 15.132 2.896 2.896 0 0 1-.448 1.093c.259-1.165.484-2.339.797-3.496a54.192 54.192 0 0 1 9.249-19.219 37.544 37.544 0 0 1 10.575-9.43c.381-.194.773-.365 1.174-.511l-.017-.045z"/><path d="M187.209 85.85c1.327-.574 2.617-1.22 3.971-1.721a45.772 45.772 0 0 1 10.754-2.474 43.15 43.15 0 0 1 10.477.161c3.427.46 6.78 1.364 9.975 2.69.238.09.438.262.564.484a1.742 1.742 0 0 1-.439-.045 38.018 38.018 0 0 0-10.898-2.878 44.099 44.099 0 0 0-10.593.099 48.487 48.487 0 0 0-13.156 3.505 3.98 3.98 0 0 1-.681.161l.026.018zM216.292 142.325c7.877-15.769 8.415-22.465 9.374-33.168a59.292 59.292 0 0 1-3.325 20.259c-1.703 4.859-4.75 11.385-6.049 12.909z"/><path d="M218.882 129.075c3.342-9.322 6.112-18.78 6.927-28.685.475 5.997-3.674 23.172-6.927 28.685zM213.755 112.599c.212-.363.446-.713.699-1.049a86.764 86.764 0 0 0 7.394-8.91 34.177 34.177 0 0 0 5.216-11.286c.161-.681.278-1.38.475-2.053a9.797 9.797 0 0 1-.565 4.285 35.25 35.25 0 0 1-7.169 12.416c-1.963 2.259-4.069 4.383-6.112 6.57l.062.027zM217.448 97.19c-.359.41-.739.803-1.139 1.174a78.452 78.452 0 0 0-17.431 20.698s-.063 0-.314.198c.458-.897.78-1.542 1.174-2.179a69.6 69.6 0 0 1 16.186-18.825c.484-.385 1.031-.699 1.55-1.048l-.026-.018zM268.567 91.749c-.122.242-.269.47-.439.68a24.46 24.46 0 0 1-12.959 7.656 18.568 18.568 0 0 1-9.966-.636c-.403-.135-.815-.251-1.228-.377h-.286l-1.192-.896v-.126c.268.099.537.17.788.287 5.378 2.492 10.755 2.277 16.069 0a26.363 26.363 0 0 0 8.353-5.853c.242-.242.529-.449.789-.673l.071-.063zM234.287 139.25a13.32 13.32 0 0 1-.358-1.524c-.287-2.582-.699-5.155-.762-7.736-.116-4.563 0-9.135 0-13.706 0-1.3.188-2.591.305-4.151v9.09c0 2.94-.054 6.069.098 9.098.153 3.03.538 5.935.816 8.893l-.099.036z"/><path d="m257.239 95.316 1.793-1.344a35.038 35.038 0 0 0 9.311-11.439c.771-1.46 1.452-2.967 2.196-4.482.206-.412.466-.798.699-1.192-.394 1.022-.753 2.053-1.192 3.057a35.492 35.492 0 0 1-7.976 11.85c-1.165 1.094-2.474 2.053-3.737 3.04a5.382 5.382 0 0 1-1.049.501l-.045.01zM181.931 101.672a4.918 4.918 0 0 1-.466.78c-3.11 3.585-6.354 7.001-8.9 11.017-.137.17-.293.323-.466.457l-.215-.126c.084-.311.204-.612.359-.896.842-1.237 1.658-2.492 2.59-3.657a58.476 58.476 0 0 1 7.116-7.566l-.018-.009zM215.852 126.834a53.779 53.779 0 0 1-3.199 8.965 48.809 48.809 0 0 1-2.608 5.378 2.008 2.008 0 0 1-.072-.681c.107-.335.239-.662.395-.977 1.738-4.034 3.48-8.065 5.225-12.093.08-.17.179-.341.268-.511l-.009-.081zM247.291 145.211c-.609-.269-.43-.699-.385-1.058.125-1.129.323-2.259.43-3.388.233-2.591.421-5.182.636-7.763.02-.133.047-.265.081-.395a43.153 43.153 0 0 1-.762 12.604zM240.606 105.401c2.321 6.114 2.222 12.424 1.434 18.368 0-2.752.125-5.926.098-9.099a35.51 35.51 0 0 0-1.532-9.269zM229.806 97.217c-.224 2.303-.537 4.607-.654 6.911a53.896 53.896 0 0 0 .072 5.656c.098 1.677.331 3.344.385 5.038-.224-1.353-.52-2.689-.654-4.051a40.878 40.878 0 0 1 .143-9.413c.162-1.246.35-2.483.538-3.729.044-.141.11-.275.197-.394l-.027-.018zM276.597 85.133a1.08 1.08 0 0 1 0 .35c-1.792 4.293-4.355 8.013-8.316 10.622-.273.152-.558.281-.852.386a3.49 3.49 0 0 1 .404-.413 22.814 22.814 0 0 0 7.062-7.897c.555-1.031 1.174-2.017 1.792-3.021l-.09-.027zM273.291 78.948c.994-2.52 1.998-5.038 2.993-7.566l.215.063a2.52 2.52 0 0 1-.09.591 332.746 332.746 0 0 1-2.509 6.096 3.745 3.745 0 0 1-.627.798l.018.018zM183.49 88.028l-3.065 1.793-.161-.26 3.038-1.793.188.26zM270.468 89.373l1.416-2.107c-.466.7-.897 1.399-1.407 2.107h-.009zM272.592 86.056l.636-1.317.17.098-.833 1.192.027.027zM269.75 90.341l-1.183 1.408 1.183-1.408zM244.692 100.264l-.708-.896.708.896zM245.4 101.224l-.708-.96.717.96h-.009zM270.45 89.355l-.7.986.7-.986zM267.393 96.49l-.492.43-.108-.151.6-.278zM257.222 95.298l-.941.466.896-.475.045.01zM172.745 104.765c-.063.143-.126.295-.197.448l-.242-.197.466-.234-.027-.017zM271.928 87.266c.179-.215.359-.43.529-.654l-.529.663v-.009zM232.379 91.273l-.637-.242.646.26-.009-.018zM271.453 76.375c.072-.233.135-.466.206-.708-.08.224-.152.457-.233.681l.027.027zM271.193 76.868l.26-.493-.251.502-.009-.009z"/><path d="m273.066 79.414.224-.484-.224.466v.018zM272.824 79.916l.251-.502-.215.538-.036-.036zM265.449 101.663l.484-.215-.484.197v.018zM265.933 101.448h.089c.027 0 0-.045 0-.063l-.143.054.054.009zM187.192 85.832l-.466.242.466-.242zM186.304 86.361l.44-.269-.449.26.009.009zM272.565 86.03c-.063.179-.117.367-.18.555l.18-.556zM186.277 86.334l-.448.26.457-.25-.009-.01zM185.327 86.773l.52-.161-.52.152v.01zM276.624 85.16c.09-.144.18-.278.278-.412a6.527 6.527 0 0 1-.287.42l.009-.008zM231.742 91.031h-.098l.071.054.027-.054zM232.361 91.3l.493.233-.493-.233zM211.64 93.452l.063-.117-.09.099.027.018zM211.084 93.658l.556-.206-.547.197-.009.009zM218.156 96.733l-.43.179.421-.206.009.027zM255.877 96.07l.43-.279-.43.278z"/><path d="m218.156 96.733.269-.242-.305.242h.036zM271.659 75.667h.081l-.107-.09v.09h.026zM217.475 97.217l.26-.278-.251.278h-.009zM218.425 96.49h.08v-.08l-.071.063-.009.018zM213.182 113.065l-.027.063.045-.045-.018-.018zM213.442 112.841l-.26.224.26-.215v-.009zM213.728 112.572l-.286.269.295-.269h-.009zM185.31 86.746l-.027.063.036-.045-.009-.017zM243.976 99.072v.305l-.251-.278h.286l-.035-.027zM172.996 104.522l-.251.243.242-.243h.009zM272.825 79.916l-.054.08h.054V79.915zM183.203 100.749h.081l-.09-.09v.081l.009.009zM182.2 101.466l-.269.206.26-.233.009.027zM182.209 101.457h.071l-.08.045.009-.045zM183.203 100.749h-.089l.098.098v-.089l-.009-.009zM0 242.096a18.944 18.944 0 0 1 2.34-.269 32.254 32.254 0 0 0 9.857-1.676 90.536 90.536 0 0 0 13.273-5.594c4.822-2.411 9.688-4.769 14.931-6.149a35.916 35.916 0 0 1 14.053-1.058 23.943 23.943 0 0 1 15.119 8.211c.654.735 1.371 1.416 2.088 2.089 2.348 2.196 2.689 4.285 1.03 7.064a19.576 19.576 0 0 1-5.493 5.952 38.424 38.424 0 0 1-14.214 6.158 54.266 54.266 0 0 1-17.852.771 59.08 59.08 0 0 1-23.033-7.996c-3.477-2.008-6.973-3.989-10.45-5.997-.574-.341-1.273-.556-1.649-1.506zm1.595.475v.359l1.022.555c3.083 1.74 6.166 3.497 9.267 5.209 1.963 1.084 3.907 2.205 5.942 3.146a54.88 54.88 0 0 0 34.432 4.366 37.144 37.144 0 0 0 14.24-6.042 19.362 19.362 0 0 0 5.54-5.908c1.514-2.519 1.245-4.069-.897-6.068a14.037 14.037 0 0 1-1.703-1.641 23.542 23.542 0 0 0-6.273-5.334c-4.678-2.976-9.858-3.702-15.236-3.173a21.33 21.33 0 0 0-9.858 3.774c-1.792 1.192-3.468 2.456-5.153 3.756a30.99 30.99 0 0 1-9.025 5.289 25.865 25.865 0 0 1-6.928 1.345 99.784 99.784 0 0 1-11.65.313c-1.21-.062-2.465.009-3.72.009v.045zm7.26-.609c.492 0 .896.071 1.236.053 2.626-.134 5.261-.224 7.887-.439a23.214 23.214 0 0 0 11.803-4.356c1.246-.897 2.456-1.847 3.675-2.77a38.334 38.334 0 0 1 8.388-5.227 3.03 3.03 0 0 0 .475-.313c-1.722.266-3.41.717-5.037 1.344-4.167 1.793-8.272 3.658-12.412 5.477-3.2 1.408-6.39 2.842-9.643 4.142-2.026.762-4.159 1.327-6.372 2.044v.045z"/><path d="M52.796 244.785c-1.65.466-3.28 1.022-4.947 1.381-3.182.681-6.363 1.407-9.58 1.793-4.33.585-8.71.724-13.067.412a81.008 81.008 0 0 1-12.117-1.712 70.172 70.172 0 0 1-12.153-4.097c-.054 0-.09-.107-.305-.367.484.143.79.197 1.076.313a68.622 68.622 0 0 0 13.264 4.052c2.42.475 4.884.771 7.33 1.112 3.32.421 6.668.574 10.012.457a67.147 67.147 0 0 0 13.756-1.793l6.749-1.587-.018.036z"/><path d="M20.711 250.944c1.847.358 3.675.78 5.539 1.075a57.52 57.52 0 0 0 5.377.61c2.274.193 4.557.264 6.838.215 8.962-.403 17.396-2.474 25.094-7.171 1.542-.897 2.922-2.125 4.392-3.183.25-.16.51-.304.78-.43-3.935 3.855-8.694 6.275-13.811 8.14a52.749 52.749 0 0 1-22.71 2.94 53.1 53.1 0 0 1-10.423-1.73 10.143 10.143 0 0 1-1.076-.439v-.027zM47.203 241.737c1.658-.591 3.334-1.12 4.956-1.792 4.607-1.865 9.133-3.891 13.13-6.921a3.3 3.3 0 0 1 .77-.313l.153.251c-.246.279-.512.54-.798.779-.896.646-1.792 1.318-2.688 1.874a52.404 52.404 0 0 1-14.34 5.898c-.385.09-.77.126-1.156.189l-.027.035zM43.126 236.511c-2.24.807-4.481 1.704-6.73 2.403a38.641 38.641 0 0 1-10.639 1.864h-1.183a4.051 4.051 0 0 1-.663-.134c.34-.144.493-.269.645-.269 6.04-.072 11.794-1.578 17.458-3.586.375-.108.755-.198 1.139-.269l-.027-.009zM52.85 252.154a13.222 13.222 0 0 1-5.261 1.542c-2.483.331-5.001.475-7.502.699a.593.593 0 0 1-.475-.153l1.587-.17c3.065-.394 6.13-.771 9.195-1.21.839-.17 1.666-.398 2.474-.681l-.019-.027zM55.995 234.181l2.689-2.188c.708-.564 1.416-1.129 2.133-1.667.289-.187.588-.357.896-.511a1.406 1.406 0 0 1-.806 1.237c-1.64 1.058-3.307 2.08-4.974 3.111l.062.018z"/><path d="m47.185 241.711-.501.215v-.135l.555-.054-.053-.026zM52.814 244.785l.959-.215-.96.215zM55.27 244.104l.098-.072h-.126l.027.072zM55.242 244.077l-.698.26.699-.26zM54.544 244.337l-.79.206.799-.206h-.01zM43.547 236.224l-.421.287.42-.287zM43.574 236.251l.457-.251-.466.224.009.027zM55.44 234.378l.555-.197-.52.224-.035-.027zM20.73 250.917l-.162-.054.143.081.018-.027zM56.399 243.754l-.063-.035.072-.018-.01.053zM58.02 243.127h-.134l.063.063.09-.108-.018.045zM58.039 243.109l.134.108a.533.533 0 0 0 0-.171h-.099a.252.252 0 0 0 0 .09l-.035-.027zM68.721 242.024l.036-.071-.009.053-.027.018zM55.449 234.387h-.081l.08.089v-.089z"/></g></svg>