<svg width="115" height="92" fill="none" xmlns="http://www.w3.org/2000/svg"><circle cx="77" cy="38" r="30" fill="#D2DFE6"/><circle cx="37" cy="7" r="7" fill="#D2DFE6"/><circle cx="5" cy="83" r="5" fill="#D2DFE6"/><circle cx="111" cy="4" r="4" fill="#D2DFE6"/><g clip-path="url(#a)" fill="#121218"><path d="M18.92 57.636c-2.17-3.25-3.779-6.338-4.783-9.18-1.843-5.212-1.183-10.984 1.723-15.063 1.798-2.523 5.243-5.518 11.472-5.518h.138c2.624 0 5.182.732 7.398 2.115a1.055 1.055 0 0 0 1.117-1.79 16.056 16.056 0 0 0-8.507-2.434c-5.63-.044-10.366 2.234-13.336 6.403-3.299 4.63-4.063 11.14-1.994 16.991 1.063 3.006 2.751 6.252 5.018 9.647 1.455 2.18 3.167 4.449 5.09 6.746a1.053 1.053 0 0 0 1.486.131 1.055 1.055 0 0 0 .131-1.485c-1.873-2.239-3.54-4.447-4.952-6.563zM81.13 52.906h-9.665c-3.822 0-7.498.82-10.927 2.437a1.055 1.055 0 0 0 .9 1.908 23.32 23.32 0 0 1 10.027-2.235h8.611v5.839c0 12.827-10.501 23.262-23.409 23.262h-3.613a1.055 1.055 0 1 0 0 2.11h3.613c14.07 0 25.519-11.382 25.519-25.372V53.96c0-.582-.473-1.055-1.055-1.055zM38.111 32.014l4.802 2.997a8.626 8.626 0 0 0 4.022 1.281c.043.003.087.003.13 0a8.626 8.626 0 0 0 4.022-1.281l8.044-5.021a13.963 13.963 0 0 1 7.406-2.115c6.307-.045 9.792 2.976 11.603 5.518 2.906 4.08 3.566 9.851 1.723 15.064a30.14 30.14 0 0 1-.502 1.317 1.055 1.055 0 1 0 1.954.796c.192-.472.373-.947.537-1.41 2.069-5.85 1.305-12.361-1.994-16.99-2.945-4.134-7.625-6.404-13.184-6.404h-.145c-3.019 0-5.963.842-8.515 2.434l-8.044 5.021a6.507 6.507 0 0 1-2.97.962 6.507 6.507 0 0 1-2.97-.962l-4.802-2.996a1.055 1.055 0 1 0-1.117 1.789zM43.454 82.237c-2.501-1.621-5.647-4.057-8.21-6.356a122.394 122.394 0 0 1-8.68-8.603 1.055 1.055 0 0 0-1.56 1.419 124.624 124.624 0 0 0 8.832 8.754c2.638 2.367 5.884 4.88 8.47 6.556a1.054 1.054 0 1 0 1.148-1.77z"/><path d="M65.975 75.234a1.055 1.055 0 1 0 0-2.11H61.85l3.652-3.318h6.615a1.055 1.055 0 1 0 0-2.11h-4.293l3.652-3.318h3.827a1.055 1.055 0 1 0 0-2.11h-1.506l3.944-3.583a1.051 1.051 0 0 0 .071-1.49 1.055 1.055 0 0 0-1.49-.07l-7.245 6.583v-3.099a1.055 1.055 0 0 0-2.11 0v5.016l-3.351 3.045v-3.31a1.055 1.055 0 0 0-2.11 0v5.227L47.414 83.393c-3.592-9.765-.268-20.637 8.198-26.745a22.929 22.929 0 0 1 .686 14.105 1.055 1.055 0 0 0 2.037.547 25.053 25.053 0 0 0-1.273-16.682 1.055 1.055 0 0 0-1.537-.463 25.393 25.393 0 0 0-10.52 13.89 25.235 25.235 0 0 0 1.024 17.55c.116.265.327.458.576.556a1.058 1.058 0 0 0 1.12-.19L59.53 75.233h6.446z"/></g><defs><clipPath id="a"><path fill="#fff" transform="translate(11 20)" d="M0 0h72v72H0z"/></clipPath></defs></svg>