<svg width="30" height="24" viewBox="0 0 30 24" fill="none" xmlns="http://www.w3.org/2000/svg">
<path d="M20.302 21.6892C20.2069 21.6892 20.1148 21.6558 20.0418 21.5948C19.9688 21.5337 19.9196 21.4489 19.9028 21.3553C19.8861 21.2616 19.9028 21.165 19.95 21.0824C19.9973 20.9999 20.0721 20.9365 20.1614 20.9035L21.2803 20.49C21.3811 20.4527 21.4927 20.457 21.5904 20.5019C21.6881 20.5469 21.7639 20.6288 21.8012 20.7296C21.8385 20.8305 21.8343 20.942 21.7893 21.0397C21.7444 21.1374 21.6625 21.2133 21.5616 21.2506L20.4427 21.6641C20.3977 21.6806 20.35 21.6892 20.302 21.6892Z" fill="#121218"/>
<path d="M14.9992 23.6433C14.8916 23.6433 14.7885 23.6006 14.7125 23.5246C14.6365 23.4485 14.5938 23.3454 14.5938 23.2379V9.50681C14.5938 9.42407 14.6187 9.34325 14.6654 9.27491C14.712 9.20656 14.7782 9.15387 14.8552 9.12371L25.6431 5.02708C25.7436 4.98886 25.8552 4.99214 25.9533 5.0362C26.0514 5.08026 26.128 5.16149 26.1663 5.26202C26.2045 5.36255 26.2012 5.47415 26.1571 5.57226C26.1131 5.67038 26.0319 5.74697 25.9313 5.78519L15.4046 9.78249V22.6565L17.4981 21.8842C17.599 21.8471 17.7105 21.8516 17.8081 21.8966C17.9058 21.9417 17.9815 22.0237 18.0186 22.1247C18.0558 22.2256 18.0513 22.3371 18.0062 22.4347C17.9611 22.5323 17.8791 22.608 17.7782 22.6452L15.1394 23.6182C15.0945 23.6346 15.047 23.6432 14.9992 23.6433Z" fill="#121218"/>
<path d="M24.0848 20.2946C23.9897 20.2945 23.8977 20.261 23.8247 20.2C23.7518 20.1389 23.7027 20.0541 23.686 19.9605C23.6693 19.8668 23.686 19.7703 23.7333 19.6877C23.7806 19.6052 23.8553 19.5419 23.9446 19.5089L25.3821 18.9783V10.8649C25.3821 10.7574 25.4249 10.6542 25.5009 10.5782C25.5769 10.5022 25.68 10.4595 25.7875 10.4595C25.8951 10.4595 25.9982 10.5022 26.0742 10.5782C26.1502 10.6542 26.193 10.7574 26.193 10.8649V19.2608C26.1929 19.3437 26.1675 19.4246 26.1201 19.4926C26.0727 19.5606 26.0056 19.6124 25.9278 19.6411L24.2251 20.2695C24.1802 20.2861 24.1327 20.2946 24.0848 20.2946Z" fill="#121218"/>
<path d="M17.9977 14.1425C17.9328 14.1425 17.8688 14.1269 17.8112 14.0971C17.7535 14.0672 17.7039 14.024 17.6664 13.971L14.6701 9.73895C14.6344 9.68845 14.6107 9.63045 14.6009 9.56939C14.591 9.50833 14.5953 9.44583 14.6133 9.38667C14.6314 9.32751 14.6627 9.27326 14.7049 9.22807C14.7472 9.18289 14.7992 9.14797 14.857 9.12598L25.644 5.02692C25.7289 4.99457 25.8223 4.9917 25.909 5.01875C25.9958 5.04581 26.0709 5.10122 26.1224 5.17611L29.1188 9.53503C29.1534 9.58586 29.1759 9.6439 29.1848 9.70475C29.1937 9.7656 29.1886 9.82767 29.1699 9.88626C29.1512 9.94485 29.1195 9.99843 29.077 10.0429C29.0346 10.0874 28.9826 10.1217 28.925 10.1431L18.1375 14.1161C18.0928 14.1332 18.0455 14.1421 17.9977 14.1425ZM15.6341 9.69801L18.1477 13.2494L28.1551 9.56341L25.6343 5.89651L15.6341 9.69801Z" fill="#121218"/>
<path d="M12.0039 14.1426C11.9561 14.1426 11.9088 14.1341 11.864 14.1174L1.07657 10.1445C1.01893 10.123 0.966931 10.0888 0.924497 10.0443C0.882063 9.99975 0.850309 9.94618 0.831638 9.88759C0.812968 9.829 0.80787 9.76693 0.816731 9.70608C0.825592 9.64523 0.84818 9.58719 0.882784 9.53636L3.87914 5.17501C3.93062 5.10012 4.00577 5.04471 4.09252 5.01765C4.17927 4.9906 4.2726 4.99347 4.35752 5.02582L15.1446 9.12609C15.2024 9.14808 15.2544 9.183 15.2966 9.22818C15.3388 9.27337 15.3702 9.32762 15.3882 9.38678C15.4062 9.44594 15.4105 9.50844 15.4007 9.5695C15.3908 9.63056 15.3672 9.68856 15.3314 9.73906L12.3351 13.9711C12.2976 14.0241 12.248 14.0673 12.1904 14.0972C12.1327 14.127 12.0688 14.1426 12.0039 14.1426ZM1.84643 9.56352L11.8527 13.2495L14.3662 9.69812L4.36725 5.89663L1.84643 9.56352Z" fill="#121218"/>
<path d="M14.9999 23.6428C14.952 23.6428 14.9046 23.6344 14.8596 23.6181L4.07178 19.6427C3.99394 19.6139 3.92679 19.5621 3.87938 19.494C3.83196 19.4259 3.80658 19.3449 3.80664 19.262V10.8648C3.80664 10.7573 3.84935 10.6542 3.92538 10.5781C4.00141 10.5021 4.10453 10.4594 4.21205 10.4594C4.31957 10.4594 4.42268 10.5021 4.49871 10.5781C4.57474 10.6542 4.61745 10.7573 4.61745 10.8648V18.9794L14.5945 22.656V9.78238L4.06772 5.78103C3.96912 5.74146 3.89 5.66476 3.84737 5.56744C3.80475 5.47012 3.80203 5.35995 3.83981 5.26065C3.87758 5.16135 3.95283 5.08084 4.04936 5.03646C4.1459 4.99207 4.25599 4.98736 4.35596 5.02333L15.1438 9.124C15.2206 9.15318 15.2868 9.20501 15.3335 9.27263C15.3802 9.34025 15.4052 9.42047 15.4053 9.50265V23.2374C15.4053 23.3449 15.3626 23.448 15.2866 23.524C15.2105 23.6001 15.1074 23.6428 14.9999 23.6428Z" fill="#121218"/>
<path d="M25.7866 5.81028C25.7315 5.81031 25.677 5.799 25.6265 5.77703L14.9996 1.20405L4.37269 5.77703C4.27484 5.81452 4.16627 5.81265 4.06976 5.77184C3.97325 5.73102 3.89629 5.65442 3.85502 5.5581C3.81376 5.46178 3.81139 5.35322 3.84842 5.25519C3.88545 5.15717 3.959 5.07729 4.05364 5.0323L14.8374 0.389998C14.8882 0.368342 14.9428 0.357178 14.998 0.357178C15.0531 0.357178 15.1077 0.368342 15.1585 0.389998L25.9455 5.0323C26.0315 5.06918 26.1021 5.13467 26.1453 5.21765C26.1885 5.30064 26.2017 5.39601 26.1826 5.4876C26.1635 5.57919 26.1133 5.66136 26.0405 5.72017C25.9678 5.77898 25.8769 5.81082 25.7834 5.81028H25.7866Z" fill="#121218"/>
</svg>
