<svg width="30" height="18" viewBox="0 0 30 18" fill="none" xmlns="http://www.w3.org/2000/svg">
<path d="M3.75 10.8628C4.00887 10.8628 4.21875 11.0727 4.21875 11.3316V14.6161H4.96453C5.14834 12.9903 6.61529 11.8214 8.24104 12.0051C9.61365 12.1603 10.6968 13.2435 10.852 14.6161H20.625V1.02235H4.21875V2.49657C4.21875 2.75544 4.00887 2.96532 3.75 2.96532C3.49113 2.96532 3.28125 2.75544 3.28125 2.49657V0.553604C3.28125 0.294737 3.49113 0.0848541 3.75 0.0848541H21.0938C21.3526 0.0848541 21.5625 0.294737 21.5625 0.553604V1.02235H26.9306C28.1074 1.02388 29.061 1.97743 29.0625 3.15423V3.83485C29.0625 4.09372 28.8526 4.3036 28.5938 4.3036H28.0486L28.4062 8.5997C29.3423 8.84333 29.9967 9.68696 30 10.6542V14.6161C30 14.875 29.7901 15.0849 29.5312 15.0849H28.582C28.4535 16.7611 26.9904 18.0158 25.3142 17.8873C23.8165 17.7725 22.6266 16.5825 22.5117 15.0849C22.5075 15.0849 22.5042 15.0872 22.5 15.0872H21.5625C21.5625 15.3461 21.3526 15.5559 21.0938 15.5559H10.8094C10.4755 17.1582 8.90584 18.1863 7.30359 17.8524C6.14947 17.6119 5.24771 16.7101 5.00719 15.5559H3.75C3.49113 15.5559 3.28125 15.3461 3.28125 15.0872V11.3316C3.28125 11.0726 3.49113 10.8628 3.75 10.8628ZM25.5469 16.9599C26.7118 16.9599 27.6562 16.0154 27.6562 14.8505C27.6562 13.6855 26.7118 12.7411 25.5469 12.7411C24.3819 12.7411 23.4375 13.6855 23.4375 14.8505C23.4388 16.0149 24.3824 16.9586 25.5469 16.9599ZM21.5625 14.1474H22.5C22.5275 14.1502 22.5547 14.1557 22.5811 14.1638C22.9581 12.5259 24.5914 11.5038 26.2293 11.8808C27.3586 12.1407 28.2422 13.0195 28.5084 14.1474H29.0625V10.6542C29.0617 9.99493 28.5274 9.46062 27.8681 9.45985H21.5625V14.1474ZM21.5625 8.52236H27.4594L27.1078 4.3036H21.5625V8.52236ZM21.5625 3.3661H28.125V3.15423C28.1242 2.49493 27.5899 1.96062 26.9306 1.95985H21.5625V3.3661ZM5.88545 15.0661C5.94568 16.1385 6.83379 16.9767 7.90781 16.9749H7.90828C8.89178 16.9727 9.73154 16.2643 9.89953 15.2953C9.81738 15.1518 9.82676 14.9734 9.92344 14.8392C9.8608 13.7242 8.90607 12.871 7.79098 12.9336C6.67594 12.9963 5.82275 13.951 5.88545 15.0661Z" fill="#54BA79"/>
<path d="M4.21875 3.83485H10.7812C11.0401 3.83485 11.25 4.04474 11.25 4.3036C11.25 4.56247 11.0401 4.77235 10.7812 4.77235H4.21875C3.95988 4.77235 3.75 4.56247 3.75 4.3036C3.75 4.04474 3.95988 3.83485 4.21875 3.83485Z" fill="#54BA79"/>
<path d="M3.28125 8.9911H13.5938C13.8526 8.9911 14.0625 9.20098 14.0625 9.45983C14.0625 9.71869 13.8526 9.92856 13.5938 9.92856H3.28125C3.02238 9.92856 2.8125 9.71869 2.8125 9.45983C2.8125 9.20098 3.02238 8.9911 3.28125 8.9911Z" fill="#54BA79"/>
<path d="M4.21875 6.1786H9.375C9.63387 6.1786 9.84375 6.38849 9.84375 6.64735C9.84375 6.90622 9.63387 7.1161 9.375 7.1161H4.21875C3.95988 7.1161 3.75 6.90622 3.75 6.64735C3.75 6.38849 3.95988 6.1786 4.21875 6.1786Z" fill="#54BA79"/>
<path d="M2.34375 4.77235H1.40625C1.14738 4.77235 0.9375 4.56247 0.9375 4.3036C0.9375 4.04474 1.14738 3.83485 1.40625 3.83485H2.34375C2.60262 3.83485 2.8125 4.04474 2.8125 4.3036C2.8125 4.56247 2.60262 4.77235 2.34375 4.77235Z" fill="#54BA79"/>
<path d="M0.9375 8.9911H1.875C2.13387 8.9911 2.34375 9.20098 2.34375 9.45983C2.34375 9.71869 2.13387 9.92856 1.875 9.92856H0.9375C0.678633 9.92856 0.46875 9.71869 0.46875 9.45983C0.46875 9.20098 0.678633 8.9911 0.9375 8.9911Z" fill="#54BA79"/>
<path d="M0.46875 6.1786H2.34375C2.60262 6.1786 2.8125 6.38849 2.8125 6.64735C2.8125 6.90622 2.60262 7.1161 2.34375 7.1161H0.46875C0.209883 7.1161 0 6.90622 0 6.64735C0 6.38849 0.209883 6.1786 0.46875 6.1786Z" fill="#54BA79"/>
</svg>
