<svg width="23" height="23" viewBox="0 0 23 23" fill="none" xmlns="http://www.w3.org/2000/svg">
<g clip-path="url(#clip0)">
<path d="M2.51383 21.6074C2.16119 21.6074 1.82113 21.5373 1.50309 21.3985C1.20121 21.2665 0.933029 21.0796 0.705724 20.8429C0.482911 20.6111 0.308165 20.3424 0.186427 20.0455C0.0628918 19.7436 0.000450365 19.4269 1.14603e-06 19.1035C-0.000448073 18.6439 0.131173 18.1902 0.380939 17.7904L9.35992 2.57986L9.36621 2.56953C9.59936 2.19758 9.92504 1.89301 10.3082 1.68861C10.6716 1.495 11.0813 1.39258 11.4933 1.39258H11.5H11.5067C11.9187 1.39258 12.3284 1.495 12.6918 1.68861C13.075 1.89301 13.4006 2.19758 13.6338 2.56953L13.6401 2.57986L19.3658 12.2794V12.2798C19.4269 12.3832 19.444 12.504 19.4139 12.6199C19.3838 12.7362 19.3106 12.8337 19.2072 12.8948C19.1381 12.9357 19.0595 12.9573 18.9795 12.9573C18.8209 12.9573 18.6727 12.8724 18.5923 12.7362L12.871 3.04436C12.57 2.56773 12.0701 2.29326 11.5 2.29102C10.9313 2.29326 10.4322 2.56684 10.1308 3.04121L1.15135 18.2527L1.14506 18.263C0.981993 18.524 0.898888 18.8065 0.898439 19.1035C0.897989 19.5127 1.06375 19.9197 1.35305 20.2198C1.66211 20.5387 2.06506 20.7081 2.51787 20.709H20.4821C20.9349 20.7081 21.3374 20.5387 21.6465 20.2198C21.9363 19.9197 22.102 19.5127 22.1016 19.1035C22.1011 18.807 22.018 18.524 21.8545 18.263L21.8487 18.2527L20.6474 16.2177C20.5863 16.1144 20.5693 15.9935 20.5994 15.8772C20.629 15.7613 20.7027 15.6634 20.806 15.6027C20.8752 15.5618 20.9538 15.5403 21.0338 15.5403C21.1923 15.5403 21.3406 15.6247 21.421 15.7608L22.62 17.7922C22.8693 18.1911 23.0005 18.6444 23 19.1035C22.9995 19.4269 22.9371 19.7436 22.8136 20.0455C22.6918 20.3424 22.5171 20.6111 22.2938 20.8429C22.067 21.0796 21.7988 21.2665 21.4969 21.3985C21.1789 21.5369 20.8388 21.6074 20.4862 21.6074H2.51383Z" fill="#F75283"/>
<path d="M11.5 17.5195C10.7569 17.5195 10.1523 16.915 10.1523 16.1719C10.1523 15.4288 10.7569 14.8242 11.5 14.8242C12.2431 14.8242 12.8477 15.4288 12.8477 16.1719C12.8477 16.915 12.2431 17.5195 11.5 17.5195ZM11.5 15.7227C11.2523 15.7227 11.0508 15.9242 11.0508 16.1719C11.0508 16.4196 11.2523 16.6211 11.5 16.6211C11.7477 16.6211 11.9492 16.4196 11.9492 16.1719C11.9492 15.9242 11.7477 15.7227 11.5 15.7227Z" fill="#F75283"/>
<path d="M11.5 13.9258C11.0077 13.9258 10.8101 13.3545 10.7257 13.1106C10.6206 12.8066 10.5188 12.3929 10.4231 11.8809C10.2553 10.983 10.1523 10.0335 10.1523 9.74805C10.1523 9.00495 10.7569 8.40039 11.5 8.40039C12.2431 8.40039 12.8477 9.00495 12.8477 9.74805C12.8477 10.0335 12.7446 10.983 12.5769 11.8809C12.4812 12.3929 12.3794 12.8066 12.2743 13.1106C12.1899 13.3545 11.9923 13.9258 11.5 13.9258ZM11.5 9.29883C11.2523 9.29883 11.0508 9.50035 11.0508 9.74805C11.0508 9.91951 11.1236 10.6628 11.2626 11.472C11.3496 11.9784 11.4312 12.3316 11.5 12.5764C11.5688 12.3316 11.6504 11.9784 11.7374 11.472C11.8764 10.6628 11.9492 9.91951 11.9492 9.74805C11.9492 9.50035 11.7477 9.29883 11.5 9.29883Z" fill="#F75283"/>
</g>
<defs>
<clipPath id="clip0">
<rect width="23" height="23" fill="white"/>
</clipPath>
</defs>
</svg>
