<svg width="30" height="30" viewBox="0 0 30 30" fill="none" xmlns="http://www.w3.org/2000/svg">
<path d="M15.0006 0.599854C7.04759 0.599854 0.600586 7.04685 0.600586 14.9999C0.600586 22.9529 7.04759 29.3999 15.0006 29.3999C22.9536 29.3999 29.4006 22.9529 29.4006 14.9999C29.4006 7.04685 22.9536 0.599854 15.0006 0.599854ZM11.4756 20.9684H8.55959V11.5844H11.4756V20.9684ZM9.99959 10.4324C9.07859 10.4324 8.48309 9.77985 8.48309 8.97285C8.48309 8.14935 9.09659 7.51635 10.0371 7.51635C10.9776 7.51635 11.5536 8.14935 11.5716 8.97285C11.5716 9.77985 10.9776 10.4324 9.99959 10.4324ZM22.1256 20.9684H19.2096V15.7679C19.2096 14.5574 18.7866 13.7354 17.7321 13.7354C16.9266 13.7354 16.4481 14.2919 16.2366 14.8274C16.1586 15.0179 16.1391 15.2879 16.1391 15.5564V20.9669H13.2216V14.5769C13.2216 13.4054 13.1841 12.4259 13.1451 11.5829H15.6786L15.8121 12.8864H15.8706C16.2546 12.2744 17.1951 11.3714 18.7686 11.3714C20.6871 11.3714 22.1256 12.6569 22.1256 15.4199V20.9684Z" fill="#717174"/>
</svg>
