<svg width="16" height="16" viewBox="0 0 16 16" fill="none" xmlns="http://www.w3.org/2000/svg">
<path d="M7.99978 7.55554C8.6151 7.55554 9.2166 7.37307 9.72822 7.03122C10.2398 6.68937 10.6386 6.20348 10.8741 5.635C11.1095 5.06652 11.1712 4.44097 11.0511 3.83748C10.9311 3.23398 10.6348 2.67963 10.1997 2.24454C9.76457 1.80944 9.21023 1.51314 8.60673 1.39309C8.00323 1.27305 7.37769 1.33466 6.80921 1.57013C6.24073 1.80561 5.75484 2.20437 5.41299 2.71598C5.07114 3.2276 4.88867 3.82911 4.88867 4.44443C4.88867 5.26954 5.21645 6.06087 5.7999 6.64431C6.38334 7.22776 7.17466 7.55554 7.99978 7.55554ZM7.99978 2.2222C8.4393 2.2222 8.86894 2.35253 9.23438 2.59672C9.59983 2.8409 9.88465 3.18796 10.0528 3.59402C10.221 4.00008 10.2651 4.44689 10.1793 4.87796C10.0936 5.30903 9.88191 5.70499 9.57113 6.01577C9.26035 6.32656 8.86439 6.5382 8.43332 6.62395C8.00225 6.70969 7.55543 6.66569 7.14938 6.49749C6.74332 6.3293 6.39625 6.04447 6.15207 5.67903C5.90789 5.31358 5.77756 4.88394 5.77756 4.44443C5.77756 3.85506 6.01169 3.28982 6.42843 2.87308C6.84518 2.45633 7.41041 2.2222 7.99978 2.2222Z" fill="#868C96"/>
<path d="M13.5427 10.8311C12.8299 10.0778 11.971 9.47773 11.0185 9.06764C10.0659 8.65755 9.03973 8.44604 8.00266 8.44604C6.96559 8.44604 5.93941 8.65755 4.98686 9.06764C4.03431 9.47773 3.17541 10.0778 2.46266 10.8311C2.30813 10.9962 2.22231 11.2139 2.22266 11.44V13.7778C2.22266 14.0135 2.31631 14.2396 2.48301 14.4063C2.64971 14.573 2.8758 14.6667 3.11155 14.6667H12.8893C13.1251 14.6667 13.3512 14.573 13.5179 14.4063C13.6846 14.2396 13.7782 14.0135 13.7782 13.7778V11.44C13.7798 11.2145 13.6956 10.9968 13.5427 10.8311ZM12.8893 13.7778H3.11155V11.4355C3.74143 10.7723 4.49967 10.2441 5.34015 9.88323C6.18062 9.52232 7.08575 9.33621 8.00044 9.33621C8.91512 9.33621 9.82025 9.52232 10.6607 9.88323C11.5012 10.2441 12.2594 10.7723 12.8893 11.4355V13.7778Z" fill="#868C96"/>
</svg>
