<svg width="16" height="16" viewBox="0 0 16 16" fill="none" xmlns="http://www.w3.org/2000/svg">
<path fill-rule="evenodd" clip-rule="evenodd" d="M2.16667 2.66669C2.12246 2.66669 2.08007 2.68425 2.04882 2.7155C2.01756 2.74676 2 2.78915 2 2.83335V11.1667C2 11.2587 2.07467 11.3334 2.16667 11.3334H3.83333C3.96594 11.3334 4.09312 11.386 4.18689 11.4798C4.28066 11.5736 4.33333 11.7007 4.33333 11.8334V13.96L6.81333 11.48C6.90701 11.3862 7.0341 11.3335 7.16667 11.3334H13.8333C13.8775 11.3334 13.9199 11.3158 13.9512 11.2845C13.9824 11.2533 14 11.2109 14 11.1667V2.83335C14 2.78915 13.9824 2.74676 13.9512 2.7155C13.9199 2.68425 13.8775 2.66669 13.8333 2.66669H2.16667ZM1 2.83335C1 2.18935 1.52267 1.66669 2.16667 1.66669H13.8333C14.4773 1.66669 15 2.18935 15 2.83335V11.1667C15 11.4761 14.8771 11.7729 14.6583 11.9916C14.4395 12.2104 14.1428 12.3334 13.8333 12.3334H7.37333L4.99133 14.7154C4.85549 14.8511 4.68245 14.9436 4.49407 14.981C4.3057 15.0185 4.11045 14.9993 3.933 14.9258C3.75555 14.8523 3.60388 14.7278 3.49714 14.5682C3.3904 14.4085 3.3334 14.2207 3.33333 14.0287V12.3334H2.16667C1.85725 12.3334 1.5605 12.2104 1.34171 11.9916C1.12292 11.7729 1 11.4761 1 11.1667V2.83335Z" fill="#868C96"/>
</svg>
