<svg width="16" height="16" viewBox="0 0 16 16" fill="none" xmlns="http://www.w3.org/2000/svg">
<path fill-rule="evenodd" clip-rule="evenodd" d="M6.4714 2.19526C6.73175 2.45561 6.73175 2.87772 6.4714 3.13807L3.60948 6L6.4714 8.86193C6.73175 9.12228 6.73175 9.54439 6.4714 9.80474C6.21105 10.0651 5.78894 10.0651 5.5286 9.80474L2.19526 6.4714C1.93491 6.21106 1.93491 5.78894 2.19526 5.5286L5.5286 2.19526C5.78894 1.93491 6.21105 1.93491 6.4714 2.19526Z" fill="#121218"/>
<path fill-rule="evenodd" clip-rule="evenodd" d="M2 5.99992C2 5.63173 2.29848 5.33325 2.66667 5.33325H10.6667C11.5507 5.33325 12.3986 5.68444 13.0237 6.30956C13.6488 6.93468 14 7.78253 14 8.66658V13.3333C14 13.7014 13.7015 13.9999 13.3333 13.9999C12.9651 13.9999 12.6667 13.7014 12.6667 13.3333V8.66658C12.6667 8.13615 12.456 7.62744 12.0809 7.25237C11.7058 6.8773 11.1971 6.66659 10.6667 6.66659H2.66667C2.29848 6.66659 2 6.36811 2 5.99992Z" fill="#121218"/>
</svg>
