<svg width="20" height="20" viewBox="0 0 20 20" fill="none" xmlns="http://www.w3.org/2000/svg">
<path fill-rule="evenodd" clip-rule="evenodd" d="M18.864 1.13636C19.1569 1.42925 19.1569 1.90412 18.864 2.19702L9.69732 11.3637C9.40443 11.6566 8.92956 11.6566 8.63666 11.3637C8.34377 11.0708 8.34377 10.5959 8.63666 10.303L17.8033 1.13636C18.0962 0.843464 18.5711 0.843464 18.864 1.13636Z" fill="#868C96"/>
<path fill-rule="evenodd" clip-rule="evenodd" d="M18.864 1.13632C19.0677 1.34005 19.1367 1.64247 19.0416 1.91441L13.2082 18.5811C13.1066 18.8713 12.8382 19.0702 12.5309 19.0827C12.2236 19.0952 11.9399 18.9189 11.815 18.6379L8.59879 11.4015L1.36239 8.18534C1.08138 8.06045 0.905084 7.77667 0.917619 7.46941C0.930155 7.16215 1.12898 6.89368 1.41923 6.79209L18.0859 0.958753C18.3578 0.863574 18.6603 0.932588 18.864 1.13632ZM3.7003 7.58293L9.4716 10.148C9.64127 10.2234 9.77694 10.359 9.85235 10.5287L12.4174 16.3L17.1112 2.88912L3.7003 7.58293Z" fill="#868C96"/>
</svg>
