<svg width="38" height="38" fill="none" xmlns="http://www.w3.org/2000/svg"><g opacity=".4" filter="url(#a)"><path d="M19 0C10.716 0 4 6.716 4 15c0 8.284 6.716 15 15 15 8.284 0 15-6.716 15-15 0-8.284-6.716-15-15-15zm6.102 12.287c.006.129.007.257.007.382 0 3.906-2.97 8.408-8.404 8.408a8.336 8.336 0 0 1-4.528-1.329c.23.029.465.04.704.04 1.385 0 2.658-.47 3.669-1.265a2.961 2.961 0 0 1-2.76-2.05c.443.085.899.067 1.333-.051a2.956 2.956 0 0 1-2.37-2.897v-.036c.399.22.855.355 1.34.37a2.953 2.953 0 0 1-.915-3.947 8.4 8.4 0 0 0 6.09 3.09 2.954 2.954 0 0 1 5.034-2.696 5.933 5.933 0 0 0 1.875-.717 2.969 2.969 0 0 1-1.299 1.636 5.934 5.934 0 0 0 1.697-.467 5.991 5.991 0 0 1-1.473 1.53z" fill="#fff"/></g><defs><filter id="a" x="0" y="0" width="38" height="38" filterUnits="userSpaceOnUse" color-interpolation-filters="sRGB"><feFlood flood-opacity="0" result="BackgroundImageFix"/><feColorMatrix in="SourceAlpha" values="0 0 0 0 0 0 0 0 0 0 0 0 0 0 0 0 0 0 127 0" result="hardAlpha"/><feOffset dy="4"/><feGaussianBlur stdDeviation="2"/><feComposite in2="hardAlpha" operator="out"/><feColorMatrix values="0 0 0 0 0 0 0 0 0 0 0 0 0 0 0 0 0 0 0.25 0"/><feBlend in2="BackgroundImageFix" result="effect1_dropShadow"/><feBlend in="SourceGraphic" in2="effect1_dropShadow" result="shape"/></filter></defs></svg>