<svg width="20" height="20" fill="none" xmlns="http://www.w3.org/2000/svg"><path d="M16.914 20a.781.781 0 0 1-.781-.781 5.553 5.553 0 0 0-5.547-5.547H9.414a5.553 5.553 0 0 0-5.547 5.547.781.781 0 0 1-1.562 0c0-3.92 3.189-7.11 7.11-7.11h1.17c3.921 0 7.11 3.19 7.11 7.11 0 .431-.35.781-.78.781zM9.922 10.547a5.28 5.28 0 0 1-5.274-5.274A5.28 5.28 0 0 1 9.922 0a5.28 5.28 0 0 1 5.273 5.273 5.28 5.28 0 0 1-5.273 5.274zm0-8.985A3.715 3.715 0 0 0 6.21 5.274a3.715 3.715 0 0 0 3.71 3.711 3.715 3.715 0 0 0 3.712-3.71 3.715 3.715 0 0 0-3.711-3.712z" fill="#121218"/></svg>