<svg width="398" height="743" viewBox="0 0 398 743" fill="none" xmlns="http://www.w3.org/2000/svg">
<circle opacity="0.5" cx="363.5" cy="226.5" r="15.5" fill="#D2DFE6"/>
<path opacity="0.5" d="M295 289C289.4 269.8 230 238.333 201 225C194.334 246.333 182.6 295.6 189 322C197 355 244 358 262 368C276.4 376 272.667 401.333 269 413C280 379.667 300.6 308.2 295 289Z" fill="#D2DFE6"/>
<path opacity="0.5" d="M119 271C121.4 275 101.334 304 91.0003 318C81.3337 328.667 60.2003 350.4 53.0003 352C44.0003 354 39 353 33.0003 343C28.2006 335 44.3338 319.667 53.0003 313C46.3337 314.667 30.0003 317 17.9999 313C2.99954 308 10.0003 308 9.00033 295C8.00033 282 18.0003 288 33.0003 283C45.0003 279 51.3337 289.333 53.0003 295V278C53.0003 271.6 59.0003 264.667 62.0003 262C64.667 267.333 71.6003 278 78.0003 278C86.0003 278 91.0003 265 106 262C121 259 116 266 119 271Z" fill="#D2DFE6"/>
<path opacity="0.5" d="M217 148C211 130 198 121 217 112C236 103 241.999 79 250.999 98C253.59 103.471 257.176 107.946 260.612 112C258.074 107.333 256.799 99.4 271.999 105C290.999 112 302.999 124 302.999 136C302.999 148 299.999 167 291.999 171C283.999 175 271.387 182 265.999 182C260.612 182 263.999 185 271.999 198C279.999 211 283.387 238 271.999 239C260.612 240 248.999 247 232.999 234C217 221 210 214 217 203C222.599 194.2 225.999 182 226.999 177C221.999 190.667 209.999 216 201.999 208C191.999 198 180.999 183 171.999 177C162.999 171 122.999 160 156.999 148C190.999 136 180 136 195 148C207 157.6 214.666 152 217 148Z" fill="#D2DFE6"/>
<ellipse opacity="0.5" cx="314.5" cy="486" rx="47.5" ry="25" fill="#D2DFE6"/>
<path d="M202.253 234.145C201.169 242.997 204.528 267.098 213.628 292.681C225.003 324.659 240.712 337.125 257.504 356.095C270.938 371.271 274.476 377.956 273.212 389.157M202.253 234.145C203.516 237.939 222.295 244.876 241.796 253.115C266.171 263.413 265.629 275.337 286.213 313.277C302.68 343.629 285.31 370.006 273.212 389.157M202.253 234.145C214.35 243.539 236.486 274.253 241.796 305.689C247.106 337.125 275.921 336.041 275.38 356.095C274.946 372.138 274.657 378.317 273.212 389.157" stroke="#868C96"/>
<path d="M312.583 312.694L312.083 312.698L312.583 312.694ZM297.914 360.16L298.333 360.432L297.914 360.16ZM292.673 426.17L292.372 425.771L292.673 426.17ZM308.679 409.476L309.15 409.306L308.679 409.476ZM310.253 421.128L310.179 421.623L310.253 421.128ZM338.914 416.185L339.013 416.675L338.914 416.185ZM346.029 433.921L345.75 433.506L346.029 433.921ZM315.201 436.903L315.549 437.262L315.201 436.903ZM318.48 457.771L318.271 458.225L318.48 457.771ZM340.922 460.159L340.673 460.593L340.922 460.159ZM331.643 476.742L331.725 476.248L331.643 476.742ZM300.793 476.742L300.908 477.228C300.896 477.231 300.884 477.233 300.872 477.235L300.793 476.742ZM269.962 494.305L270.301 493.938L269.962 494.305ZM292.673 266.665L293.013 266.299L292.673 266.665ZM198.461 220.594L198.006 220.387C198.072 220.242 198.204 220.136 198.361 220.104C198.518 220.073 198.681 220.118 198.799 220.226L198.461 220.594ZM183.835 289.971L184.334 289.932L183.835 289.971ZM260.071 369.645L260.117 370.143L260.071 369.645ZM262.379 486.175L261.949 486.431L262.379 486.175ZM313.083 312.691C313.165 324.605 312.153 332.428 309.767 339.345C307.385 346.254 303.643 352.226 298.333 360.432L297.494 359.888C302.811 351.67 306.486 345.795 308.822 339.019C311.156 332.252 312.165 324.555 312.083 312.698L313.083 312.691ZM298.333 360.432C293.095 368.528 286.458 378.868 281.131 388.467C278.467 393.266 276.137 397.871 274.473 401.91C272.803 405.964 271.83 409.393 271.83 411.861H270.83C270.83 409.185 271.871 405.603 273.549 401.529C275.233 397.44 277.584 392.797 280.257 387.981C285.602 378.349 292.257 367.982 297.494 359.888L298.333 360.432ZM271.83 411.861C271.83 425.677 285.641 430.848 292.372 425.771L292.974 426.57C285.476 432.225 270.83 426.362 270.83 411.861H271.83ZM292.372 425.771C294.303 424.314 296.407 422.898 298.425 421.516C300.45 420.129 302.389 418.776 304.02 417.428C305.656 416.076 306.948 414.758 307.706 413.452C308.455 412.162 308.668 410.915 308.209 409.646L309.15 409.306C309.734 410.921 309.428 412.478 308.571 413.954C307.723 415.414 306.323 416.823 304.657 418.199C302.986 419.579 301.013 420.956 298.99 422.341C296.961 423.731 294.882 425.13 292.974 426.57L292.372 425.771ZM308.209 409.646C306.005 403.55 296.751 402.672 293.117 409.705L292.228 409.246C296.211 401.538 306.611 402.285 309.15 409.306L308.209 409.646ZM293.117 409.705C292.675 410.56 292.517 411.327 292.564 412.019C292.61 412.71 292.863 413.361 293.297 413.98C294.176 415.232 295.779 416.32 297.776 417.241C301.759 419.079 307.048 420.141 310.328 420.634L310.179 421.623C306.877 421.127 301.473 420.048 297.357 418.149C295.306 417.203 293.51 416.023 292.478 414.554C291.957 413.812 291.626 412.988 291.566 412.085C291.505 411.183 291.718 410.235 292.228 409.246L293.117 409.705ZM310.328 420.634C315.372 421.392 320.405 420.586 325.233 419.369C327.647 418.761 329.996 418.053 332.272 417.39C334.541 416.728 336.736 416.111 338.816 415.695L339.013 416.675C336.979 417.083 334.821 417.688 332.551 418.35C330.288 419.01 327.914 419.724 325.477 420.339C320.602 421.568 315.418 422.41 310.179 421.623L310.328 420.634ZM338.816 415.695C341.569 415.143 343.856 415.76 345.614 417.09C347.36 418.41 348.551 420.406 349.195 422.571C349.838 424.736 349.945 427.106 349.485 429.214C349.026 431.319 347.99 433.208 346.307 434.337L345.75 433.506C347.156 432.563 348.085 430.938 348.508 429.001C348.93 427.067 348.835 424.868 348.236 422.856C347.638 420.842 346.547 419.049 345.011 417.888C343.489 416.736 341.495 416.178 339.013 416.675L338.816 415.695ZM346.307 434.337C344.411 435.608 341.789 436.097 338.926 436.228C336.052 436.36 332.852 436.134 329.758 435.911C326.647 435.686 323.648 435.466 321.12 435.595C318.567 435.724 316.638 436.207 315.549 437.262L314.853 436.543C316.226 435.213 318.492 434.727 321.069 434.596C323.672 434.464 326.739 434.69 329.83 434.913C332.937 435.137 336.076 435.358 338.88 435.229C341.695 435.1 344.089 434.62 345.75 433.506L346.307 434.337ZM315.549 437.262C312.97 439.759 312.222 444.059 312.933 448.168C313.645 452.285 315.781 455.979 318.689 457.317L318.271 458.225C314.935 456.691 312.687 452.609 311.948 448.339C311.207 444.062 311.941 439.363 314.853 436.543L315.549 437.262ZM318.689 457.317C322.449 459.046 325.315 458.213 328.702 457.611C330.389 457.311 332.191 457.076 334.234 457.302C336.281 457.529 338.545 458.216 341.171 459.726L340.673 460.593C338.154 459.145 336.021 458.507 334.124 458.296C332.223 458.086 330.532 458.301 328.877 458.595C325.582 459.181 322.372 460.112 318.271 458.225L318.689 457.317ZM341.171 459.726C343.512 461.071 351.221 465.312 358.265 469.457C361.79 471.532 365.164 473.591 367.634 475.263C368.866 476.098 369.888 476.846 370.592 477.456C370.942 477.76 371.231 478.044 371.43 478.3C371.529 478.428 371.618 478.564 371.679 478.705C371.737 478.842 371.787 479.026 371.747 479.227L370.766 479.031C370.752 479.104 370.775 479.135 370.759 479.098C370.745 479.064 370.71 479.003 370.64 478.913C370.501 478.734 370.268 478.499 369.937 478.212C369.278 477.641 368.296 476.92 367.073 476.091C364.63 474.437 361.279 472.391 357.758 470.319C350.712 466.172 343.048 461.958 340.673 460.593L341.171 459.726ZM371.747 479.227C371.668 479.62 371.432 479.961 371.137 480.247C370.839 480.536 370.451 480.799 370.009 481.036C369.124 481.511 367.958 481.914 366.682 482.207C364.137 482.793 361.036 482.969 358.666 482.322L358.929 481.357C361.084 481.946 364.006 481.797 366.457 481.233C367.679 480.952 368.754 480.575 369.536 480.155C369.928 479.945 370.23 479.733 370.44 479.529C370.653 479.323 370.742 479.154 370.766 479.031L371.747 479.227ZM358.666 482.322C354.173 481.094 334.531 477.731 331.56 477.235L331.725 476.248C334.662 476.739 354.373 480.113 358.929 481.357L358.666 482.322ZM331.56 477.235C329.131 476.829 323.198 476.418 316.981 476.315C310.753 476.212 304.335 476.421 300.908 477.228L300.678 476.255C304.244 475.415 310.782 475.212 316.997 475.315C323.223 475.418 329.218 475.83 331.725 476.248L331.56 477.235ZM308.422 484.069C317.836 484.069 342.195 483.656 349.617 484.069L349.561 485.068C342.176 484.657 317.891 485.069 308.422 485.069V484.069ZM349.617 484.069C353.34 484.277 358.574 484.876 362.986 485.735C365.191 486.164 367.208 486.661 368.735 487.213C369.497 487.489 370.156 487.785 370.66 488.103C371.147 488.411 371.572 488.791 371.731 489.27L370.782 489.585C370.735 489.446 370.56 489.223 370.126 488.948C369.708 488.684 369.124 488.417 368.395 488.154C366.939 487.627 364.979 487.142 362.795 486.716C358.431 485.867 353.243 485.273 349.561 485.068L349.617 484.069ZM371.731 489.27C371.802 489.483 371.772 489.692 371.717 489.86C371.662 490.029 371.57 490.196 371.461 490.355C371.244 490.672 370.912 491.029 370.496 491.413C369.658 492.185 368.407 493.133 366.83 494.189C363.672 496.302 359.157 498.879 353.91 501.375C343.431 506.361 329.95 511.065 318.48 511.065V510.065C329.727 510.065 343.045 505.437 353.481 500.472C358.691 497.993 363.163 495.439 366.274 493.357C367.831 492.315 369.035 491.4 369.818 490.678C370.211 490.315 370.481 490.017 370.636 489.79C370.714 489.676 370.751 489.597 370.766 489.551C370.782 489.504 370.762 489.527 370.782 489.585L371.731 489.27ZM318.48 511.065C300.743 511.065 285.218 509.047 269.623 494.673L270.301 493.938C285.624 508.062 300.843 510.065 318.48 510.065V511.065ZM312.083 312.698C311.93 290.596 303.489 277.418 292.332 267.031L293.013 266.299C304.336 276.84 312.928 290.268 313.083 312.691L312.083 312.698ZM292.332 267.031C288.115 263.104 282.186 260.119 275.105 257.387C268.021 254.653 259.856 252.198 251.162 249.293C233.804 243.494 214.455 235.943 198.123 220.963L198.799 220.226C214.967 235.056 234.145 242.554 251.479 248.345C260.131 251.235 268.353 253.709 275.465 256.454C282.578 259.199 288.652 262.239 293.013 266.299L292.332 267.031ZM198.916 220.802C196.134 226.915 192.053 238.707 188.885 251.733C185.715 264.765 183.473 278.972 184.334 289.932L183.337 290.01C182.464 278.889 184.736 264.557 187.913 251.496C191.092 238.429 195.19 226.573 198.006 220.387L198.916 220.802ZM184.334 289.932C185.409 303.632 192.549 324.544 205.342 341.483C218.13 358.415 236.497 371.294 260.026 369.147L260.117 370.143C236.118 372.332 217.451 359.175 204.544 342.086C191.643 325.004 184.428 303.911 183.337 290.01L184.334 289.932ZM260.026 369.147C262.126 368.956 263.836 369.292 265.21 370.093C266.584 370.894 267.573 372.132 268.282 373.658C269.688 376.683 270.035 380.94 270.064 385.529C270.079 387.834 270.013 390.248 269.952 392.658C269.891 395.071 269.835 397.482 269.868 399.799C269.935 404.451 270.364 408.642 271.783 411.647L270.878 412.074C269.36 408.857 268.935 404.474 268.868 399.814C268.835 397.474 268.891 395.044 268.952 392.632C269.014 390.217 269.079 387.821 269.064 385.535C269.035 380.942 268.68 376.886 267.375 374.079C266.729 372.689 265.862 371.631 264.706 370.957C263.552 370.283 262.06 369.966 260.117 370.143L260.026 369.147ZM300.793 476.742C300.872 477.235 300.872 477.235 300.871 477.235C300.871 477.235 300.87 477.236 300.87 477.236C300.868 477.236 300.867 477.236 300.864 477.237C300.859 477.237 300.851 477.239 300.841 477.24C300.821 477.243 300.791 477.248 300.752 477.254C300.673 477.267 300.556 477.285 300.404 477.309C300.099 477.357 299.654 477.426 299.088 477.513C297.958 477.687 296.349 477.93 294.434 478.208C290.604 478.765 285.549 479.463 280.65 480.028C275.757 480.593 271 481.028 267.775 481.052C266.186 481.064 264.891 480.979 264.143 480.722C263.95 480.655 263.761 480.567 263.607 480.442C263.448 480.314 263.305 480.128 263.268 479.877C263.231 479.631 263.31 479.41 263.419 479.234C263.527 479.06 263.683 478.898 263.862 478.747L264.506 479.512C264.37 479.626 264.301 479.71 264.27 479.76C264.24 479.809 264.266 479.791 264.257 479.731C264.247 479.666 264.212 479.645 264.236 479.665C264.265 479.688 264.334 479.73 264.469 479.776C265.032 479.97 266.162 480.064 267.768 480.052C270.934 480.028 275.644 479.599 280.535 479.035C285.421 478.471 290.465 477.775 294.29 477.218C296.202 476.94 297.808 476.698 298.937 476.525C299.501 476.438 299.945 476.369 300.249 476.321C300.401 476.297 300.517 476.279 300.596 476.267C300.635 476.26 300.664 476.256 300.684 476.253C300.694 476.251 300.702 476.25 300.707 476.249C300.709 476.249 300.711 476.248 300.712 476.248C300.713 476.248 300.714 476.248 300.714 476.248C300.714 476.248 300.714 476.248 300.793 476.742ZM263.862 478.747C266.401 476.609 273.14 471.26 280.128 466.442C283.622 464.034 287.189 461.751 290.33 460.069C291.9 459.228 293.373 458.532 294.682 458.045C295.984 457.562 297.161 457.271 298.129 457.271V458.271C297.337 458.271 296.291 458.514 295.031 458.983C293.778 459.448 292.349 460.122 290.802 460.95C287.708 462.607 284.176 464.866 280.696 467.265C273.737 472.063 267.024 477.393 264.506 479.512L263.862 478.747ZM298.129 457.271C301.769 457.271 304.352 458.454 306.624 459.529C308.91 460.612 310.815 461.542 313.245 461.288L313.349 462.283C310.595 462.571 308.437 461.494 306.196 460.433C303.941 459.366 301.531 458.271 298.129 458.271V457.271ZM308.422 485.069C303.663 485.069 291.803 484.789 281.253 484.85C275.988 484.881 271.082 484.996 267.599 485.273C265.852 485.412 264.491 485.589 263.626 485.809C263.182 485.921 262.93 486.031 262.82 486.112C262.768 486.15 262.797 486.146 262.817 486.084C262.844 486 262.816 485.933 262.808 485.919L261.949 486.431C261.84 486.247 261.788 486.018 261.865 485.778C261.935 485.561 262.088 485.408 262.229 485.305C262.504 485.103 262.917 484.957 263.381 484.839C264.332 484.598 265.765 484.416 267.52 484.276C271.042 483.996 275.979 483.881 281.247 483.85C291.764 483.789 303.738 484.069 308.422 484.069V485.069ZM269.623 494.673C266.472 491.769 264.222 490.242 261.949 486.431L262.808 485.919C264.984 489.568 267.068 490.957 270.301 493.938L269.623 494.673Z" fill="#868C96"/>
<path d="M191.764 428.723C191.764 435.227 188.325 463.647 203.139 481.839C212.876 493.796 222.653 505.633 232.569 516.527M191.764 428.723C193.821 419.148 201.398 399.78 215.252 398.913C229.106 398.046 260.748 401.443 274.837 403.249M191.764 428.723C193.454 428.723 200.518 428.723 215.252 428.723C233.669 428.723 229.336 439.021 253.711 436.853C273.212 435.119 275.92 413.728 274.837 403.249M191.764 428.723C199.954 411.199 214.277 372.355 206.044 357.179C195.752 338.209 170.293 334.415 157.292 319.239C146.892 307.098 135.986 295.03 131.833 290.513C128.042 297.92 122.733 320.648 131.833 352.301C140.934 383.954 175.579 416.438 191.764 428.723ZM191.764 428.723C197.065 437.395 201.168 458.642 175.168 474.251C149.167 489.861 117.75 508.939 105.291 516.527C105.111 513.456 104.208 502.977 102.041 485.633C99.8744 468.289 160.954 440.467 191.764 428.723ZM191.764 428.723C183.523 420.232 160.542 403.249 134.542 403.249C108.541 403.249 85.7907 415.535 77.6655 421.677C79.11 420.413 86.6574 421.135 105.291 434.143C128.583 450.403 134.542 450.403 142.667 442.273C149.167 435.769 178.107 430.53 191.764 428.723ZM191.764 428.723C167.634 428.181 116.558 418.208 105.291 382.653C94.0243 347.098 88.6797 321.588 87.4158 313.277M191.764 428.723C174.957 431.975 139.982 425.146 134.542 371.813C129.102 318.48 132.275 291.416 134.542 284.551M191.764 428.723C187.057 431.559 181.225 435.242 175.168 439.315M445.27 338.209C445.27 378.317 450.964 449.801 425.769 481.839C417.633 492.186 408.223 504.496 397.789 516.527M445.27 338.209L397.789 360.431C393.453 353.746 387.382 337.667 397.789 326.827C410.798 313.277 425.424 302.437 442.216 307.857C455.649 312.193 463.702 320.504 466.05 324.117M445.27 338.209L466.05 324.117M397.789 516.527C374.882 542.944 347.037 568.018 316.892 568.018C286.542 568.018 259.061 545.634 232.569 516.527M397.789 516.527C394.536 521.948 389.5 555.073 394.548 592.408C402.682 652.57 423.438 663.591 431.382 682.922M232.569 516.527C234.019 526.826 226.514 571.221 223.377 592.408C214.71 650.944 191.764 675.334 154.584 698.098C133.512 711 96.2632 732.063 79.2906 742M274.837 403.249C296.323 382.1 337.78 335.903 331.713 320.306C324.13 300.811 278.283 248.779 297.587 207.587C316.892 166.395 325.755 176.151 340.38 142.005C352.08 114.688 356.45 97.7411 357.172 92.6824C371.797 107.136 402.673 142.763 409.173 169.647C417.298 203.251 414.59 236.313 407.007 265.039C399.423 293.765 399.423 333.331 381.548 346.881C367.247 357.721 304.449 388.976 274.837 403.249ZM274.837 403.249C300.837 384.098 353.705 342.003 357.172 326.827C360.639 311.651 358.617 296.294 357.172 290.513M87.4158 313.277C85.4296 305.87 81.674 288.995 82.5406 280.757C83.4073 272.518 98.0688 253.476 105.291 244.985C111.069 249.14 120.892 261.353 113.958 276.963C107.025 292.572 93.3742 307.676 87.4158 313.277ZM87.4158 313.277C88.4991 322.672 84.599 342.003 60.3318 344.171C36.0646 346.339 18.0808 341.1 12.1223 338.209C14.1085 332.608 22.7392 319.781 41.373 313.277C60.0068 306.773 79.8323 310.567 87.4158 313.277ZM87.4158 313.277C82.5406 310.748 71.9237 303.196 68.457 293.223C64.1236 280.757 72.7904 273.169 68.457 259.077C64.9902 247.803 64.4847 235.229 64.6652 230.351C72.2487 229.989 87.4158 233.276 87.4158 249.321C87.4158 263.611 87.4158 291.574 87.4158 307.857M87.4158 313.277C87.4158 311.677 87.4158 309.855 87.4158 307.857M87.4158 313.277C78.3878 305.689 58.8151 288.562 52.7483 280.757C46.6815 272.952 48.4149 256.547 50.0399 249.321C56.1789 252.573 69.8654 262.112 75.4988 274.253C81.1323 286.394 85.7907 301.714 87.4158 307.857M87.4158 313.277C84.7074 301.172 75.4988 275.662 60.3318 270.459C45.1648 265.256 15.9141 270.459 15.9141 270.459C15.9141 270.459 16.8891 286.936 31.6228 298.643C50.0399 313.277 51.6649 325.201 64.6652 319.239C75.0655 314.469 84.1657 313.277 87.4158 313.277ZM87.4158 313.277C82.7212 307.496 67.5903 295.391 44.6231 293.223C21.6559 291.055 5.80274 292.32 0.74707 293.223C4.89995 302.076 16.8891 320.215 31.6228 321.949C46.3565 323.683 74.9571 316.89 87.4158 313.277ZM134.542 284.551C126.778 279.131 111.791 264.497 113.958 249.321C116.666 230.351 121 202.167 131.833 207.587C142.667 213.007 161.084 220.053 157.292 230.351C153.501 240.649 150.792 247.695 142.667 259.077C136.167 268.182 134.542 279.854 134.542 284.551ZM134.542 284.551C135.625 289.248 140.934 295.825 153.501 284.551C169.209 270.459 189.251 260.161 184.376 249.321C179.501 238.481 160.542 241.733 153.501 254.199C147.867 264.172 138.514 278.589 134.542 284.551ZM134.542 284.551C139.417 290.513 151.767 303.521 162.168 307.857C175.168 313.277 203.877 287.824 180.585 284.551C161.951 281.933 142.125 283.46 134.542 284.551ZM134.542 284.551C149.824 280.757 182.664 270.35 191.764 259.077C203.139 244.985 193.043 217.885 175.168 215.717C160.867 213.982 157.292 232.338 157.292 241.733C166.501 234.325 181.018 217.126 165.418 207.587C157.033 202.459 149.349 198.234 142.667 195.988M134.542 284.551C127.701 274.976 113.248 253.009 110.166 241.733C106.315 227.638 105.291 190.785 110.166 186.449C114.066 182.98 133.459 191.363 142.667 195.988M142.667 195.988C133.81 193.011 126.715 193.511 122.083 199.999C113.958 211.381 109.625 236.855 122.083 230.351C134.542 223.847 156.751 215.825 142.667 195.988ZM466.05 324.117C458.466 305.508 444.816 264.497 450.883 249.321M466.05 324.117C472.911 313.819 488.908 291.489 498.009 284.551C509.384 275.879 513.717 270.459 507.217 224.389C502.017 187.533 502.884 187.352 503.967 191.869C488.8 204.696 456.949 234.145 450.883 249.321M466.05 324.117C466.034 322.981 466.033 321.705 466.05 320.306M466.05 324.117C449.98 312.143 417.732 283.022 417.298 262.329C416.865 241.636 429.035 232.388 435.174 230.351C434.993 235.229 434.741 251.38 435.174 276.963C435.607 302.545 455.938 316.518 466.05 320.306M450.883 249.321C448.535 238.842 440.807 214.308 428.674 199.999C413.507 182.113 422.174 126.286 428.674 113.82C433.874 103.848 441.904 86.1784 445.27 78.5903C448.766 85.275 457.816 101.029 466.05 110.568C476.342 122.492 492.592 140.921 487.175 162.059C482.842 178.969 461.174 227.279 450.883 249.321ZM450.883 249.321C452.996 237.461 456.016 218.358 458.131 199.999M469.03 284.551C470.613 274.203 472.952 263.524 476.342 254.199C487.175 224.389 505.051 228.183 492.592 249.321C482.625 266.231 472.731 279.854 469.03 284.551ZM469.03 284.551C466.91 298.416 466.15 311.686 466.05 320.306M466.05 320.306C458.469 312.543 438.756 297.776 420.549 300.811C402.341 303.846 382.267 304.966 374.506 305.147C376.196 298.282 384.196 284.551 402.673 284.551C421.15 284.551 452.623 308.388 466.05 320.306ZM458.131 199.999C460.171 182.28 461.368 165.253 460.091 156.097C456.841 132.79 436.257 94.8504 442.216 131.164C446.982 160.216 454.812 189.159 458.131 199.999ZM175.168 439.315C156.908 451.592 136.598 467.414 138.875 474.251C142.667 485.633 141.584 489.969 153.501 474.251C163.034 461.677 171.918 445.721 175.168 439.315ZM357.172 290.513C364.936 289.248 381.439 283.467 385.339 270.459C390.215 254.199 379.923 245.527 374.506 237.939C372.965 235.78 371.555 233.051 370.14 230.351M357.172 290.513C353.741 285.635 346.88 273.711 346.88 265.039C346.88 256.367 353.741 240.468 357.172 233.603M357.172 233.603C352.012 234 350.051 228.867 352.57 224.389M357.172 233.603C360.061 233.422 362.047 236.313 346.88 249.321C327.921 265.581 308.421 288.345 306.254 265.039C304.087 241.733 291.087 229.809 312.754 227.099C330.088 224.931 346.52 224.389 352.57 224.389M357.172 233.603C359.586 233.417 364.671 228.902 370.14 222.676M352.57 224.389C353.488 222.756 355.001 221.211 357.172 220.053C362.986 216.95 366.581 223.56 370.14 230.351M352.57 224.389C343.631 222.943 323.155 219.186 312.754 215.717C299.754 211.381 311.129 191.869 321.963 179.945C332.796 168.021 331.713 176.693 337.13 186.449C342.547 196.205 359.442 219.3 357.172 211.923C354.902 204.545 348.505 195.988 357.172 179.945C365.839 163.901 385.339 177.235 389.673 186.449C392.521 192.505 380.627 210.736 370.14 222.676M370.14 230.351C374.298 236.674 385.649 249.321 397.789 249.321C409.93 249.321 425.769 227.099 425.769 227.099C425.769 227.099 420.549 207.587 407.007 202.709C390.676 196.826 375.206 215.65 370.14 222.676" stroke="#868C96"/>
<path d="M216.113 154.606C211.532 151.008 200.5 149.01 193.019 169.804C189.906 178.456 187.755 186.177 186.301 192.611M216.113 154.606C212.716 150.229 207.105 136.931 211.834 118.763C216.563 100.594 241.089 99.0021 249.365 96.0996M216.113 154.606C216.374 143.414 211.151 122.671 188.177 129.244M183.581 211.113C187.899 212.511 199.877 212.801 213.243 202.785M183.581 211.113C187.815 206.461 199.001 192.624 209.864 174.487C220.728 156.351 225.2 161.174 226.078 165.852C228.409 163.979 232.688 157.026 231.157 144.198C229.625 131.37 229.317 128.791 229.355 129.106C232.466 128.415 239.928 124.589 244.892 114.812C249.856 105.034 250.422 96.93 249.365 96.0996M183.581 211.113C183.598 208.132 184.262 201.638 186.301 192.611M213.243 202.785C226.608 192.768 233.607 183.449 235.435 180.041C237.423 183.312 244.606 193.085 256.218 197.648C262.752 200.216 270.083 197.426 283.328 192.016M213.243 202.785C210.949 204.972 209.956 212.17 224.333 223.463C238.71 234.756 258.985 243.558 267.325 246.548M283.328 192.016C296.573 186.606 300.021 185.472 296.673 179.419C292.884 172.568 290.297 169.385 287.578 167.432M283.328 192.016C284.007 193.689 284.746 199.883 282.274 211.276C279.802 222.669 271.278 239.538 267.325 246.548M249.365 96.0996C251.526 98.4944 254.62 102.387 257.659 107.067M251.423 169.52C253.613 171.81 259.494 177.74 265.504 183.144M188.177 129.244C165.203 135.817 151.216 148.65 147.094 154.245M188.177 129.244C180.452 128.732 175.21 116.921 169.102 101.866C164.215 89.8214 154.409 81.7772 151.928 82.3926C151.59 79.5629 152.237 73.7454 157.526 73.1132C162.816 72.481 169.68 75.1685 172.451 76.5912M188.177 129.244C192.084 129.503 196.082 128.466 199.551 128.221M147.094 154.245C146.374 156.245 148.508 162.878 162.794 173.416C177.081 183.954 184.419 190.603 186.301 192.611M147.094 154.245C146.756 151.415 173.084 150.469 191.274 155.183M267.325 246.548C264.445 241.152 257.854 227.398 254.523 215.55C251.193 203.702 245.765 199.695 243.467 199.172M287.578 167.432C284.599 165.291 281.464 164.626 276.419 162.227C260.25 154.54 246.984 161.759 243.079 163.82C249.263 162.125 262.715 154.968 267.048 139.908C269.968 129.761 263.933 116.733 257.659 107.067M287.578 167.432C287.46 165.107 288.945 158.817 295.825 152.254C302.706 145.692 307.041 133.852 308.348 128.753M308.348 128.753C303.224 127.293 290.718 123.111 281.685 118.068C272.653 113.024 261.904 108.633 257.659 107.067M308.348 128.753C306.459 128.979 300.882 130.411 293.686 134.332C286.49 138.254 284.076 136.757 283.768 135.518M206.711 75.845L218.123 71.1325C217.49 75.1944 220.59 85.3795 219.162 95.8827C217.376 109.012 212.779 118.65 210.283 121.818C209.049 123.384 202.941 127.98 199.551 128.221M206.711 75.845L215.052 61.4541C214.714 58.6244 211.248 56.073 204.853 60.2815C198.457 64.49 197.009 66.7997 197.196 68.3718C196.353 67.9942 193.109 63.0244 188.233 57.4844C183.356 51.9444 175.356 49.9347 175.356 49.9347C175.356 49.9347 171.782 56.1022 170.762 62.4425C169.742 68.7828 172.245 74.8619 172.451 76.5912M206.711 75.845C205.879 76.9012 203.194 80.0922 199.111 84.4071C195.027 88.722 193.46 95.925 193.187 98.9872M172.451 76.5912C172.945 78.4456 177.377 80.4992 184.943 86.1005C192.509 91.7017 193.075 98.044 193.187 98.9872M193.187 98.9872L194.539 110.306L199.551 128.221M230.18 87.8688C229.748 84.2531 227.662 76.4025 222.768 73.9258C216.65 70.83 212.621 53.1343 210.876 38.514C209.48 26.8178 216.235 12.5208 218.36 8.91836C222.438 10.9821 231.756 18.415 236.4 31.6366C241.044 44.8581 240.911 58.7266 240.265 64.0082M230.18 87.8688L221.895 102.731M230.18 87.8688C232.602 81.9998 236.519 72.65 240.265 64.0082M221.895 102.731C228.589 101.294 244.397 96.2152 254.075 87.4048C263.753 78.5945 284.36 70.9404 284.002 53.2131C283.873 46.8399 279.726 37.4603 279.726 37.4603M221.895 102.731C230.207 93.4465 241.122 77.6824 252.346 62.5642C263.57 47.446 279.726 37.4603 279.726 37.4603M279.726 37.4603C279.726 37.4603 257.719 36.2141 249.007 44.9586C243.228 50.7603 243.798 55.8566 240.265 64.0082" stroke="#868C96"/>
<path d="M339.155 357.248C341.683 348.938 344.68 329.823 336.447 319.85C326.155 307.384 290.946 309.552 307.738 330.69C321.171 347.601 334.28 355.442 339.155 357.248ZM339.155 357.248C337.53 348.938 337.747 329.823 351.614 319.85C368.948 307.384 394.406 328.522 371.114 343.698C352.48 355.839 343.308 354.719 339.155 357.248ZM339.155 357.248C340.239 351.467 346.989 351.878 363.531 353.455C386.281 355.623 372.739 395.189 351.614 380.555C338.221 371.277 335.725 361.765 339.155 357.248ZM339.155 357.248C341.864 362.669 342.547 374.822 333.197 386.517C320.196 402.777 288.779 384.349 299.613 370.257C308.279 358.983 329.586 356.887 339.155 357.248ZM339.155 357.248C333.377 349.48 321.194 337.304 306.654 332.316C287.696 325.812 269.279 357.79 299.613 364.837C323.88 370.473 336.086 359.597 339.155 357.248Z" stroke="#868C96"/>
</svg>
