<svg width="55" height="46" viewBox="0 0 55 46" fill="none" xmlns="http://www.w3.org/2000/svg">
<g filter="url(#filter0_d)">
<mask id="path-1-outside-1" maskUnits="userSpaceOnUse" x="4" y="-7" width="47" height="45" fill="black">
<rect fill="white" x="4" y="-7" width="47" height="45"/>
<path d="M18.7325 27.2833C19.6753 27.2833 20.7437 27.0779 21.9378 26.6669C23.1529 26.256 24.389 25.6397 25.646 24.8179C26.9239 23.9961 28.118 22.9688 29.2284 21.7361C30.192 20.7693 31.1976 19.6816 32.2451 18.473C33.2926 17.2403 34.3506 15.9592 35.419 14.6298C36.5084 13.2763 37.5768 11.9348 38.6243 10.6054C39.6927 9.25183 40.7193 7.97077 41.7039 6.76223C42.6885 5.52951 43.6103 4.42974 44.4693 3.4629C45.5796 2.20601 46.5223 1.32378 47.2975 0.816187C48.0726 0.3086 48.6802 0.0548058 49.1201 0.0548058C49.7067 0.0548058 50 0.465711 50 1.28752C50 2.35104 49.7067 3.52333 49.1201 4.80438C48.5335 6.08544 47.7165 7.40275 46.669 8.75632C45.6215 10.1099 44.4064 11.4514 43.0237 12.7808C41.6411 14.1102 40.1432 15.3671 38.53 16.5514C36.9378 17.7116 35.2828 18.751 33.5649 19.6695C31.8471 20.5638 30.1397 21.2768 28.4427 21.8086C26.7458 22.3162 25.1117 22.57 23.5405 22.57C20.9008 22.57 18.7221 22.1107 17.0042 21.1922C15.2863 20.2737 13.9979 19.0531 13.139 17.5304C12.301 15.9834 11.882 14.2673 11.882 12.382C11.882 10.7383 12.2067 9.22765 12.8561 7.84991C13.5265 6.448 14.4588 5.22737 15.6529 4.18802C16.8471 3.14868 18.2402 2.33895 19.8324 1.75885C21.4455 1.17875 23.1948 0.888701 25.0803 0.888701C27.1124 0.888701 28.736 1.23918 29.9511 1.94013C31.1662 2.64109 32.0461 3.5475 32.5908 4.65936C33.1564 5.74705 33.4392 6.89516 33.4392 8.10371C33.4392 9.21557 33.1774 10.2549 32.6536 11.2218C32.1508 12.1886 31.449 13.0346 30.5482 13.7597C29.6683 14.4848 28.6313 15.0528 27.4371 15.4637C26.264 15.8746 25.007 16.0801 23.6662 16.0801C22.0531 16.0801 20.7437 15.7296 19.7381 15.0287C18.7325 14.3277 18.2297 13.3971 18.2297 12.2369C18.2297 11.1976 18.6278 10.267 19.4239 9.44519C20.2409 8.62338 21.3303 7.97077 22.692 7.48735C24.0747 7.00393 25.625 6.76223 27.3429 6.76223C28.8513 6.76223 30.412 6.95559 32.0251 7.34233C33.6592 7.70489 35.2409 8.22456 36.7703 8.90135C38.2996 9.55396 39.6927 10.3153 40.9497 11.1855C42.2067 12.0556 43.2123 12.9862 43.9665 13.9772L43.8408 14.1223C43.0866 13.1554 42.0915 12.249 40.8554 11.403C39.6194 10.5329 38.2367 9.7715 36.7074 9.11889C35.199 8.4421 33.6383 7.92243 32.0251 7.55986C30.412 7.17313 28.8513 6.97976 27.3429 6.97976C25.6669 6.97976 24.148 7.22147 22.7863 7.70489C21.4455 8.16414 20.3771 8.79258 19.581 9.59022C18.8059 10.3637 18.4183 11.2459 18.4183 12.2369C18.4183 13.3246 18.9001 14.2069 19.8638 14.8836C20.8275 15.5363 22.095 15.8626 23.6662 15.8626C25.4469 15.8626 27.0601 15.5121 28.5056 14.8111C29.9511 14.1102 31.1034 13.1796 31.9623 12.0194C32.8212 10.835 33.2507 9.52979 33.2507 8.10371C33.2507 5.9525 32.5175 4.24845 31.051 2.99157C29.6054 1.73468 27.6152 1.10624 25.0803 1.10624C23.2158 1.10624 21.4874 1.39629 19.8953 1.97639C18.324 2.53232 16.9518 3.31787 15.7786 4.33305C14.6054 5.34823 13.6941 6.54469 13.0447 7.92243C12.3953 9.30017 12.0705 10.7867 12.0705 12.382C12.0705 14.4365 12.5314 16.213 13.4532 17.7116C14.375 19.1861 15.6948 20.3342 17.4127 21.156C19.1306 21.9536 21.1732 22.3524 23.5405 22.3524C25.3631 22.3524 27.2591 22.0141 29.2284 21.3373C31.2186 20.6363 33.1983 19.7057 35.1676 18.5455C37.1369 17.3612 39.0014 16.0318 40.7612 14.5573C42.5209 13.0829 44.0712 11.5601 45.412 9.98904C46.7737 8.41793 47.8422 6.88308 48.6173 5.38449C49.4134 3.86172 49.8115 2.49606 49.8115 1.28752C49.8115 0.610735 49.581 0.272343 49.1201 0.272343C48.7011 0.272343 48.125 0.538223 47.3918 1.06998C46.6795 1.60174 45.7786 2.47189 44.6892 3.68044C43.6208 4.93732 42.5314 6.42383 41.4211 8.13996C40.3317 9.8561 39.2109 11.6447 38.0587 13.5059C36.9064 15.3429 35.7018 17.1436 34.4448 18.9081C33.1878 20.6484 31.868 22.1953 30.4853 23.5489C29.0817 24.9025 27.5419 25.9902 25.8659 26.812C24.2109 27.6338 22.5454 28.0447 20.8694 28.0447C19.4448 28.0447 18.3764 27.9238 17.6641 27.6821C16.9728 27.4646 16.5119 27.1866 16.2814 26.8482C16.051 26.5098 15.9358 26.1835 15.9358 25.8693C15.9358 25.5309 16.0929 25.2046 16.4071 24.8904C16.7423 24.5762 17.2451 24.4191 17.9155 24.4191C19.3401 24.4191 20.7123 24.7091 22.0321 25.2892C23.3729 25.8451 24.6927 26.5582 25.9916 27.4283C27.2905 28.3227 28.5999 29.2653 29.9197 30.2563C31.2395 31.2473 32.5803 32.1779 33.942 33.0481C35.3247 33.9424 36.7598 34.6675 38.2472 35.2234C39.7346 35.8035 41.2954 36.0936 42.9295 36.0936C44.6683 36.0936 46.03 35.7673 47.0147 35.1147C47.9993 34.4621 48.4916 33.5556 48.4916 32.3954C48.4916 31.7912 48.3031 31.1627 47.926 30.5101L48.0831 30.4013C48.523 31.199 48.743 31.9362 48.743 32.613C48.743 33.9424 48.1669 35.0059 47.0147 35.8035C45.8624 36.6012 44.3017 37 42.3324 37C41.3478 37 40.3946 36.8791 39.4728 36.6374C38.551 36.4199 37.5768 36.0332 36.5503 35.4772C35.5237 34.9213 34.3506 34.1599 33.0307 33.1931C31.7109 32.2262 30.1501 30.9935 28.3485 29.4949C26.5049 27.948 24.6613 26.7515 22.8177 25.9056C20.9951 25.0354 19.3715 24.6124 17.9469 24.6366C17.4232 24.6366 16.9832 24.7454 16.6271 24.9629C16.2919 25.1804 16.1243 25.4584 16.1243 25.7968C16.1243 26.256 16.3652 26.6186 16.8471 26.8845C17.3289 27.1504 17.9574 27.2833 18.7325 27.2833Z"/>
</mask>
<path d="M18.7325 27.2833C19.6753 27.2833 20.7437 27.0779 21.9378 26.6669C23.1529 26.256 24.389 25.6397 25.646 24.8179C26.9239 23.9961 28.118 22.9688 29.2284 21.7361C30.192 20.7693 31.1976 19.6816 32.2451 18.473C33.2926 17.2403 34.3506 15.9592 35.419 14.6298C36.5084 13.2763 37.5768 11.9348 38.6243 10.6054C39.6927 9.25183 40.7193 7.97077 41.7039 6.76223C42.6885 5.52951 43.6103 4.42974 44.4693 3.4629C45.5796 2.20601 46.5223 1.32378 47.2975 0.816187C48.0726 0.3086 48.6802 0.0548058 49.1201 0.0548058C49.7067 0.0548058 50 0.465711 50 1.28752C50 2.35104 49.7067 3.52333 49.1201 4.80438C48.5335 6.08544 47.7165 7.40275 46.669 8.75632C45.6215 10.1099 44.4064 11.4514 43.0237 12.7808C41.6411 14.1102 40.1432 15.3671 38.53 16.5514C36.9378 17.7116 35.2828 18.751 33.5649 19.6695C31.8471 20.5638 30.1397 21.2768 28.4427 21.8086C26.7458 22.3162 25.1117 22.57 23.5405 22.57C20.9008 22.57 18.7221 22.1107 17.0042 21.1922C15.2863 20.2737 13.9979 19.0531 13.139 17.5304C12.301 15.9834 11.882 14.2673 11.882 12.382C11.882 10.7383 12.2067 9.22765 12.8561 7.84991C13.5265 6.448 14.4588 5.22737 15.6529 4.18802C16.8471 3.14868 18.2402 2.33895 19.8324 1.75885C21.4455 1.17875 23.1948 0.888701 25.0803 0.888701C27.1124 0.888701 28.736 1.23918 29.9511 1.94013C31.1662 2.64109 32.0461 3.5475 32.5908 4.65936C33.1564 5.74705 33.4392 6.89516 33.4392 8.10371C33.4392 9.21557 33.1774 10.2549 32.6536 11.2218C32.1508 12.1886 31.449 13.0346 30.5482 13.7597C29.6683 14.4848 28.6313 15.0528 27.4371 15.4637C26.264 15.8746 25.007 16.0801 23.6662 16.0801C22.0531 16.0801 20.7437 15.7296 19.7381 15.0287C18.7325 14.3277 18.2297 13.3971 18.2297 12.2369C18.2297 11.1976 18.6278 10.267 19.4239 9.44519C20.2409 8.62338 21.3303 7.97077 22.692 7.48735C24.0747 7.00393 25.625 6.76223 27.3429 6.76223C28.8513 6.76223 30.412 6.95559 32.0251 7.34233C33.6592 7.70489 35.2409 8.22456 36.7703 8.90135C38.2996 9.55396 39.6927 10.3153 40.9497 11.1855C42.2067 12.0556 43.2123 12.9862 43.9665 13.9772L43.8408 14.1223C43.0866 13.1554 42.0915 12.249 40.8554 11.403C39.6194 10.5329 38.2367 9.7715 36.7074 9.11889C35.199 8.4421 33.6383 7.92243 32.0251 7.55986C30.412 7.17313 28.8513 6.97976 27.3429 6.97976C25.6669 6.97976 24.148 7.22147 22.7863 7.70489C21.4455 8.16414 20.3771 8.79258 19.581 9.59022C18.8059 10.3637 18.4183 11.2459 18.4183 12.2369C18.4183 13.3246 18.9001 14.2069 19.8638 14.8836C20.8275 15.5363 22.095 15.8626 23.6662 15.8626C25.4469 15.8626 27.0601 15.5121 28.5056 14.8111C29.9511 14.1102 31.1034 13.1796 31.9623 12.0194C32.8212 10.835 33.2507 9.52979 33.2507 8.10371C33.2507 5.9525 32.5175 4.24845 31.051 2.99157C29.6054 1.73468 27.6152 1.10624 25.0803 1.10624C23.2158 1.10624 21.4874 1.39629 19.8953 1.97639C18.324 2.53232 16.9518 3.31787 15.7786 4.33305C14.6054 5.34823 13.6941 6.54469 13.0447 7.92243C12.3953 9.30017 12.0705 10.7867 12.0705 12.382C12.0705 14.4365 12.5314 16.213 13.4532 17.7116C14.375 19.1861 15.6948 20.3342 17.4127 21.156C19.1306 21.9536 21.1732 22.3524 23.5405 22.3524C25.3631 22.3524 27.2591 22.0141 29.2284 21.3373C31.2186 20.6363 33.1983 19.7057 35.1676 18.5455C37.1369 17.3612 39.0014 16.0318 40.7612 14.5573C42.5209 13.0829 44.0712 11.5601 45.412 9.98904C46.7737 8.41793 47.8422 6.88308 48.6173 5.38449C49.4134 3.86172 49.8115 2.49606 49.8115 1.28752C49.8115 0.610735 49.581 0.272343 49.1201 0.272343C48.7011 0.272343 48.125 0.538223 47.3918 1.06998C46.6795 1.60174 45.7786 2.47189 44.6892 3.68044C43.6208 4.93732 42.5314 6.42383 41.4211 8.13996C40.3317 9.8561 39.2109 11.6447 38.0587 13.5059C36.9064 15.3429 35.7018 17.1436 34.4448 18.9081C33.1878 20.6484 31.868 22.1953 30.4853 23.5489C29.0817 24.9025 27.5419 25.9902 25.8659 26.812C24.2109 27.6338 22.5454 28.0447 20.8694 28.0447C19.4448 28.0447 18.3764 27.9238 17.6641 27.6821C16.9728 27.4646 16.5119 27.1866 16.2814 26.8482C16.051 26.5098 15.9358 26.1835 15.9358 25.8693C15.9358 25.5309 16.0929 25.2046 16.4071 24.8904C16.7423 24.5762 17.2451 24.4191 17.9155 24.4191C19.3401 24.4191 20.7123 24.7091 22.0321 25.2892C23.3729 25.8451 24.6927 26.5582 25.9916 27.4283C27.2905 28.3227 28.5999 29.2653 29.9197 30.2563C31.2395 31.2473 32.5803 32.1779 33.942 33.0481C35.3247 33.9424 36.7598 34.6675 38.2472 35.2234C39.7346 35.8035 41.2954 36.0936 42.9295 36.0936C44.6683 36.0936 46.03 35.7673 47.0147 35.1147C47.9993 34.4621 48.4916 33.5556 48.4916 32.3954C48.4916 31.7912 48.3031 31.1627 47.926 30.5101L48.0831 30.4013C48.523 31.199 48.743 31.9362 48.743 32.613C48.743 33.9424 48.1669 35.0059 47.0147 35.8035C45.8624 36.6012 44.3017 37 42.3324 37C41.3478 37 40.3946 36.8791 39.4728 36.6374C38.551 36.4199 37.5768 36.0332 36.5503 35.4772C35.5237 34.9213 34.3506 34.1599 33.0307 33.1931C31.7109 32.2262 30.1501 30.9935 28.3485 29.4949C26.5049 27.948 24.6613 26.7515 22.8177 25.9056C20.9951 25.0354 19.3715 24.6124 17.9469 24.6366C17.4232 24.6366 16.9832 24.7454 16.6271 24.9629C16.2919 25.1804 16.1243 25.4584 16.1243 25.7968C16.1243 26.256 16.3652 26.6186 16.8471 26.8845C17.3289 27.1504 17.9574 27.2833 18.7325 27.2833Z" fill="#F6F8FC"/>
<path d="M31.6166 28.4072L31.3913 27.9609L31.389 27.962L31.6166 28.4072ZM26.4944 30.3651L26.3681 29.8813L26.362 29.883L26.4944 30.3651ZM14.8045 29.8212L14.6089 30.2814L14.6089 30.2814L14.8045 29.8212ZM9.61941 26.2681L9.25927 26.615L9.25927 26.615L9.61941 26.2681ZM6.22556 20.8659L6.69249 20.6871L6.69162 20.6849L6.22556 20.8659ZM6.47696 6.10961L6.94001 6.29824L6.94066 6.29664L6.47696 6.10961ZM10.5936 -0.271502L10.2369 -0.62189L10.2348 -0.619768L10.5936 -0.271502ZM16.8156 -4.47723L17.0087 -4.01601L17.0112 -4.01708L16.8156 -4.47723ZM28.8513 -5.56493L28.9524 -6.05458L28.9524 -6.05458L28.8513 -5.56493ZM32.7479 -4.33221L32.5445 -3.87544L32.5474 -3.87415L32.7479 -4.33221ZM35.8904 -2.48314L35.5788 -2.09204L35.5833 -2.08852L35.8904 -2.48314ZM37.8387 -0.235246L38.1233 0.17586L38.4796 -0.0707798L38.2861 -0.458505L37.8387 -0.235246ZM37.6816 -0.126475L37.2342 0.0967842L37.4918 0.613014L37.9662 0.28463L37.6816 -0.126475ZM35.7647 -2.33811L35.4552 -1.94535L35.4598 -1.94179L35.7647 -2.33811ZM32.6851 -4.11467L32.4816 -3.65785L32.4895 -3.65452L32.6851 -4.11467ZM28.7884 -5.34739L28.6858 -4.85804L28.6872 -4.85773L28.7884 -5.34739ZM16.8785 -4.29595L16.6854 -4.75717L16.684 -4.75656L16.8785 -4.29595ZM10.7193 -0.126475L10.3628 -0.477147L10.3608 -0.475001L10.7193 -0.126475ZM6.63408 6.18212L6.17102 5.99349L6.17028 5.99534L6.63408 6.18212ZM6.38268 20.7572L6.84891 20.5765L6.84891 20.5765L6.38268 20.7572ZM9.74511 26.0868L10.1078 25.7426L10.105 25.7397L9.74511 26.0868ZM14.8673 29.6037L15.0647 29.1443L15.0599 29.1423L14.8673 29.6037ZM26.4316 30.1838L26.3088 29.6991L26.3024 29.7008L26.4316 30.1838ZM31.4595 28.2985L31.2348 27.8518L31.2348 27.8518L31.4595 28.2985ZM35.9859 25.008C34.5679 26.1462 33.0366 27.1304 31.3913 27.9609L31.8419 28.8536C33.5486 27.9921 35.1388 26.9702 36.6119 25.7879L35.9859 25.008ZM31.389 27.962C29.7656 28.7919 28.0921 29.4314 26.3682 29.8813L26.6207 30.8489C28.4163 30.3803 30.1576 29.7146 31.8442 28.8525L31.389 27.962ZM26.362 29.883C24.6415 30.3556 22.9682 30.5902 21.3408 30.5902V31.5902C23.0653 31.5902 24.8277 31.3415 26.6269 30.8472L26.362 29.883ZM21.3408 30.5902C19.0343 30.5902 16.9228 30.1784 15.0001 29.3611L14.6089 30.2814C16.6666 31.1561 18.9127 31.5902 21.3408 31.5902V30.5902ZM15.0001 29.3611C13.0703 28.5408 11.3983 27.3945 9.97956 25.9213L9.25927 26.615C10.7735 28.1873 12.5582 29.4097 14.6089 30.2814L15.0001 29.3611ZM9.97956 25.9213C8.56201 24.4493 7.46589 22.7066 6.69249 20.6871L5.75863 21.0448C6.5774 23.1827 7.74385 25.0414 9.25927 26.615L9.97956 25.9213ZM6.69162 20.6849C5.89901 18.6449 5.5 16.4227 5.5 14.0135H4.5C4.5 16.5351 4.91803 18.8813 5.7595 21.047L6.69162 20.6849ZM5.5 14.0135C5.5 11.22 5.98195 8.65009 6.94001 6.29824L6.0139 5.92098C5.00269 8.40331 4.5 11.1027 4.5 14.0135H5.5ZM6.94066 6.29664C7.90212 3.91285 9.23953 1.84119 10.9523 0.0767646L10.2348 -0.619768C8.42806 1.24144 7.02107 3.42385 6.01325 5.92259L6.94066 6.29664ZM10.9503 0.0788807C12.6839 -1.68599 14.7021 -3.05044 17.0087 -4.01602L16.6226 -4.93845C14.1945 -3.92202 12.0647 -2.48265 10.2369 -0.621884L10.9503 0.0788807ZM17.0112 -4.01708C19.3332 -5.00407 21.8534 -5.5 24.5775 -5.5V-6.5C21.729 -6.5 19.0746 -5.98075 16.62 -4.93739L17.0112 -4.01708ZM24.5775 -5.5C25.9893 -5.5 27.38 -5.35838 28.7501 -5.07527L28.9524 -6.05458C27.5152 -6.35157 26.0567 -6.5 24.5775 -6.5V-5.5ZM28.7501 -5.07527C30.1219 -4.79179 31.3861 -4.39128 32.5445 -3.87545L32.9513 -4.78897C31.7214 -5.33665 30.3879 -5.75795 28.9524 -6.05458L28.7501 -5.07527ZM32.5474 -3.87415C33.7296 -3.35679 34.7383 -2.76165 35.5788 -2.09206L36.2019 -2.87421C35.2826 -3.60654 34.1963 -4.24411 32.9484 -4.79027L32.5474 -3.87415ZM35.5833 -2.08852C36.4411 -1.42104 37.0346 -0.726707 37.3913 -0.0119867L38.2861 -0.458505C37.8467 -1.33906 37.1413 -2.14333 36.1974 -2.87775L35.5833 -2.08852ZM37.5541 -0.646351L37.397 -0.537581L37.9662 0.28463L38.1233 0.17586L37.5541 -0.646351ZM38.129 -0.349735C37.6898 -1.22965 36.995 -2.02255 36.0695 -2.73444L35.4598 -1.94179C36.2941 -1.30011 36.8772 -0.618582 37.2342 0.0967842L38.129 -0.349735ZM36.0741 -2.73085C35.1746 -3.43959 34.1082 -4.05303 32.8807 -4.57483L32.4895 -3.65452C33.6502 -3.16114 34.6368 -2.59021 35.4552 -1.94538L36.0741 -2.73085ZM32.8885 -4.57143C31.6586 -5.11912 30.325 -5.54042 28.8896 -5.83704L28.6872 -4.85773C30.059 -4.57426 31.3233 -4.17375 32.4817 -3.65791L32.8885 -4.57143ZM28.8911 -5.83674C27.4743 -6.13393 26.0363 -6.28246 24.5775 -6.28246V-5.28246C25.9679 -5.28246 27.3371 -5.14095 28.6858 -4.85804L28.8911 -5.83674ZM24.5775 -6.28246C21.751 -6.28246 19.1185 -5.77571 16.6854 -4.75717L17.0716 -3.83474C19.3731 -4.79821 21.8733 -5.28246 24.5775 -5.28246V-6.28246ZM16.684 -4.75656C14.2778 -3.74032 12.1695 -2.31346 10.3629 -0.477141L11.0757 0.22419C12.7886 -1.51678 14.7864 -2.86957 17.073 -3.83535L16.684 -4.75656ZM10.3608 -0.475001C8.57508 1.36185 7.17877 3.51968 6.17102 5.99349L7.09713 6.37075C8.05866 4.01039 9.38582 1.96249 11.0778 0.22205L10.3608 -0.475001ZM6.17028 5.99534C5.18047 8.4531 4.68855 11.1277 4.68855 14.0135H5.68855C5.68855 11.2433 6.16031 8.69698 7.09788 6.36891L6.17028 5.99534ZM4.68855 14.0135C4.68855 16.5099 5.09576 18.8198 5.91646 20.9378L6.84891 20.5765C6.07743 18.5855 5.68855 16.3996 5.68855 14.0135H4.68855ZM5.91646 20.9378C6.73515 23.0507 7.89089 24.8848 9.38524 26.434L10.105 25.7397C8.70827 24.2917 7.62239 22.5727 6.84891 20.5765L5.91646 20.9378ZM9.38248 26.4311C10.8767 28.0052 12.6423 29.217 14.6748 30.0651L15.0599 29.1423C13.1538 28.3468 11.5046 27.2141 10.1077 25.7426L9.38248 26.4311ZM14.67 30.0631C16.7073 30.9383 18.933 31.3727 21.3408 31.3727V30.3727C19.0558 30.3727 16.9659 29.9611 15.0647 29.1443L14.67 30.0631ZM21.3408 31.3727C23.0629 31.3727 24.8033 31.1367 26.5607 30.6668L26.3024 29.7008C24.6241 30.1494 22.9706 30.3727 21.3408 30.3727V31.3727ZM26.5543 30.6685C28.3086 30.2242 30.0186 29.5828 31.6841 28.7452L31.2348 27.8518C29.6322 28.6578 27.9903 29.2732 26.3088 29.6991L26.5543 30.6685ZM31.6841 28.7452C33.349 27.9079 34.9075 26.9103 36.3592 25.7526L35.7357 24.9708C34.3383 26.0852 32.8382 27.0455 31.2348 27.8518L31.6841 28.7452ZM21.9378 26.6669L21.6175 25.7196L21.6125 25.7214L21.9378 26.6669ZM25.646 24.8179L25.105 23.9768L25.0987 23.9809L25.646 24.8179ZM29.2284 21.7361L28.5201 21.0301L28.5022 21.048L28.4853 21.0668L29.2284 21.7361ZM32.2451 18.473L33.0008 19.128L33.0071 19.1205L32.2451 18.473ZM35.419 14.6298L34.64 14.0029L34.6395 14.0034L35.419 14.6298ZM38.6243 10.6054L37.8394 9.98581L37.8388 9.98649L38.6243 10.6054ZM41.7039 6.76223L42.4792 7.39389L42.4853 7.38633L41.7039 6.76223ZM44.4693 3.4629L45.2169 4.12706L45.2187 4.12496L44.4693 3.4629ZM47.2975 0.816187L47.8453 1.65278L47.8453 1.65278L47.2975 0.816187ZM49.1201 4.80438L48.2109 4.38806L48.2109 4.38806L49.1201 4.80438ZM46.669 8.75632L47.4598 9.36834L47.4598 9.36834L46.669 8.75632ZM38.53 16.5514L39.1189 17.3596L39.1218 17.3575L38.53 16.5514ZM33.5649 19.6695L34.0267 20.5565L34.0364 20.5513L33.5649 19.6695ZM28.4427 21.8086L28.7293 22.7667L28.7418 22.7628L28.4427 21.8086ZM17.0042 21.1922L17.4757 20.3104L17.4757 20.3104L17.0042 21.1922ZM13.139 17.5304L12.2597 18.0067L12.2638 18.0142L12.268 18.0216L13.139 17.5304ZM12.8561 7.84991L11.954 7.4185L11.9516 7.42353L12.8561 7.84991ZM15.6529 4.18802L14.9964 3.43372L14.9964 3.43372L15.6529 4.18802ZM19.8324 1.75885L19.494 0.817841L19.4901 0.819273L19.8324 1.75885ZM29.9511 1.94013L29.4514 2.80634L29.4514 2.80634L29.9511 1.94013ZM32.5908 4.65936L31.6928 5.0993L31.698 5.11008L31.7036 5.12074L32.5908 4.65936ZM32.6536 11.2218L31.7744 10.7454L31.7703 10.7529L31.7664 10.7604L32.6536 11.2218ZM30.5482 13.7597L29.9211 12.9807L29.9122 12.988L30.5482 13.7597ZM27.4371 15.4637L27.1118 14.5181L27.1066 14.52L27.4371 15.4637ZM19.7381 15.0287L19.1663 15.849L19.1663 15.849L19.7381 15.0287ZM19.4239 9.44519L18.7147 8.74009L18.7056 8.74942L19.4239 9.44519ZM22.692 7.48735L22.362 6.54337L22.3575 6.54497L22.692 7.48735ZM32.0251 7.34233L31.792 8.31477L31.8003 8.31675L31.8085 8.31858L32.0251 7.34233ZM36.7703 8.90135L36.3655 9.81589L36.3778 9.8211L36.7703 8.90135ZM40.9497 11.1855L40.3805 12.0077L40.3805 12.0077L40.9497 11.1855ZM43.9665 13.9772L44.7222 14.6322L45.2543 14.0182L44.7622 13.3716L43.9665 13.9772ZM43.8408 14.1223L43.0523 14.7373L43.8001 15.696L44.5965 14.7772L43.8408 14.1223ZM40.8554 11.403L40.2797 12.2208L40.2906 12.2283L40.8554 11.403ZM36.7074 9.11889L36.298 10.0313L36.3064 10.035L36.3149 10.0386L36.7074 9.11889ZM32.0251 7.55986L31.792 8.53231L31.7989 8.53397L31.8059 8.53553L32.0251 7.55986ZM22.7863 7.70489L23.1104 8.65099L23.1209 8.64727L22.7863 7.70489ZM19.581 9.59022L20.2873 10.2981L20.2888 10.2966L19.581 9.59022ZM19.8638 14.8836L19.2891 15.702L19.2961 15.7069L19.3031 15.7116L19.8638 14.8836ZM31.9623 12.0194L32.766 12.6144L32.7718 12.6065L31.9623 12.0194ZM31.051 2.99157L30.3948 3.74622L30.4002 3.75085L31.051 2.99157ZM19.8953 1.97639L20.2288 2.91916L20.2376 2.91597L19.8953 1.97639ZM15.7786 4.33305L16.433 5.08924L16.433 5.08924L15.7786 4.33305ZM13.0447 7.92243L13.9492 8.34881L13.9492 8.34881L13.0447 7.92243ZM13.4532 17.7116L12.6014 18.2356L12.6053 18.2417L13.4532 17.7116ZM17.4127 21.156L16.9811 22.0581L16.9916 22.063L17.4127 21.156ZM29.2284 21.3373L29.5534 22.283L29.5605 22.2805L29.2284 21.3373ZM35.1676 18.5455L35.6752 19.4072L35.683 19.4025L35.1676 18.5455ZM40.7612 14.5573L40.1189 13.7908L40.1189 13.7908L40.7612 14.5573ZM45.412 9.98904L44.6563 9.33406L44.6513 9.33989L45.412 9.98904ZM48.6173 5.38449L47.7311 4.92118L47.7291 4.92506L48.6173 5.38449ZM47.3918 1.06998L46.8046 0.26038L46.7935 0.268657L47.3918 1.06998ZM44.6892 3.68044L43.9465 3.0109L43.9367 3.02169L43.9273 3.03276L44.6892 3.68044ZM41.4211 8.13996L40.5815 7.59673L40.5768 7.60403L41.4211 8.13996ZM38.0587 13.5059L38.9058 14.0373L38.9089 14.0323L38.0587 13.5059ZM34.4448 18.9081L35.2555 19.4936L35.2593 19.4883L34.4448 18.9081ZM30.4853 23.5489L31.1795 24.2687L31.1849 24.2635L30.4853 23.5489ZM25.8659 26.812L25.4256 25.9141L25.4212 25.9163L25.8659 26.812ZM17.6641 27.6821L17.9854 26.7352L17.9749 26.7316L17.9643 26.7282L17.6641 27.6821ZM16.2814 26.8482L15.4549 27.4111L15.4549 27.4111L16.2814 26.8482ZM16.4071 24.8904L15.7232 24.1608L15.7114 24.1718L15.7 24.1833L16.4071 24.8904ZM22.0321 25.2892L21.6297 26.2047L21.6394 26.2089L21.6491 26.2129L22.0321 25.2892ZM25.9916 27.4283L26.5588 26.6046L26.5482 26.5975L25.9916 27.4283ZM33.942 33.0481L34.4851 32.2084L34.4805 32.2054L33.942 33.0481ZM38.2472 35.2234L38.6106 34.2918L38.6039 34.2892L38.5973 34.2867L38.2472 35.2234ZM47.0147 35.1147L46.4622 34.2811L46.4622 34.2811L47.0147 35.1147ZM47.926 30.5101L47.3568 29.6879L46.5991 30.2125L47.0601 31.0104L47.926 30.5101ZM48.0831 30.4013L48.9587 29.9184L48.4241 28.949L47.5139 29.5791L48.0831 30.4013ZM47.0147 35.8035L46.4455 34.9813L46.4455 34.9813L47.0147 35.8035ZM39.4728 36.6374L39.7264 35.6701L39.7145 35.667L39.7024 35.6642L39.4728 36.6374ZM33.0307 33.1931L32.4398 33.9998L32.4398 33.9998L33.0307 33.1931ZM28.3485 29.4949L27.7057 30.261L27.709 30.2637L28.3485 29.4949ZM22.8177 25.9056L22.3869 26.808L22.3938 26.8113L22.4007 26.8144L22.8177 25.9056ZM17.9469 24.6366V25.6366H17.9554L17.9639 25.6364L17.9469 24.6366ZM16.6271 24.9629L16.1058 24.1095L16.0942 24.1166L16.0827 24.1241L16.6271 24.9629ZM18.7325 28.2833C19.8164 28.2833 20.9977 28.048 22.2632 27.6125L21.6125 25.7214C20.4898 26.1077 19.5341 26.2833 18.7325 26.2833V28.2833ZM22.2582 27.6142C23.5655 27.1722 24.8772 26.5152 26.1932 25.6549L25.0987 23.9809C23.9007 24.7641 22.7404 25.3399 21.6175 25.7196L22.2582 27.6142ZM26.1868 25.659C27.546 24.7849 28.807 23.6981 29.9714 22.4053L28.4853 21.0668C27.429 22.2395 26.3018 23.2072 25.1051 23.9768L26.1868 25.659ZM29.9366 22.442C30.9192 21.4563 31.9406 20.3512 33.0008 19.128L31.4894 17.8181C30.4547 19.0119 29.4649 20.0822 28.5201 21.0301L29.9366 22.442ZM33.0071 19.1205C34.0608 17.8805 35.1246 16.5924 36.1985 15.2563L34.6395 14.0034C33.5765 15.3261 32.5243 16.6001 31.4831 17.8255L33.0071 19.1205ZM36.198 15.2568C37.2895 13.9006 38.3601 12.5565 39.4098 11.2243L37.8388 9.98649C36.7935 11.3131 35.7272 12.6519 34.64 14.0029L36.198 15.2568ZM39.4092 11.225C40.4748 9.87503 41.4981 8.59802 42.4792 7.39386L40.9286 6.13059C39.9404 7.34352 38.9107 8.62862 37.8394 9.98581L39.4092 11.225ZM42.4853 7.38633C43.4613 6.16442 44.3717 5.07838 45.2169 4.12706L43.7217 2.79874C42.849 3.78109 41.9158 4.8946 40.9226 6.13812L42.4853 7.38633ZM45.2187 4.12496C46.3094 2.89029 47.1822 2.08701 47.8453 1.65278L46.7497 -0.0204032C45.8625 0.560546 44.8498 1.52174 43.7198 2.80084L45.2187 4.12496ZM47.8453 1.65278C48.6024 1.157 48.9957 1.05481 49.1201 1.05481V-0.945194C48.3647 -0.945194 47.5428 -0.539804 46.7497 -0.0204031L47.8453 1.65278ZM49.1201 1.05481C49.1505 1.05481 49.1291 1.05994 49.0819 1.03792C49.0295 1.01343 48.9887 0.975647 48.9661 0.943952C48.9479 0.918467 48.9581 0.920379 48.9722 0.979674C48.9864 1.03939 49 1.13833 49 1.28752H51C51 0.787871 50.9163 0.233592 50.594 -0.217983C50.2273 -0.731662 49.6765 -0.945194 49.1201 -0.945194V1.05481ZM49 1.28752C49 2.1687 48.7562 3.19722 48.2109 4.38806L50.0293 5.22071C50.6572 3.84944 51 2.53338 51 1.28752H49ZM48.2109 4.38806C47.6621 5.58662 46.8884 6.83881 45.8781 8.14431L47.4598 9.36834C48.5445 7.9667 49.405 6.58427 50.0293 5.22071L48.2109 4.38806ZM45.8781 8.14431C44.8639 9.45497 43.6823 10.7604 42.3307 12.0599L43.7168 13.5016C45.1306 12.1424 46.3791 10.7648 47.4598 9.36834L45.8781 8.14431ZM42.3307 12.0599C40.9812 13.3574 39.5173 14.586 37.9382 15.7454L39.1218 17.3575C40.769 16.1481 42.301 14.8629 43.7168 13.5016L42.3307 12.0599ZM37.9411 15.7432C36.3859 16.8765 34.7701 17.8912 33.0934 18.7876L34.0364 20.5513C35.7956 19.6108 37.4898 18.5468 39.1189 17.3596L37.9411 15.7432ZM33.1032 18.7825C31.4329 19.652 29.7798 20.3417 28.1437 20.8544L28.7418 22.7628C30.4995 22.212 32.2612 21.4756 34.0267 20.5565L33.1032 18.7825ZM28.1562 20.8505C26.5406 21.3338 25.0032 21.57 23.5405 21.57V23.57C25.2202 23.57 26.951 23.2986 28.7293 22.7667L28.1562 20.8505ZM23.5405 21.57C21.0095 21.57 19.0062 21.1287 17.4757 20.3104L16.5327 22.0741C18.4379 23.0928 20.7921 23.57 23.5405 23.57V21.57ZM17.4757 20.3104C15.9056 19.4709 14.7651 18.3778 14.01 17.0391L12.268 18.0216C13.2307 19.7284 14.667 21.0766 16.5327 22.0741L17.4757 20.3104ZM14.0182 17.054C13.2651 15.6638 12.882 14.1132 12.882 12.382H10.882C10.882 14.4214 11.3368 16.3031 12.2597 18.0067L14.0182 17.054ZM12.882 12.382C12.882 10.8739 13.179 9.51036 13.7607 8.2763L11.9516 7.42353C11.2344 8.94495 10.882 10.6028 10.882 12.382H12.882ZM13.7583 8.28132C14.3686 7.00505 15.2164 5.89369 16.3095 4.94233L14.9964 3.43372C13.7012 4.56106 12.6845 5.89096 11.954 7.4185L13.7583 8.28132ZM16.3095 4.94233C17.4048 3.989 18.6896 3.23954 20.1747 2.69843L19.4901 0.819273C17.7909 1.43837 16.2894 2.30835 14.9964 3.43372L16.3095 4.94233ZM20.1708 2.69986C21.6651 2.1625 23.2987 1.8887 25.0803 1.8887V-0.111299C23.091 -0.111299 21.226 0.195004 19.494 0.817849L20.1708 2.69986ZM25.0803 1.8887C27.0108 1.8887 28.4415 2.22374 29.4514 2.80634L30.4508 1.07393C29.0306 0.254619 27.214 -0.111299 25.0803 -0.111299V1.8887ZM29.4514 2.80634C30.518 3.42161 31.2468 4.18902 31.6928 5.0993L33.4888 4.21942C32.8454 2.90598 31.8144 1.86057 30.4508 1.07393L29.4514 2.80634ZM31.7036 5.12074C32.1962 6.06807 32.4392 7.05818 32.4392 8.10371H34.4392C34.4392 6.73215 34.1166 5.42603 33.478 4.19798L31.7036 5.12074ZM32.4392 8.10371C32.4392 9.05117 32.2179 9.92656 31.7744 10.7454L33.5329 11.6981C34.1368 10.5833 34.4392 9.37997 34.4392 8.10371H32.4392ZM31.7664 10.7604C31.3313 11.5971 30.7209 12.3369 29.9211 12.9807L31.1752 14.5387C32.1771 13.7322 32.9704 12.7801 33.5408 11.6831L31.7664 10.7604ZM29.9122 12.988C29.134 13.6293 28.2049 14.142 27.1118 14.5182L27.7625 16.4093C29.0576 15.9637 30.2026 15.3404 31.1842 14.5314L29.9122 12.988ZM27.1066 14.52C26.0477 14.8908 24.9033 15.0801 23.6662 15.0801V17.0801C25.1107 17.0801 26.4802 16.8585 27.7677 16.4075L27.1066 14.52ZM23.6662 15.0801C22.1936 15.0801 21.102 14.7604 20.31 14.2083L19.1663 15.849C20.3854 16.6988 21.9125 17.0801 23.6662 17.0801V15.0801ZM20.31 14.2083C19.5547 13.6818 19.2297 13.0488 19.2297 12.2369H17.2297C17.2297 13.7454 17.9104 14.9736 19.1663 15.849L20.31 14.2083ZM19.2297 12.2369C19.2297 11.4846 19.5068 10.7968 20.1421 10.141L18.7056 8.74942C17.7488 9.7372 17.2297 10.9106 17.2297 12.2369H19.2297ZM20.133 10.1502C20.8218 9.45747 21.772 8.87513 23.0266 8.42973L22.3575 6.54497C20.8887 7.06641 19.6601 7.78929 18.7147 8.74015L20.133 10.1502ZM23.0221 8.43132C24.2821 7.99078 25.7184 7.76223 27.3429 7.76223V5.76223C25.5316 5.76223 23.8673 6.01709 22.362 6.54338L23.0221 8.43132ZM27.3429 7.76223C28.7654 7.76223 30.2477 7.94454 31.792 8.31477L32.2583 6.36988C30.5763 5.96664 28.9371 5.76223 27.3429 5.76223V7.76223ZM31.8085 8.31858C33.3781 8.66683 34.8968 9.16582 36.3656 9.81581L37.1749 7.98689C35.5851 7.28331 33.9404 6.74295 32.2417 6.36607L31.8085 8.31858ZM36.3778 9.8211C37.8504 10.4495 39.1836 11.1791 40.3805 12.0077L41.5189 10.3633C40.2019 9.45156 38.7487 8.65839 37.1627 7.98159L36.3778 9.8211ZM40.3805 12.0077C41.57 12.8311 42.4928 13.692 43.1707 14.5828L44.7622 13.3716C43.9318 12.2804 42.8434 11.2802 41.5189 10.3633L40.3805 12.0077ZM43.2108 13.3223L43.0851 13.4673L44.5965 14.7772L44.7222 14.6322L43.2108 13.3223ZM44.6293 13.5072C43.7996 12.4436 42.7231 11.4695 41.4203 10.5778L40.2906 12.2283C41.4598 13.0285 42.3736 13.8673 43.0523 14.7373L44.6293 13.5072ZM41.4311 10.5853C40.1324 9.67106 38.6873 8.87655 37.0999 8.19913L36.3149 10.0386C37.7861 10.6665 39.1064 11.3947 40.2798 12.2207L41.4311 10.5853ZM37.1168 8.20652C35.5473 7.50232 33.9229 6.96145 32.2444 6.5842L31.8059 8.53553C33.3537 8.88341 34.8507 9.38188 36.298 10.0313L37.1168 8.20652ZM32.2583 6.58742C30.5763 6.18418 28.9371 5.97976 27.3429 5.97976V7.97976C28.7654 7.97976 30.2477 8.16208 31.792 8.53231L32.2583 6.58742ZM27.3429 5.97976C25.5708 5.97976 23.9366 6.2354 22.4518 6.76251L23.1209 8.64727C24.3595 8.20754 25.763 7.97976 27.3429 7.97976V5.97976ZM22.4623 6.75885C21.0132 7.25518 19.8014 7.95382 18.8732 8.8838L20.2888 10.2966C20.9528 9.63134 21.8779 9.07309 23.1104 8.65093L22.4623 6.75885ZM18.8747 8.88235C17.9332 9.8218 17.4183 10.9512 17.4183 12.2369H19.4183C19.4183 11.5406 19.6786 10.9056 20.2873 10.2981L18.8747 8.88235ZM17.4183 12.2369C17.4183 13.6808 18.0847 14.8561 19.2891 15.702L20.4385 14.0653C19.7156 13.5576 19.4183 12.9685 19.4183 12.2369H17.4183ZM19.3031 15.7116C20.4811 16.5094 21.9635 16.8626 23.6662 16.8626V14.8626C22.2265 14.8626 21.1739 14.5631 20.4246 14.0556L19.3031 15.7116ZM23.6662 16.8626C25.5815 16.8626 27.3462 16.4847 28.9419 15.7109L28.0693 13.9113C26.7739 14.5395 25.3124 14.8626 23.6662 14.8626V16.8626ZM28.9419 15.7109C30.5161 14.9476 31.8006 13.9185 32.766 12.6144L31.1586 11.4244C30.4061 12.4407 29.3862 13.2727 28.0693 13.9113L28.9419 15.7109ZM32.7718 12.6065C33.7511 11.2561 34.2507 9.74646 34.2507 8.10371H32.2507C32.2507 9.31312 31.8913 10.4139 31.1528 11.4323L32.7718 12.6065ZM34.2507 8.10371C34.2507 5.69787 33.4167 3.70216 31.7017 2.23229L30.4002 3.75085C31.6182 4.79475 32.2507 6.20713 32.2507 8.10371H34.2507ZM31.7071 2.23694C30.0277 0.776653 27.7772 0.106238 25.0803 0.106238V2.10624C27.4532 2.10624 29.1832 2.69271 30.3948 3.7462L31.7071 2.23694ZM25.0803 0.106238C23.1107 0.106238 21.2653 0.412925 19.5529 1.03681L20.2376 2.91597C21.7096 2.37965 23.3209 2.10624 25.0803 2.10624V0.106238ZM19.5617 1.03366C17.8816 1.6281 16.3986 2.47414 15.1243 3.57686L16.433 5.08924C17.505 4.16161 18.7664 3.43655 20.2288 2.91912L19.5617 1.03366ZM15.1243 3.57686C13.8476 4.68157 12.8502 5.98973 12.1401 7.49604L13.9492 8.34881C14.5381 7.09964 15.3633 6.01488 16.433 5.08924L15.1243 3.57686ZM12.1401 7.49604C11.4249 9.01346 11.0705 10.6464 11.0705 12.382H13.0705C13.0705 10.9269 13.3656 9.58687 13.9492 8.34881L12.1401 7.49604ZM11.0705 12.382C11.0705 14.59 11.5675 16.5546 12.6014 18.2356L14.305 17.1877C13.4954 15.8715 13.0705 14.283 13.0705 12.382H11.0705ZM12.6053 18.2417C13.6372 19.8924 15.1089 21.1624 16.9812 22.0581L17.8443 20.2539C16.2808 19.5059 15.1128 18.4797 14.3011 17.1815L12.6053 18.2417ZM16.9916 22.063C18.8701 22.9352 21.0631 23.3524 23.5405 23.3524V21.3524C21.2833 21.3524 19.3911 20.972 17.8338 20.249L16.9916 22.063ZM23.5405 23.3524C25.4882 23.3524 27.4942 22.9907 29.5534 22.283L28.9033 20.3916C27.024 21.0374 25.238 21.3524 23.5405 21.3524V23.3524ZM29.5605 22.2805C31.6166 21.5564 33.6548 20.5974 35.6752 19.4071L34.66 17.6839C32.7418 18.814 30.8206 19.7163 28.8962 20.3941L29.5605 22.2805ZM35.683 19.4025C37.6968 18.1913 39.6037 16.8317 41.4034 15.3239L40.1189 13.7908C38.3991 15.2318 36.577 16.531 34.6522 17.6886L35.683 19.4025ZM41.4034 15.3239C43.2012 13.8176 44.792 12.256 46.1727 10.6382L44.6513 9.33989C43.3504 10.8643 41.8407 12.3483 40.1189 13.7908L41.4034 15.3239ZM46.1677 10.644C47.5697 9.02639 48.6869 7.42668 49.5055 5.84391L47.7291 4.92506C46.9975 6.33948 45.9778 7.80947 44.6563 9.33408L46.1677 10.644ZM49.5035 5.84778C50.3448 4.23856 50.8115 2.71099 50.8115 1.28752H48.8115C48.8115 2.28114 48.482 3.48488 47.7311 4.92119L49.5035 5.84778ZM50.8115 1.28752C50.8115 0.866845 50.7455 0.374917 50.4652 -0.0367439C50.1379 -0.517241 49.6329 -0.727657 49.1201 -0.727657V1.27234C49.1127 1.27234 49.0578 1.27063 48.9829 1.23397C48.9035 1.19508 48.8457 1.13839 48.8121 1.08902C48.7829 1.04622 48.7848 1.02825 48.7931 1.06475C48.8013 1.10112 48.8115 1.1719 48.8115 1.28752H50.8115ZM49.1201 -0.727657C48.7109 -0.727657 48.3129 -0.601489 47.9547 -0.436218C47.5885 -0.267188 47.2036 -0.0288834 46.8047 0.260457L47.9788 1.87951C48.3131 1.63709 48.583 1.47657 48.7928 1.37972C48.8964 1.33193 48.9763 1.30387 49.0345 1.28831C49.0631 1.28066 49.0845 1.27658 49.0992 1.27445C49.1138 1.27233 49.1205 1.27234 49.1201 1.27234V-0.727657ZM46.7935 0.268657C46.0025 0.859227 45.05 1.78669 43.9465 3.0109L45.432 4.34998C46.5073 3.15709 47.3565 2.34426 47.99 1.87131L46.7935 0.268657ZM43.9273 3.03276C42.8251 4.32945 41.7101 5.85237 40.5815 7.59675L42.2607 8.68318C43.3527 6.99529 44.4166 5.54519 45.4512 4.32811L43.9273 3.03276ZM40.5768 7.60403C39.4853 9.32357 38.3625 11.1154 37.2084 12.9795L38.9089 14.0323C40.0593 12.1741 41.1781 10.3886 42.2653 8.67589L40.5768 7.60403ZM37.2115 12.9745C36.0697 14.7949 34.876 16.5794 33.6304 18.3279L35.2593 19.4883C36.5277 17.7079 37.7432 15.8908 38.9058 14.0373L37.2115 12.9745ZM33.6342 18.3226C32.4069 20.0217 31.1237 21.5246 29.7858 22.8343L31.1849 24.2635C32.6123 22.8661 33.9688 21.2751 35.2555 19.4936L33.6342 18.3226ZM29.7912 22.8291C28.459 24.1137 27.0042 25.1401 25.4257 25.9141L26.3062 27.7098C28.0796 26.8402 29.7044 25.6912 31.1795 24.2687L29.7912 22.8291ZM25.4212 25.9163C23.89 26.6766 22.3758 27.0447 20.8694 27.0447V29.0447C22.715 29.0447 24.5318 28.5909 26.3107 27.7076L25.4212 25.9163ZM20.8694 27.0447C19.4747 27.0447 18.5391 26.923 17.9854 26.7352L17.3428 28.6291C18.2136 28.9246 19.415 29.0447 20.8694 29.0447V27.0447ZM17.9643 26.7282C17.3401 26.5318 17.1462 26.3414 17.108 26.2853L15.4549 27.4111C15.8776 28.0318 16.6054 28.3973 17.364 28.636L17.9643 26.7282ZM17.108 26.2853C16.9566 26.0631 16.9358 25.9299 16.9358 25.8693H14.9358C14.9358 26.4371 15.1453 26.9565 15.4549 27.4111L17.108 26.2853ZM16.9358 25.8693C16.9358 25.8607 16.9365 25.8421 16.9546 25.8046C16.9747 25.7629 17.0192 25.6925 17.1142 25.5975L15.7 24.1833C15.2593 24.624 14.9358 25.1903 14.9358 25.8693H16.9358ZM17.091 25.6199C17.1711 25.5449 17.3838 25.4191 17.9155 25.4191V23.4191C17.1065 23.4191 16.3136 23.6074 15.7232 24.1608L17.091 25.6199ZM17.9155 25.4191C19.1998 25.4191 20.4352 25.6796 21.6297 26.2047L22.4345 24.3737C20.9894 23.7386 19.4803 23.4191 17.9155 23.4191V25.4191ZM21.6491 26.2129C22.9247 26.7418 24.1867 27.4228 25.435 28.2591L26.5482 26.5975C25.1988 25.6936 23.8211 24.9484 22.4151 24.3655L21.6491 26.2129ZM25.4245 28.252C26.7116 29.1382 28.0099 30.0728 29.3193 31.056L30.5201 29.4567C29.1899 28.4578 27.8694 27.5071 26.5587 26.6047L25.4245 28.252ZM29.3193 31.056C30.6588 32.0618 32.0202 33.0067 33.4036 33.8907L34.4805 32.2054C33.1404 31.3491 31.8203 30.4329 30.5201 29.4567L29.3193 31.056ZM33.3989 33.8877C34.84 34.8198 36.3396 35.578 37.8971 36.1602L38.5973 34.2867C37.18 33.757 35.8094 33.0649 34.4851 32.2084L33.3989 33.8877ZM37.8839 36.1551C39.4899 36.7814 41.1741 37.0936 42.9295 37.0936V35.0936C41.4167 35.0936 39.9794 34.8256 38.6106 34.2918L37.8839 36.1551ZM42.9295 37.0936C44.7772 37.0936 46.3584 36.7494 47.5671 35.9482L46.4622 34.2811C45.7017 34.7852 44.5594 35.0936 42.9295 35.0936V37.0936ZM47.5671 35.9482C48.8251 35.1144 49.4916 33.8982 49.4916 32.3954H47.4916C47.4916 33.2131 47.1735 33.8097 46.4622 34.2811L47.5671 35.9482ZM49.4916 32.3954C49.4916 31.577 49.2353 30.7773 48.7918 30.0098L47.0601 31.0104C47.3708 31.5481 47.4916 32.0053 47.4916 32.3954H49.4916ZM48.4952 31.3323L48.6523 31.2235L47.5139 29.5791L47.3568 29.6879L48.4952 31.3323ZM47.2075 30.8843C47.5929 31.5832 47.743 32.1535 47.743 32.613H49.743C49.743 31.7189 49.4532 30.8148 48.9587 29.9184L47.2075 30.8843ZM47.743 32.613C47.743 33.5937 47.3452 34.3585 46.4455 34.9813L47.5838 36.6258C48.9886 35.6533 49.743 34.2911 49.743 32.613H47.743ZM46.4455 34.9813C45.5158 35.6249 44.1779 36 42.3324 36V38C44.4255 38 46.2091 37.5774 47.5838 36.6258L46.4455 34.9813ZM42.3324 36C41.4305 36 40.5627 35.8894 39.7264 35.6701L39.2191 37.6047C40.2264 37.8689 41.265 38 42.3324 38V36ZM39.7024 35.6642C38.8838 35.471 37.9926 35.1211 37.0265 34.5979L36.0741 36.3566C37.161 36.9452 38.2181 37.3688 39.2431 37.6107L39.7024 35.6642ZM37.0265 34.5979C36.0521 34.0702 34.9182 33.3362 33.6217 32.3864L32.4398 33.9998C33.7829 34.9837 34.9954 35.7724 36.0741 36.3566L37.0265 34.5979ZM33.6217 32.3864C32.3238 31.4356 30.7799 30.2167 28.9879 28.7261L27.709 30.2637C29.5203 31.7704 31.098 33.0169 32.4398 33.9998L33.6217 32.3864ZM28.9912 28.7289C27.0915 27.1348 25.1731 25.8861 23.2348 24.9967L22.4007 26.8144C24.1495 27.6169 25.9183 28.7612 27.7057 30.261L28.9912 28.7289ZM23.2486 25.0031C21.3408 24.0923 19.5602 23.6091 17.93 23.6367L17.9639 25.6364C19.1828 25.6158 20.6494 25.9785 22.3869 26.808L23.2486 25.0031ZM17.9469 23.6366C17.2858 23.6366 16.6544 23.7744 16.1058 24.1095L17.1484 25.8163C17.3121 25.7163 17.5606 25.6366 17.9469 25.6366V23.6366ZM16.0827 24.1241C15.523 24.4873 15.1243 25.0542 15.1243 25.7968H17.1243C17.1243 25.7956 17.1243 25.8033 17.1207 25.8167C17.117 25.8304 17.1115 25.8424 17.1064 25.8509C17.096 25.8681 17.1022 25.8467 17.1715 25.8017L16.0827 24.1241ZM15.1243 25.7968C15.1243 26.6989 15.6386 27.3598 16.3639 27.76L17.3302 26.0089C17.1937 25.9336 17.1489 25.8763 17.1379 25.8597C17.1324 25.8515 17.1304 25.8463 17.1291 25.8418C17.1276 25.8368 17.1243 25.8233 17.1243 25.7968H15.1243ZM16.3639 27.76C17.0419 28.1341 17.8536 28.2833 18.7325 28.2833V26.2833C18.0612 26.2833 17.6159 26.1666 17.3302 26.0089L16.3639 27.76Z" fill="white" mask="url(#path-1-outside-1)"/>
</g>
<defs>
<filter id="filter0_d" x="0.5" y="-6.5" width="54.5" height="52.5" filterUnits="userSpaceOnUse" color-interpolation-filters="sRGB">
<feFlood flood-opacity="0" result="BackgroundImageFix"/>
<feColorMatrix in="SourceAlpha" type="matrix" values="0 0 0 0 0 0 0 0 0 0 0 0 0 0 0 0 0 0 127 0" result="hardAlpha"/>
<feOffset dy="4"/>
<feGaussianBlur stdDeviation="2"/>
<feComposite in2="hardAlpha" operator="out"/>
<feColorMatrix type="matrix" values="0 0 0 0 0 0 0 0 0 0 0 0 0 0 0 0 0 0 0.25 0"/>
<feBlend mode="normal" in2="BackgroundImageFix" result="effect1_dropShadow"/>
<feBlend mode="normal" in="SourceGraphic" in2="effect1_dropShadow" result="shape"/>
</filter>
</defs>
</svg>
