<svg width="75" height="50" viewBox="0 0 75 50" fill="none" xmlns="http://www.w3.org/2000/svg">
<path d="M37.205 27.1997H37.4722L37.2384 27.4791C36.1252 28.8059 34.8004 30.0279 33.2641 31.1453C31.7278 32.2626 30.0691 33.2286 28.2878 34.0433C26.5289 34.858 24.7143 35.4865 22.844 35.9288C20.9738 36.3943 19.148 36.6271 17.3668 36.6271C14.8508 36.6271 12.5353 36.2197 10.4201 35.405C8.30489 34.5903 6.46802 33.4497 4.90946 31.9832C3.3509 30.5168 2.14858 28.7826 1.30251 26.7807C0.43417 24.7556 0 22.5559 0 20.1816C0 17.4348 0.52323 14.8976 1.56969 12.5698C2.61615 10.2188 4.07452 8.17039 5.94479 6.42458C7.83733 4.67877 10.0416 3.32868 12.5575 2.3743C15.0958 1.39665 17.8455 0.907822 20.8068 0.907822C22.3431 0.907822 23.8571 1.04749 25.3488 1.32682C26.8406 1.60615 28.221 2.00186 29.4902 2.51397C30.7815 3.02607 31.8948 3.61965 32.8299 4.29469C33.7873 4.96974 34.4776 5.69134 34.9006 6.4595L34.7336 6.56425C34.3106 5.79609 33.6315 5.08613 32.6963 4.43436C31.7835 3.78259 30.6925 3.21229 29.4234 2.72346C28.1543 2.21136 26.7738 1.81564 25.2821 1.53631C23.8126 1.25698 22.3208 1.11732 20.8068 1.11732C17.8678 1.11732 15.1403 1.59451 12.6243 2.54888C10.1306 3.50326 7.94865 4.84171 6.07838 6.56425C4.23037 8.28678 2.78314 10.3119 1.73668 12.6397C0.712484 14.9441 0.200386 17.4581 0.200386 20.1816C0.200386 22.5326 0.623424 24.6974 1.4695 26.676C2.31557 28.6546 3.50676 30.3655 5.04305 31.8087C6.57935 33.2751 8.39395 34.4041 10.4869 35.1955C12.5798 36.0102 14.8731 36.4176 17.3668 36.4176C19.148 36.4176 20.9515 36.1965 22.7772 35.7542C24.603 35.3352 26.3842 34.73 28.1209 33.9385C29.8575 33.1471 31.4829 32.2044 32.9969 31.1103C34.511 30.0163 35.8357 28.8059 36.9712 27.4791L37.205 27.1997ZM14.5948 32.9609C15.5967 32.9609 16.7322 32.763 18.0014 32.3673C19.2927 31.9716 20.6064 31.378 21.9423 30.5866C23.3005 29.7952 24.5696 28.8059 25.7496 27.6187C26.7738 26.6876 27.8425 25.6401 28.9558 24.4763C30.0691 23.2891 31.1934 22.0554 32.329 20.7751C33.4868 19.4716 34.6223 18.1797 35.7355 16.8994C36.8711 15.5959 37.962 14.3622 39.0085 13.1983C40.055 12.0112 41.0346 10.952 41.9475 10.021C43.1276 8.81052 44.1295 7.96089 44.9533 7.47207C45.7771 6.98324 46.4228 6.73883 46.8904 6.73883C47.5138 6.73883 47.8255 7.13454 47.8255 7.92598C47.8255 8.95019 47.5138 10.0791 46.8904 11.3128C46.2669 12.5466 45.3986 13.8152 44.2853 15.1187C43.1721 16.4223 41.8807 17.7142 40.4112 18.9944C38.9417 20.2747 37.3498 21.4851 35.6353 22.6257C33.9432 23.743 32.1842 24.7439 30.3585 25.6285C28.5328 26.4898 26.7182 27.1764 24.9147 27.6885C23.1112 28.1774 21.3745 28.4218 19.7046 28.4218C16.8992 28.4218 14.5837 27.9795 12.7579 27.095C10.9322 26.2104 9.56287 25.0349 8.65 23.5684C7.7594 22.0787 7.31409 20.426 7.31409 18.6103C7.31409 17.0275 7.6592 15.5726 8.34942 14.2458C9.06191 12.8957 10.0527 11.7202 11.3218 10.7193C12.5909 9.71834 14.0716 8.93855 15.7637 8.37989C17.4781 7.82123 19.3373 7.5419 21.3411 7.5419C23.5008 7.5419 25.2264 7.87942 26.5178 8.55447C27.8091 9.22952 28.7443 10.1024 29.3232 11.1732C29.9243 12.2207 30.2249 13.3264 30.2249 14.4902C30.2249 15.561 29.9466 16.5619 29.39 17.493C28.8556 18.4241 28.1097 19.2388 27.1523 19.9372C26.2172 20.6355 25.1151 21.1825 23.846 21.5782C22.5991 21.9739 21.2632 22.1718 19.8382 22.1718C18.1238 22.1718 16.7322 21.8343 15.6635 21.1592C14.5948 20.4842 14.0604 19.588 14.0604 18.4707C14.0604 17.4697 14.4835 16.5736 15.3295 15.7821C16.1979 14.9907 17.3557 14.3622 18.8029 13.8966C20.2724 13.4311 21.92 13.1983 23.7458 13.1983C25.3488 13.1983 27.0076 13.3845 28.722 13.757C30.4587 14.1061 32.1397 14.6066 33.7651 15.2584C35.3904 15.8869 36.8711 16.6201 38.207 17.4581C39.5429 18.2961 40.6116 19.1923 41.4131 20.1466L41.2795 20.2863C40.478 19.3552 39.4204 18.4823 38.1068 17.6676C36.7931 16.8296 35.3236 16.0964 33.6983 15.4679C32.0952 14.8161 30.4364 14.3156 28.722 13.9665C27.0076 13.594 25.3488 13.4078 23.7458 13.4078C21.9645 13.4078 20.3503 13.6406 18.9031 14.1061C17.4781 14.5484 16.3426 15.1536 15.4965 15.9218C14.6727 16.6667 14.2608 17.5163 14.2608 18.4707C14.2608 19.5182 14.7729 20.3678 15.7971 21.0196C16.8213 21.648 18.1683 21.9623 19.8382 21.9623C21.7308 21.9623 23.4452 21.6248 24.9815 20.9497C26.5178 20.2747 27.7424 19.3785 28.6552 18.2612C29.5681 17.1206 30.0245 15.8636 30.0245 14.4902C30.0245 12.4185 29.2452 10.7775 27.6867 9.56704C26.1504 8.35661 24.0352 7.7514 21.3411 7.7514C19.3595 7.7514 17.5227 8.03073 15.8305 8.58939C14.1606 9.12477 12.7023 9.88128 11.4554 10.8589C10.2086 11.8366 9.24003 12.9888 8.54981 14.3156C7.85959 15.6425 7.51448 17.074 7.51448 18.6103C7.51448 20.5889 8.00431 22.2998 8.98398 23.743C9.96365 25.1629 11.3663 26.2686 13.1921 27.0601C15.0178 27.8282 17.1887 28.2123 19.7046 28.2123C21.6417 28.2123 23.6567 27.8864 25.7496 27.2346C27.8648 26.5596 29.9689 25.6634 32.0618 24.5461C34.1547 23.4055 36.1363 22.1252 38.0066 20.7053C39.8768 19.2854 41.5245 17.8189 42.9494 16.3059C44.3967 14.7928 45.5322 13.3147 46.356 11.8715C47.2021 10.405 47.6251 9.08985 47.6251 7.92598C47.6251 7.27421 47.3802 6.94832 46.8904 6.94832C46.4451 6.94832 45.8328 7.20438 45.0535 7.71648C44.2965 8.22859 43.3391 9.06657 42.1813 10.2304C41.0458 11.4409 39.888 12.8724 38.7079 14.5251C37.5501 16.1778 36.359 17.9004 35.1344 19.6927C33.9098 21.4618 32.6295 23.196 31.2936 24.8953C29.9577 26.5712 28.555 28.061 27.0855 29.3645C25.5938 30.6681 23.9573 31.7155 22.1761 32.507C20.4171 33.2984 18.647 33.6941 16.8658 33.6941C15.3518 33.6941 14.2163 33.5777 13.4593 33.345C12.7245 33.1355 12.2347 32.8678 11.9898 32.5419C11.7449 32.216 11.6224 31.9018 11.6224 31.5992C11.6224 31.2733 11.7894 30.959 12.1234 30.6564C12.4796 30.3538 13.014 30.2025 13.7265 30.2025C15.2405 30.2025 16.6988 30.4818 18.1016 31.0405C19.5265 31.5759 20.9292 32.2626 22.3097 33.1006C23.6901 33.9618 25.0817 34.8696 26.4844 35.824C27.8871 36.7784 29.312 37.6746 30.7593 38.5126C32.2288 39.3738 33.7539 40.0722 35.3348 40.6075C36.9156 41.1662 38.5743 41.4455 40.311 41.4455C42.159 41.4455 43.6063 41.1313 44.6527 40.5028C45.6992 39.8743 46.2224 39.0014 46.2224 37.8841C46.2224 37.3021 46.022 36.6969 45.6212 36.0684L45.7882 35.9637C46.2558 36.7318 46.4896 37.4418 46.4896 38.0936C46.4896 39.3738 45.8773 40.398 44.6527 41.1662C43.4281 41.9344 41.7694 42.3184 39.6765 42.3184C38.63 42.3184 37.6169 42.202 36.6373 41.9693C35.6576 41.7598 34.6223 41.3873 33.5313 40.852C32.4403 40.3166 31.1934 39.5833 29.7907 38.6522C28.388 37.7211 26.7293 36.534 24.8145 35.0908C22.8552 33.601 20.8958 32.4488 18.9365 31.6341C16.9994 30.7961 15.2739 30.3887 13.7598 30.412C13.2032 30.412 12.7357 30.5168 12.3571 30.7263C12.0009 30.9358 11.8228 31.2034 11.8228 31.5293C11.8228 31.9716 12.0788 32.3208 12.5909 32.5768C13.103 32.8329 13.771 32.9609 14.5948 32.9609Z" fill="#121218"/>
<path d="M36.612 31.9832C36.3448 31.9832 36.1444 31.8552 36.0108 31.5992C35.8549 31.3431 35.777 30.9939 35.777 30.5517C35.777 29.9465 35.9551 29.3063 36.3114 28.6313C36.6454 27.9562 37.1018 27.3045 37.6807 26.676C38.2596 26.0242 38.9053 25.4423 39.6177 24.9302C40.3302 24.3948 41.065 23.9758 41.822 23.6732C42.6013 23.3706 43.336 23.2193 44.0262 23.2193C44.6051 23.2193 44.8946 23.452 44.8946 23.9176C44.8946 24.3599 44.6274 24.9185 44.093 25.5936C43.5587 26.2453 42.8907 27.0135 42.0892 27.898C41.4435 28.5964 40.7644 29.2598 40.0519 29.8883C39.3617 30.4935 38.716 30.9939 38.1149 31.3897C37.5137 31.7854 37.0127 31.9832 36.612 31.9832ZM36.6454 31.8087C36.9793 31.8087 37.4135 31.6341 37.9479 31.2849C38.5045 30.9358 39.1279 30.4586 39.8181 29.8534C40.5084 29.2481 41.2208 28.5498 41.9556 27.7584C42.7571 26.8738 43.4028 26.1173 43.8927 25.4888C44.4048 24.8603 44.6608 24.3482 44.6608 23.9525C44.6608 23.6499 44.4716 23.4986 44.093 23.4986C43.7591 23.4986 43.3249 23.6383 42.7905 23.9176C42.2784 24.1969 41.7218 24.581 41.1206 25.0698C40.5195 25.5354 39.9295 26.0591 39.3506 26.6411C38.7717 27.223 38.2373 27.8049 37.7475 28.3869C37.2799 28.9688 36.9014 29.5158 36.612 30.0279C36.3225 30.54 36.1778 30.9707 36.1778 31.3198C36.1778 31.6457 36.3336 31.8087 36.6454 31.8087ZM44.9948 27.4791C44.4382 28.1308 43.9038 28.6429 43.3917 29.0154C42.8796 29.3878 42.4343 29.574 42.0558 29.574C41.4546 29.574 41.154 29.2481 41.154 28.5964C41.154 28.2239 41.2431 27.8631 41.4212 27.514C41.5993 27.1415 41.9111 26.6876 42.3564 26.1522H43.5921L42.0224 27.9679C41.7552 28.2472 41.6216 28.5615 41.6216 28.9106C41.6216 29.2365 41.7775 29.3994 42.0892 29.3994C42.4009 29.3994 42.7794 29.2365 43.2247 28.9106C43.6923 28.5847 44.171 28.1308 44.6608 27.5489L44.9614 27.1997H45.2286L44.9948 27.4791Z" fill="#121218"/>
<path d="M44.1071 31.9832C43.506 31.9832 43.2054 31.6341 43.2054 30.9358C43.2054 29.8417 43.7954 28.5964 44.9755 27.1997L66.9178 1.22207H69.0218C68.6656 1.40829 68.1201 1.85056 67.3853 2.54888C66.6728 3.22393 65.8379 4.07356 64.8805 5.09777C63.9454 6.0987 62.9657 7.20438 61.9415 8.4148L46.445 26.7807C45.4208 27.9679 44.7083 28.8873 44.3075 29.5391C43.9067 30.1909 43.7064 30.7495 43.7064 31.2151C43.7064 31.6108 43.8622 31.8087 44.1739 31.8087C44.7528 31.8087 45.5432 31.4362 46.5452 30.6913C47.5471 29.9232 48.6047 28.8757 49.7179 27.5489L50.0185 27.1997H50.2857L50.0519 27.4791C48.8273 28.9223 47.703 30.0396 46.6788 30.831C45.6768 31.5992 44.8196 31.9832 44.1071 31.9832ZM49.1502 31.9832C48.549 31.9832 48.2484 31.6341 48.2484 30.9358C48.2484 29.8417 48.8385 28.5964 50.0185 27.1997L72.729 0.314246C73.0407 0.314246 73.3969 0.290968 73.7977 0.244412C74.2207 0.174581 74.6215 0.0931101 75 0C74.6438 0.18622 74.0537 0.686686 73.2299 1.5014C72.4061 2.31611 71.4487 3.32868 70.3577 4.53911C69.289 5.72626 68.1646 7.01816 66.9846 8.4148L51.488 26.7807C50.4638 27.9679 49.7513 28.8873 49.3506 29.5391C48.9498 30.1909 48.7494 30.7495 48.7494 31.2151C48.7494 31.6108 48.9053 31.8087 49.217 31.8087C49.7959 31.8087 50.5863 31.4362 51.5882 30.6913C52.5901 29.9232 53.6477 28.8757 54.761 27.5489L55.0616 27.1997H55.3288L55.095 27.4791C53.8704 28.9223 52.746 30.0396 51.7218 30.831C50.7199 31.5992 49.8627 31.9832 49.1502 31.9832Z" fill="#121218"/>
<path d="M40.0245 50C38.8222 50 37.8982 49.7672 37.2525 49.3017C36.6068 48.8361 36.284 48.1611 36.284 47.2765C36.284 46.7179 36.4621 46.2407 36.8183 45.845C37.1523 45.4493 37.5865 45.1816 38.1209 45.0419V45.2165C37.631 45.3329 37.2414 45.5773 36.9519 45.9497C36.6402 46.3222 36.4844 46.7644 36.4844 47.2765C36.4844 48.068 36.7738 48.6848 37.3527 49.1271C37.9316 49.5694 38.722 49.7905 39.7239 49.7905C41.0153 49.7905 42.3401 49.4064 43.6983 48.6383C45.0342 47.8934 46.4146 46.8459 47.8396 45.4958C49.2646 44.1457 50.7341 42.5512 52.2481 40.7123C53.7398 38.8966 55.265 36.9181 56.8236 34.7765C58.4044 32.635 60.0186 30.4004 61.6662 28.0726L61.733 28.4567H61.0651L63.8705 25.4539L65.34 23.6034H67.2102C66.6314 24.0456 66.0079 24.5577 65.34 25.1397C64.672 25.7216 64.0152 26.3268 63.3695 26.9553C62.7461 27.5605 62.1783 28.1657 61.6662 28.771C60.1522 31.1453 58.6827 33.3915 57.2577 35.5098C55.855 37.6513 54.4635 39.6066 53.083 41.3757C51.7026 43.1448 50.3221 44.6695 48.9417 45.9497C47.539 47.2533 46.1029 48.2542 44.6334 48.9525C43.1639 49.6508 41.6276 50 40.0245 50ZM56.1556 31.9832C55.599 31.9832 55.3207 31.6574 55.3207 31.0056C55.3207 30.4236 55.4877 29.8766 55.8216 29.3645C56.1556 28.8524 56.5675 28.3636 57.0573 27.898C57.5694 27.4092 58.0704 26.9437 58.5602 26.5014C59.0723 26.0591 59.4954 25.6401 59.8294 25.2444C60.1633 24.8254 60.3303 24.4181 60.3303 24.0223C60.3303 23.7663 60.1967 23.6383 59.9295 23.6383C59.6624 23.6383 59.2839 23.7896 58.794 24.0922C58.3265 24.3715 57.8032 24.7556 57.2243 25.2444C56.6677 25.7332 56.1333 26.2686 55.6212 26.8506L55.3207 27.1997H55.0535L55.3541 26.8506C56.2447 25.8264 57.1019 25.0116 57.9257 24.4064C58.7718 23.7779 59.4508 23.4637 59.9629 23.4637C60.1633 23.4637 60.3749 23.5568 60.5975 23.743C60.8424 23.9292 60.9649 24.2435 60.9649 24.6858C60.9649 25.1979 60.7868 25.71 60.4305 26.2221C60.0743 26.7109 59.629 27.1881 59.0946 27.6536C58.5825 28.1192 58.0593 28.5615 57.5249 28.9804C56.9906 29.3994 56.5452 29.8068 56.189 30.2025C55.8328 30.5982 55.6546 30.9707 55.6546 31.3198C55.6546 31.4828 55.7103 31.6108 55.8216 31.7039C55.933 31.7737 56.0554 31.8087 56.189 31.8087C56.5007 31.8087 56.9238 31.6574 57.4581 31.3547C58.0147 31.0289 58.6159 30.6099 59.2616 30.0978C59.9073 29.5857 60.5084 29.0386 61.0651 28.4567H61.2989C60.72 29.0852 60.0965 29.6671 59.4286 30.2025C58.7606 30.7379 58.1372 31.1685 57.5583 31.4944C56.9794 31.8203 56.5119 31.9832 56.1556 31.9832Z" fill="#121218"/>
</svg>
